<svg width="271" height="143" viewBox="0 0 271 143" xmlns="http://www.w3.org/2000/svg" xmlns:xlink="http://www.w3.org/1999/xlink" xmlns:figma="http://www.figma.com/figma/ns"><title>accent-1</title><desc>Created using Figma</desc><g figma:type="canvas"><g figma:type="frame" transform="translate(2)"><use xlink:href="#a" transform="translate(155)" fill="#A9F5FA" figma:type="ellipse"/><use xlink:href="#b" transform="rotate(87.383 4.138 118.546) skewX(-.037)" fill="#FFC78C" figma:type="vector"/><use xlink:href="#c" transform="translate(0 38)" fill="#BB6BD9" figma:type="vector"/></g></g><defs><path id="a" d="M14 7A7 7 0 1 1 0 7a7 7 0 0 1 14 0z"/><path id="b" d="M32.262 19.57C28.045 15.002 19.902 6.141 14.957.66c-.312-.355-.893-.084-.873.395l.624 7.756a.504.504 0 0 1-.79.459L.788.096C.29-.258-.291.451.167.868l18.946 18.618c.332.334.893.042.852-.417l-.728-6.234c-.041-.438.437-.73.79-.48 3.573 2.607 8.434 5.838 11.613 7.944.478.334 1.018-.313.623-.73z"/><path id="c" d="M0-1.5a1.5 1.5 0 0 0 0 3v-3zm265.611 37.248a1.5 1.5 0 0 0 2.778-1.135l-2.778 1.135zM0 1.5c6.71 0 11.894 4.079 16.425 10.75 4.567 6.708 8.22 15.691 11.939 24.816 3.719 9.125 7.505 18.392 12.235 25.37C45.366 69.455 51.34 74.5 59.506 74.5v-3c-6.71 0-11.894-4.079-16.425-10.75-4.568-6.708-8.22-15.691-11.939-24.816-3.72-9.125-7.505-18.392-12.235-25.37C14.14 3.545 8.167-1.5 0-1.5v3zm59.506 73c8.144 0 14.099-5.05 18.85-12.065 4.716-6.978 8.492-16.245 12.205-25.37 3.712-9.124 7.361-18.107 11.927-24.816 4.53-6.67 9.714-10.749 16.424-10.749v-3c-8.167 0-14.14 5.047-18.905 12.064-4.73 6.978-8.512 16.245-12.225 25.37-3.713 9.126-7.356 18.11-11.91 24.819C71.353 67.424 66.189 71.5 59.506 71.5v3zm59.406-73c6.71 0 11.893 4.079 16.425 10.75 4.567 6.708 8.22 15.691 11.939 24.816 3.719 9.125 7.505 18.392 12.235 25.37 4.767 7.018 10.74 12.064 18.907 12.064v-3c-6.71 0-11.894-4.079-16.425-10.75-4.568-6.708-8.22-15.691-11.939-24.816-3.719-9.125-7.505-18.392-12.236-25.37C133.052 3.545 127.078-1.5 118.912-1.5v3zm59.506 73c8.166 0 14.14-5.046 18.905-12.064 4.729-6.978 8.512-16.245 12.224-25.37 3.713-9.126 7.357-18.11 11.91-24.819C225.976 5.576 231.141 1.5 237.823 1.5v-3c-8.143 0-14.098 5.05-18.849 12.065-4.716 6.978-8.493 16.245-12.205 25.37-3.713 9.124-7.362 18.107-11.928 24.816-4.53 6.67-9.713 10.749-16.423 10.749v3zm59.405-73c6.524 0 11.604 3.882 16.056 10.273 4.492 6.435 8.097 15.08 11.732 23.975l2.778-1.135c-3.64-8.905-7.388-17.85-12.049-24.555C251.639 3.308 245.769-1.5 237.823-1.5v3z"/></defs></svg>