<svg width="940" height="451" viewBox="0 0 940 451" xmlns="http://www.w3.org/2000/svg" xmlns:xlink="http://www.w3.org/1999/xlink" xmlns:figma="http://www.figma.com/figma/ns"><title>bg-ai</title><desc>Created using Figma</desc><g figma:type="canvas"><g opacity=".15" figma:type="frame" transform="translate(-200 159)"><g figma:type="frame" fill="#FFF"><use xlink:href="#a" transform="translate(1091 139)" figma:type="vector"/><use xlink:href="#b" transform="translate(1096.19 143.523)" figma:type="vector"/><use xlink:href="#c" transform="translate(1108.75 141.964)" figma:type="vector"/><use xlink:href="#d" transform="translate(1122.12 154.226)" figma:type="vector"/><use xlink:href="#e" transform="translate(1128.84 154.111)" figma:type="vector"/></g><g figma:type="frame" fill="#FFF"><use xlink:href="#f" transform="translate(1105 -85)" figma:type="vector"/><use xlink:href="#g" transform="translate(1122.8 -70.087)" figma:type="vector"/><use xlink:href="#h" transform="translate(1107.6 -80.492)" figma:type="vector"/></g><g figma:type="frame" fill="#FFF"><use xlink:href="#i" transform="translate(203.127 -62.858)" figma:type="vector"/><use xlink:href="#j" transform="translate(203 -74)" figma:type="vector"/></g><g figma:type="frame" fill="#FFF"><use xlink:href="#k" transform="rotate(90 350.58 281.42)" figma:type="ellipse"/><use xlink:href="#l" transform="matrix(-.86833 .49599 -.50402 -.8637 625.767 -44.16)" figma:type="ellipse"/><use xlink:href="#l" transform="matrix(-.86833 -.49599 .50402 -.8637 600.767 -37)" figma:type="ellipse"/></g><g figma:type="frame"><use xlink:href="#m" transform="translate(200 192.598)" fill="#F4FCFF" figma:type="vector"/><use xlink:href="#n" transform="translate(210.878 189.546)" fill="#F4FCFF" figma:type="vector"/><use xlink:href="#o" transform="translate(218.396 192.596)" fill="#F4FCFF" figma:type="vector"/><use xlink:href="#p" transform="translate(228.264 189.546)" fill="#F4FCFF" figma:type="vector"/><use xlink:href="#q" transform="translate(240.193 193.637)" fill="#F4FCFF" figma:type="vector"/><use xlink:href="#r" transform="translate(253.85 189.546)" fill="#F4FCFF" figma:type="vector"/><use xlink:href="#s" transform="translate(261.364 189.567)" fill="#F4FCFF" figma:type="vector"/><use xlink:href="#t" transform="translate(269.168 192.501)" fill="#F4FCFF" figma:type="vector"/><use xlink:href="#u" transform="translate(279.603 192.501)" fill="#F4FCFF" figma:type="vector"/><use xlink:href="#v" transform="translate(290.488 196.1)" fill="#F4FCFF" figma:type="vector"/><use xlink:href="#w" transform="translate(297.909 192.596)" fill="#F4FCFF" figma:type="vector"/><use xlink:href="#x" transform="translate(309.382 189.546)" fill="#F4FCFF" figma:type="vector"/><use xlink:href="#y" transform="translate(280.337 167)" fill="#F4FCFF" figma:type="vector"/><use xlink:href="#z" transform="translate(252.882 183.374)" fill="#FFF" figma:type="vector"/></g><g figma:type="frame" fill="#FFF"><use xlink:href="#A" transform="translate(616.113 216.227)" figma:type="vector"/><use xlink:href="#B" transform="translate(625.909 240.407)" figma:type="vector"/><use xlink:href="#C" transform="translate(612.025 190.007)" figma:type="vector"/><use xlink:href="#D" transform="translate(612.024 190.007)" figma:type="vector"/><use xlink:href="#E" transform="translate(584.164 190)" figma:type="vector"/><use xlink:href="#F" transform="translate(612.024 240.444)" figma:type="vector"/><use xlink:href="#G" transform="translate(584 237.812)" figma:type="vector"/><use xlink:href="#H" transform="translate(584 247.357)" figma:type="vector"/></g><g figma:type="ellipse"><mask id="J"><path fill="#fff" transform="translate(343 -69)" d="M-2-2H8V8H-2z"/><use xlink:href="#I" transform="translate(343 -69)"/></mask><g mask="url(#J)"><use xlink:href="#K" transform="translate(343 -69)" fill="#FFF"/></g></g><g figma:type="ellipse"><mask id="L"><path fill="#fff" transform="translate(237 87)" d="M-2-2H8V8H-2z"/><use xlink:href="#I" transform="translate(237 87)"/></mask><g mask="url(#L)"><use xlink:href="#K" transform="translate(237 87)" fill="#FFF"/></g></g><g figma:type="ellipse"><mask id="M"><path fill="#fff" transform="translate(693 284)" d="M-2-2H8V8H-2z"/><use xlink:href="#I" transform="translate(693 284)"/></mask><g mask="url(#M)"><use xlink:href="#K" transform="translate(693 284)" fill="#FFF"/></g></g><g figma:type="ellipse"><mask id="N"><path fill="#fff" transform="translate(1066 42)" d="M-2-2H8V8H-2z"/><use xlink:href="#I" transform="translate(1066 42)"/></mask><g mask="url(#N)"><use xlink:href="#K" transform="translate(1066 42)" fill="#FFF"/></g></g><use xlink:href="#O" transform="translate(560 85)" fill="#FFF" figma:type="vector"/><use xlink:href="#P" transform="translate(1084 -163)" fill="#FFF" figma:type="vector"/><use xlink:href="#Q" transform="scale(-1 1) rotate(20.147 -830.66 -982.255)" fill="#FFF" figma:type="vector"/><use xlink:href="#Q" transform="scale(1 -1) rotate(-9.909 703.124 -2780.615)" fill="#FFF" figma:type="vector"/></g></g><defs><path id="a" d="M0 14.584V.37C0 .254.577 0 1.223 0c.97 0 2.03.509 2.03 2.607v11.977c0 1.178-.6 1.547-1.43 1.547h-.345C.623 16.13 0 15.785 0 14.584z"/><path id="b" d="M0 5.884C0 2.422 2.47 0 6.044 0c3.575 0 6 2.424 6 5.93s-2.446 5.884-6.043 5.884C2.403 11.814 0 9.438 0 5.884zm9.17.046c0-1.961-1.314-3.393-3.138-3.393-1.824 0-3.162 1.407-3.162 3.345 0 1.938 1.338 3.37 3.162 3.37 1.824 0 3.13-1.407 3.13-3.322h.009z"/><path id="c" d="M0 14.805c0-1.57 1.459-2.607 3.508-2.918a1.373 1.373 0 0 1-.392-1.042 1.682 1.682 0 0 1 .76-1.315C1.962 8.975.785 7.59.785 5.813c0-2.422 2.146-4.246 5.146-4.246a6.3 6.3 0 0 1 2.424.486l.485-.923C9.277.323 9.74 0 10.455 0c1.154 0 1.667 1.315 1.592 1.384L10.086 3.26A3.664 3.664 0 0 1 11.1 5.776c0 2.399-2.007 4.04-5.146 4.04h-.163a.459.459 0 0 0-.046.23c0 .626 1.084.693 2.918 1.155 1.593.438 3.254 1.292 3.254 3.185 0 2.17-2.239 3.554-6.07 3.554C1.805 17.944 0 16.952 0 14.805zm5.86-1.73c-1.614.115-2.769.646-2.769 1.547 0 .783.923 1.269 2.793 1.269s2.918-.509 2.918-1.384c-.009-.925-1.463-1.086-2.939-1.432h-.002zM8.077 5.78c0-1.25-.877-2.101-2.17-2.101-1.25 0-2.123.834-2.123 2.1 0 1.268.9 2.125 2.147 2.125 1.246 0 2.146-.853 2.146-2.122V5.78z"/><path id="d" d="M2.38 9.571V3.035a1.559 1.559 0 0 1-.921.29C.625 3.325 0 2.776 0 1.985 0 1.191.565.82.625.854a1.5 1.5 0 0 0 .986.356A1.376 1.376 0 0 0 2.985 0h.694C4.373 0 4.72.371 4.72 1.098V9.58c0 .727-.357 1.098-1.042 1.098h-.29c-.654-.008-1.009-.381-1.009-1.107z"/><path id="e" d="M0 5.97V4.927C0 1.907 1.745 0 4.585 0c2.841 0 4.573 1.899 4.573 4.919v1.042c0 3.02-1.728 4.928-4.585 4.928C1.715 10.889 0 9.006 0 5.969zm6.768.145v-1.34c0-1.84-.792-2.86-2.197-2.86s-2.164.986-2.164 2.844v1.34c0 1.84.776 2.843 2.18 2.843 1.405 0 2.18-.999 2.18-2.827z"/><path id="f" d="M2.234 8.853h4.87c.828 0 1.161.328 1.161.902v.114c0 .624-.315.968-1.16.968H1.473C.38 10.837 0 10.59 0 9.605v-.508c0-2.018 1.772-3.03 3.296-3.758 1.326-.624 2.452-1.034 2.452-1.96 0-.903-.646-1.427-1.799-1.427-1.374 0-2.07.902-2.319 1.872 0 .05-1.59.098-1.59-1.116C.04 1.394 1.464 0 4.098 0c2.568 0 4.025 1.248 4.025 3.3 0 1.96-1.457 2.66-3.048 3.315-1.482.612-2.605 1.122-2.84 2.238z"/><path id="g" d="M11.603 10.87c.12.168-.75 1.129-1.961 1.129-.776 0-1.405-.408-1.84-1.225l-2.01-3.12-1.98 3.12C3.378 11.566 2.723 12 1.925 12 .785 12-.11 11.016.012 10.872l3.575-4.847-3.56-4.896C-.072.961.8 0 1.915 0c.798 0 1.453.357 1.912 1.223l2.01 3.12 2.01-3.12C8.33.332 9.033 0 9.71 0c1.162 0 2.058.96 1.938 1.128L8.042 6.024l3.56 4.847z"/><path id="h" d="M6.84 25.492a1.087 1.087 0 0 1-.984-.63L.1 12.207a1.062 1.062 0 0 1 .537-1.423 1.086 1.086 0 0 1 1.432.544l4.497 9.89L11.92.8a1.07 1.07 0 0 1 .385-.577c.19-.145.422-.223.66-.223h18.352c.286 0 .56.113.763.313a1.065 1.065 0 0 1 0 1.513c-.202.2-.477.313-.763.313H13.798L7.889 24.693a1.068 1.068 0 0 1-.348.549c-.171.143-.382.23-.605.248l-.095.002z"/><path id="i" d="M52.868 20.025c-3.375 0-4.74-4.717-6.188-9.712-1.047-3.646-2.369-8.185-4.178-8.185-1.808 0-3.121 4.539-4.178 8.185-1.445 4.994-2.812 9.712-6.187 9.712-3.375 0-4.74-4.717-6.188-9.712-1.047-3.646-2.369-8.185-4.176-8.185s-3.12 4.539-4.176 8.185c-1.446 4.994-2.813 9.712-6.188 9.712-3.374 0-4.74-4.717-6.185-9.712-1.048-3.646-2.37-8.185-4.176-8.185a1.04 1.04 0 0 1-.741-.311 1.073 1.073 0 0 1 0-1.505C.503.112.77 0 1.047 0c3.375 0 4.74 4.718 6.186 9.712 1.048 3.646 2.37 8.185 4.176 8.185 1.807 0 3.122-4.539 4.177-8.185C17.03 4.718 18.398 0 21.77 0c3.373 0 4.74 4.718 6.188 9.712 1.047 3.646 2.37 8.185 4.176 8.185 1.807 0 3.127-4.532 4.175-8.178C37.755 4.725 39.122.007 42.497.007c3.375 0 4.742 4.718 6.188 9.712 1.047 3.646 2.369 8.185 4.177 8.185.263.021.508.142.686.338a1.074 1.074 0 0 1 .004 1.442 1.04 1.04 0 0 1-.684.341z"/><path id="j" d="M52.995 38H1.048a1.04 1.04 0 0 1-.741-.312A1.07 1.07 0 0 1 0 36.936V1.064C0 .782.11.511.307.312a1.04 1.04 0 0 1 1.481 0c.197.2.307.47.307.752v34.81h50.9c.27.01.526.128.713.326a1.073 1.073 0 0 1 0 1.474 1.04 1.04 0 0 1-.713.326z"/><path id="k" d="M13.32 25c.002 6.84-.781 12.952-2.059 17.402-.63 2.205-1.337 3.892-2.142 5.073C8.322 48.65 7.642 49 7.159 49v2c1.496 0 2.699-1.05 3.616-2.404.907-1.349 1.743-3.324 2.409-5.643C14.498 38.355 15.318 31.967 15.32 25h-2zM7.16 49c-.482 0-1.163-.35-1.96-1.525-.805-1.181-1.512-2.868-2.142-5.073C1.781 37.952.998 31.84 1 25h-2c.002 6.967.822 13.355 2.136 17.953.666 2.32 1.501 4.294 2.409 5.643C4.462 49.95 5.665 51 7.16 51v-2zM1 25c-.002-6.84.78-12.952 2.058-17.402.63-2.205 1.337-3.892 2.143-5.073C5.997 1.35 6.678 1 7.16 1v-2C5.665-1 4.462.05 3.545 1.404c-.908 1.349-1.743 3.324-2.41 5.643C-.177 11.645-.997 18.033-1 25h2zM7.16 1c.482 0 1.162.35 1.959 1.525.805 1.181 1.513 2.868 2.142 5.073C12.54 12.048 13.321 18.16 13.32 25h2c-.002-6.967-.822-13.355-2.136-17.953-.666-2.32-1.502-4.294-2.41-5.643C9.859.05 8.655-1 7.16-1v2z"/><path id="l" d="M13.435 24.8c.002 6.784-.786 12.844-2.074 17.258-.634 2.186-1.346 3.857-2.158 5.027-.8 1.163-1.488 1.516-1.985 1.516v2c1.495 0 2.706-1.035 3.633-2.382.915-1.34 1.759-3.3 2.43-5.602 1.325-4.563 2.152-10.903 2.154-17.816h-2zM7.218 48.602c-.498 0-1.186-.353-1.986-1.516-.811-1.17-1.523-2.84-2.158-5.027C1.787 37.644.998 31.584 1 24.8h-2c.002 6.913.83 13.253 2.154 17.816.672 2.301 1.515 4.263 2.43 5.602.927 1.347 2.138 2.382 3.634 2.382v-2zM1 24.801c-.002-6.784.787-12.844 2.074-17.258.635-2.186 1.347-3.856 2.158-5.027C6.032 1.353 6.72 1 7.218 1v-2C5.722-1 4.51.035 3.584 1.382c-.915 1.34-1.758 3.3-2.43 5.602C-.171 11.547-.998 17.887-1 24.801h2zM7.218 1c.497 0 1.185.353 1.985 1.516.812 1.17 1.524 2.841 2.158 5.027 1.288 4.414 2.076 10.474 2.074 17.258h2c-.002-6.914-.829-13.254-2.154-17.817-.671-2.301-1.515-4.263-2.43-5.602C9.924.035 8.713-1 7.218-1v2z"/><path id="m" d="M2.595 12.253l1.579-3.485a1.029 1.029 0 0 1-.54-.175.986.986 0 0 1-.357-.432L.003.796C-.055.644.666.019 1.503 0c.65 0 1.21.303 1.54 1.345L5.11 6.629l1.832-5.261C7.273.316 7.857.004 8.457.004c.78 0 1.54.632 1.481.758L5.608 11.69c-.41 1.004-.956 1.307-1.56 1.307-.788-.007-1.533-.613-1.453-.745z"/><path id="n" d="M0 8.069C0 3.466 3.02 0 5.73 0c.838 0 1.299.398 1.299 1.136-.007.17-.053.336-.134.487a1.16 1.16 0 0 1-.334.385c-2.475.587-3.82 3.068-3.82 6.06 0 3.05 1.345 5.494 3.82 6.08a1.155 1.155 0 0 1 .468.872c0 .739-.468 1.137-1.3 1.137C3.022 16.157 0 12.785 0 8.069z"/><path id="o" d="M9.34 8.58c.097.133-.605.89-1.58.89-.623 0-1.13-.322-1.48-.965L4.662 6.042 3.064 8.505c-.35.63-.866.966-1.516.966-.916 0-1.637-.777-1.54-.89l2.885-3.827L.028.89C-.05.758.652 0 1.544 0c.65 0 1.17.284 1.54.966L4.7 3.428 6.32.966C6.71.266 7.275 0 7.82 0c.936 0 1.657.758 1.56.89L6.474 4.754 9.339 8.58z"/><path id="p" d="M0 15.02a1.147 1.147 0 0 1 .468-.871c2.475-.587 3.82-3.03 3.82-6.08 0-2.993-1.345-5.472-3.82-6.061a1.158 1.158 0 0 1-.335-.385A1.124 1.124 0 0 1 0 1.136C0 .398.468 0 1.3 0c2.708 0 5.729 3.466 5.729 8.069 0 4.716-3.02 8.088-5.73 8.088C.468 16.157 0 15.759 0 15.02z"/><path id="q" d="M0 1.25v-.227C0 .473.331 0 1.13 0h6.53c.78 0 1.13.474 1.13 1.023v.227c0 .568-.35 1.042-1.13 1.042H1.126C.327 2.292 0 1.818 0 1.25zm0 4.584v-.227c0-.55.331-1.023 1.13-1.023h6.53c.78 0 1.13.473 1.13 1.023v.227c0 .568-.35 1.042-1.13 1.042H1.126C.327 6.876 0 6.402 0 5.834z"/><path id="r" d="M0 8.069C0 3.466 3.02 0 5.73 0c.838 0 1.299.398 1.299 1.136-.007.17-.053.336-.134.487a1.16 1.16 0 0 1-.334.385c-2.475.587-3.82 3.068-3.82 6.06 0 3.05 1.345 5.494 3.82 6.08a1.155 1.155 0 0 1 .468.872c0 .739-.468 1.137-1.3 1.137C3.017 16.157 0 12.785 0 8.069z"/><path id="s" d="M2.865 11.228V3.557a1.92 1.92 0 0 1-1.111.34C.741 3.898 0 3.255 0 2.327 0 1.397.682.962.76 1c.332.274.753.423 1.189.42.407.002.8-.141 1.106-.403A1.6 1.6 0 0 0 3.605 0h.838C5.281 0 5.71.436 5.71 1.288v9.94c0 .842-.433 1.288-1.267 1.288h-.35c-.81.002-1.228-.434-1.228-1.288z"/><path id="t" d="M0 4.603V4.47c0-.55.35-.928 1.13-.928h2.456V1.099C3.586.34 3.996 0 4.58 0h.216c.565 0 .975.341.975 1.099v2.443h2.455c.8 0 1.13.379 1.13.928v.133c0 .568-.33.947-1.13.947H5.771v2.576c0 .757-.41 1.098-.975 1.098H4.58c-.585 0-.994-.34-.994-1.098V5.558H1.124C.35 5.558 0 5.171 0 4.603z"/><path id="u" d="M0 4.906C0 2.084 2.085 0 4.97 0c2.815 0 4.735 1.913 4.735 4.63v.19c-.02.473-.156.738-.662.738H2.475c.195 1.383 1.286 2.197 2.767 2.197 1.443 0 2.242-.631 2.69-1.363.02-.038 1.325.132 1.325 1.193 0 1.004-1.462 2.121-4.114 2.121C2.038 9.698 0 7.823 0 4.906zm2.475-.91h4.67c-.058-1.287-.896-2.14-2.22-2.14-1.29 0-2.264.89-2.459 2.14h.009z"/><path id="v" d="M0 1.42v-.397C0 .455.39 0 1.13 0h4.678c.74 0 1.13.455 1.13 1.023v.398c0 .568-.39 1.022-1.13 1.022H1.13C.39 2.443 0 1.99 0 1.421z"/><path id="w" d="M9.34 8.58c.097.133-.605.89-1.58.89-.623 0-1.13-.322-1.48-.965L4.662 6.042 3.064 8.505c-.35.63-.877.966-1.516.966-.916 0-1.637-.777-1.54-.89l2.885-3.827L.028.89C-.05.758.652 0 1.544 0c.65 0 1.17.284 1.54.966L4.7 3.428 6.32.966C6.71.266 7.275 0 7.82 0c.936 0 1.657.758 1.56.89L6.474 4.754 9.339 8.58z"/><path id="x" d="M0 15.296a1.149 1.149 0 0 1 .475-.887c2.512-.598 3.876-3.086 3.876-6.192 0-3.047-1.364-5.572-3.876-6.172a1.178 1.178 0 0 1-.34-.392A1.148 1.148 0 0 1 0 1.157C0 .405.475 0 1.319 0c2.749 0 5.815 3.53 5.815 8.217 0 4.803-3.066 8.237-5.815 8.237-.844 0-1.319-.405-1.319-1.158z"/><path id="y" d="M2.865 11.228V3.557a1.92 1.92 0 0 1-1.111.34C.741 3.898 0 3.255 0 2.327 0 1.397.682.962.76 1c.332.274.753.423 1.189.42.407.002.8-.141 1.106-.403A1.6 1.6 0 0 0 3.605 0h.838C5.281 0 5.71.436 5.71 1.288v9.944c0 .852-.433 1.288-1.267 1.288h-.35c-.8-.004-1.228-.438-1.228-1.292z"/><path id="z" d="M62.82 2.525H1.3a1.32 1.32 0 0 1-.92-.37A1.245 1.245 0 0 1 0 1.264C0 .928.137.607.38.37.625.133.956 0 1.3 0h61.518c.344 0 .675.133.919.37.244.236.38.557.381.892 0 .335-.136.656-.38.893-.243.237-.574.37-.918.37z"/><path id="A" d="M1.49 3.004a1.848 1.848 0 0 1 1.669-.934c1.341 0 1.912.965 1.912 2.161v2.413c0 .535-.275.7-.655.7h-.159c-.401 0-.676-.158-.676-.7V4.441c0-.713-.352-1.133-.94-1.133-.704 0-1.152.462-1.152 1.196v2.14c0 .535-.274.7-.654.7H.676c-.401 0-.676-.158-.676-.7V.174C0 .123.264 0 .56 0c.444 0 .93.23.93 1.185v1.819z"/><path id="B" d="M1.468.934C1.68.346 2.102 0 2.725 0c.624 0 .962.336.962.86 0 .588-.454.797-.476.777a.983.983 0 0 0-.676-.252c-.729 0-1.045.63-1.045 1.657v1.532c0 .535-.275.7-.655.7H.676c-.401 0-.676-.158-.676-.7V.23C0 .189.264.056.56.056c.39.007.813.185.908.878z"/><path id="C" d="M28.92 58.883a1.062 1.062 0 0 1-.95-.589L.106 1.51A1.044 1.044 0 0 1 .594.106 1.063 1.063 0 0 1 2.007.59l27.862 56.786a1.043 1.043 0 0 1-.438 1.376 1.063 1.063 0 0 1-.511.131z"/><path id="D" d="M28.919 58.883H1.056c-.28 0-.548-.11-.747-.307A1.046 1.046 0 0 1 0 57.834V1.05C0 .771.111.504.31.307a1.06 1.06 0 0 1 1.493 0c.198.197.31.464.31.742v55.736h26.806c.28 0 .549.11.747.307a1.045 1.045 0 0 1 0 1.484 1.06 1.06 0 0 1-.747.307z"/><path id="E" d="M1.057 59.24a1.062 1.062 0 0 1-.896-.492 1.044 1.044 0 0 1-.055-1.015L27.968.598a1.049 1.049 0 0 1 .604-.539 1.063 1.063 0 0 1 1.14.294 1.047 1.047 0 0 1 .158 1.16L2.008 58.648a1.052 1.052 0 0 1-.951.592z"/><path id="F" d="M7.45 8.447H1.055c-.28 0-.548-.11-.747-.308A1.045 1.045 0 0 1 0 7.398V1.049C0 .771.111.504.31.307A1.06 1.06 0 0 1 1.055 0H7.45a1.057 1.057 0 0 1 1.057 1.049v6.349c0 .278-.112.545-.31.741a1.06 1.06 0 0 1-.747.308zM2.112 6.348h4.28v-4.25h-4.28v4.25z"/><path id="G" d="M56.945 11.643a1.063 1.063 0 0 1-.88-.469 11.857 11.857 0 0 0-2.687-2.753 1.047 1.047 0 0 1 .508-1.872c.278-.036.559.04.78.209a13.94 13.94 0 0 1 3.156 3.255 1.044 1.044 0 0 1-.336 1.48 1.06 1.06 0 0 1-.541.15zm-55.888 0a1.062 1.062 0 0 1-.932-.553 1.043 1.043 0 0 1 .051-1.077 13.718 13.718 0 0 1 2.943-3.09 1.059 1.059 0 0 1 1.706.943 1.044 1.044 0 0 1-.393.701 11.648 11.648 0 0 0-2.497 2.61 1.053 1.053 0 0 1-.878.466zM8.29 6.086a1.048 1.048 0 0 1-.948-1.511c.105-.214.281-.386.499-.487a36.25 36.25 0 0 1 4.049-1.574c.264-.08.55-.055.796.072a1.043 1.043 0 0 1 .461 1.396 1.054 1.054 0 0 1-.598.526 33.92 33.92 0 0 0-3.812 1.488 1.063 1.063 0 0 1-.45.09h.003zm41.199-.106a1.06 1.06 0 0 1-.44-.096 34.773 34.773 0 0 0-3.825-1.462 1.055 1.055 0 0 1-.616-.52 1.043 1.043 0 0 1 .456-1.413c.25-.127.54-.15.806-.065 1.383.437 2.738.954 4.059 1.55.222.099.404.27.513.486a1.042 1.042 0 0 1-.288 1.296c-.192.15-.429.23-.672.226l.007-.002zM17.323 3.223a1.06 1.06 0 0 1-.708-.272 1.047 1.047 0 0 1 .499-1.806 56.143 56.143 0 0 1 4.252-.687c.278-.034.558.043.78.214a1.047 1.047 0 0 1-.521 1.869c-1.393.175-2.77.393-4.09.66-.07.015-.14.022-.212.022zm23.104-.051c-.07 0-.139-.007-.206-.021-1.323-.26-2.7-.476-4.094-.642a1.063 1.063 0 0 1-.705-.393A1.048 1.048 0 0 1 35.33.954a1.05 1.05 0 0 1 .635-.497c.134-.037.273-.048.411-.032 1.447.175 2.879.395 4.254.666.262.046.498.188.66.398a1.044 1.044 0 0 1-.14 1.42c-.2.176-.458.27-.724.265v-.002zM26.759 2.137a1.063 1.063 0 0 1-.988-.63A1.045 1.045 0 0 1 26.32.125c.127-.055.264-.085.403-.087a59.655 59.655 0 0 1 4.296 0 1.063 1.063 0 0 1 .955.678 1.042 1.042 0 0 1-.265 1.136 1.058 1.058 0 0 1-.757.284 68.592 68.592 0 0 0-4.155 0h-.04.003z"/><path id="H" d="M29 11.643C15.769 11.643 4.185 7.622.176 1.63A1.045 1.045 0 0 1 .854.02a1.064 1.064 0 0 1 1.083.449C5.515 5.812 16.644 9.545 29 9.545c12.356 0 23.487-3.733 27.063-9.076a1.057 1.057 0 0 1 1.465-.294 1.049 1.049 0 0 1 .296 1.455C53.814 7.618 42.23 11.643 29 11.643z"/><path id="I" d="M6 3a3 3 0 1 1-6 0 3 3 0 0 1 6 0z"/><path id="K" d="M4 3a1 1 0 0 1-1 1v4a5 5 0 0 0 5-5H4zM3 4a1 1 0 0 1-1-1h-4a5 5 0 0 0 5 5V4zM2 3a1 1 0 0 1 1-1v-4a5 5 0 0 0-5 5h4zm1-1a1 1 0 0 1 1 1h4a5 5 0 0 0-5-5v4z"/><path id="O" d="M13.503 4.46c.066-.593.928-.593.994 0l1.167 10.47a5 5 0 0 0 4.25 4.394l4.684.681c.57.083.57.907 0 .99l-4.685.681a5 5 0 0 0-4.25 4.394l-1.166 10.47c-.066.593-.928.593-.994 0l-1.166-10.47a5 5 0 0 0-4.25-4.394l-4.685-.681c-.57-.083-.57-.907 0-.99l4.685-.681a5 5 0 0 0 4.25-4.394l1.166-10.47z"/><path id="P" d="M8.503 4.57c.065-.595.93-.595.994 0l.43 3.953a5 5 0 0 0 4.234 4.405l.52.077c.568.085.568.905 0 .99l-.52.077a5 5 0 0 0-4.234 4.405l-.43 3.953c-.065.595-.93.595-.994 0l-.43-3.953a5 5 0 0 0-4.234-4.405l-.52-.077c-.568-.085-.568-.905 0-.99l.52-.077a5 5 0 0 0 4.234-4.405l.43-3.953z"/><path id="Q" d="M31.967 19.955C27.788 15.3 19.719 6.264 14.82.672c-.309-.361-.885-.085-.864.404l.617 7.909c.041.425-.432.723-.782.468L.781.098C.289-.263-.288.46.165.885L18.937 19.87c.33.34.885.043.844-.425l-.72-6.357c-.042-.446.432-.744.782-.489 3.54 2.658 8.357 5.953 11.506 8.1.474.34 1.01-.319.618-.744z"/></defs></svg>