<svg preserveAspectRatio="none" width="547" height="133" viewBox="0 0 547 133" xmlns="http://www.w3.org/2000/svg" xmlns:xlink="http://www.w3.org/1999/xlink" xmlns:figma="http://www.figma.com/figma/ns"><g figma:type="canvas"><use xlink:href="#a" transform="matrix(-1 0 0 1 550 1)" fill="#79EFC6" figma:type="vector"/></g><defs><path id="a" d="M24.421 114.256l-.978.209.978-.209zm490.33-10.46l.056.999-.056-.999zm33.206-67.874l-.962-.272.962.272zM45.095 130.045l.056.998-.056-.998zm487.786-40.778l-.962-.272.962.272zM4.296 24.885l19.147 89.58 1.956-.418-19.147-89.58-1.956.419zm40.855 106.158l469.656-26.248-.112-1.997L45.04 129.046l.111 1.997zm488.692-41.504l15.076-53.345-1.924-.544-15.076 53.345 1.924.544zm-4.716-80.052L25.249-.5l-.04 2 503.878 9.987.04-2zM6.252 24.467C3.692 12.492 12.965 1.258 25.21 1.5l.04-2C11.716-.768 1.467 11.65 4.296 24.886l1.956-.418zm17.191 89.998c2.163 10.12 11.376 17.155 21.708 16.578l-.111-1.997c-9.349.523-17.684-5.843-19.64-14.999l-1.957.418zm491.364-9.67a21 21 0 0 0 19.036-15.256l-1.924-.544a19.001 19.001 0 0 1-17.224 13.803l.112 1.997zm34.112-68.601c3.741-13.236-6.041-26.434-19.792-26.707l-.04 2c12.442.246 21.292 12.188 17.908 24.163l1.924.544z"/></defs></svg>