<svg width="80" height="16" viewBox="0 0 80 16" xmlns="http://www.w3.org/2000/svg"><title>buffer-logo</title><g fill="#323B43" fill-rule="evenodd"><path d="M24.579 15.594h-2.77V.032h2.77v6.04c.828-1.108 2.006-1.674 3.25-1.674 2.682 0 4.667 2.172 4.667 5.745 0 3.641-2.006 5.722-4.668 5.722-1.265 0-2.42-.588-3.25-1.674v1.403zm0-3.506c.458.701 1.483 1.221 2.377 1.221 1.614 0 2.683-1.266 2.683-3.166s-1.069-3.189-2.683-3.189c-.894 0-1.92.543-2.377 1.267v3.867zm19.777 3.506h-2.77v-1.38c-.72.837-1.985 1.65-3.708 1.65-2.312 0-3.403-1.31-3.403-3.437V4.67h2.77v6.626c0 1.516.764 2.013 1.942 2.013 1.069 0 1.92-.61 2.399-1.244V4.67h2.77v10.924zm6.266 0H47.83V7.18h-1.745V4.67h1.745v-.588c0-2.33 1.44-3.8 3.555-3.8 1.004 0 2.072.272 2.749 1.018l-1.047 1.696c-.284-.294-.655-.452-1.156-.452-.764 0-1.31.52-1.31 1.538v.588h2.138v2.51h-2.137v8.414zm7.132 0h-2.792V7.18h-1.744V4.67h1.744v-.588c0-2.33 1.44-3.8 3.556-3.8 1.003 0 2.072.272 2.748 1.018L60.22 2.996c-.283-.294-.654-.452-1.156-.452-.763 0-1.309.52-1.309 1.538v.588h2.138v2.51h-2.138v8.414zm8.359.27c-3.206 0-5.628-2.238-5.628-5.744 0-3.166 2.247-5.722 5.453-5.722 3.141 0 5.279 2.443 5.279 6.016v.634h-7.83c.174 1.38 1.243 2.533 3.031 2.533.895 0 2.138-.407 2.814-1.086l1.221 1.855c-1.046.995-2.704 1.515-4.34 1.515zm2.421-6.761c-.065-1.04-.763-2.42-2.596-2.42-1.723 0-2.464 1.334-2.595 2.42h5.191zm7.46 6.49h-2.77V4.67h2.77v1.492c.741-.972 2.05-1.764 3.359-1.764v2.805a3.552 3.552 0 0 0-.764-.068c-.916 0-2.137.543-2.595 1.244v7.215zM13.675 12.066l-1.567-.749a.644.644 0 0 0-.489 0l-4.487 2.145a.644.644 0 0 1-.488 0l-4.487-2.145a.644.644 0 0 0-.49 0l-1.566.75c-.135.064-.135.169 0 .233l6.543 3.126a.644.644 0 0 0 .488 0l6.543-3.126c.134-.064.134-.17 0-.234"/><path d="M13.675 8.216l-1.567-.75a.644.644 0 0 0-.489 0L7.132 9.612a.644.644 0 0 1-.488 0L2.157 7.467a.644.644 0 0 0-.49 0l-1.566.749c-.135.064-.135.169 0 .233l6.543 3.127a.644.644 0 0 0 .488 0l6.543-3.127c.134-.064.134-.17 0-.233"/><path d="M.1 4.599l6.544 3.126a.644.644 0 0 0 .488 0l6.543-3.126c.134-.065.134-.17 0-.234L7.132 1.238a.644.644 0 0 0-.488 0L.1 4.365c-.135.064-.135.17 0 .234"/></g></svg>