<svg preserveAspectRatio="none" width="150" height="71" viewBox="0 0 150 71" xmlns="http://www.w3.org/2000/svg" xmlns:xlink="http://www.w3.org/1999/xlink" xmlns:figma="http://www.figma.com/figma/ns"><title>feature-arrow</title><desc>Created using Figma</desc><g figma:type="canvas"><use xlink:href="#a" transform="scale(1 -1) rotate(10.712 427.493 10.048)" fill="url(#b)" figma:type="vector"/></g><defs><linearGradient id="b" x2="1" gradientUnits="userSpaceOnUse" gradientTransform="matrix(-46 75.5 -167.061 -101.786 196.531 59.667)"><stop offset="0" stop-color="#FFF"/><stop offset="1" stop-color="#FFF" stop-opacity="0"/></linearGradient><path id="a" d="M146.798 48.753a1 1 0 0 0 1.181-.777l1.819-8.814a1 1 0 1 0-1.959-.405l-1.616 7.835-7.835-1.616a1 1 0 0 0-.404 1.958l8.814 1.82zM37.444 2.773l-.235-.971.235.972zm5.316 69.5a1 1 0 1 0 0-2v2zm105.075-25.049C122.611 8.883 78.632-8.184 37.209 1.802l.47 1.944c40.576-9.782 83.71 6.919 108.486 44.578l1.67-1.1zM37.209 1.802C8.911 8.623-2.889 26.092-.758 42.217 1.365 58.288 17.25 72.274 42.76 72.274v-2c-24.808 0-39.58-13.515-41.536-28.319-1.95-14.75 8.751-31.531 36.453-38.21l-.469-1.943z"/></defs></svg>