<svg width="86" height="36" viewBox="0 0 86 36" xmlns="http://www.w3.org/2000/svg"><title>Group</title><path d="M32.044 6.585a.695.695 0 0 0 .128-.013l4.646-.91a.644.644 0 0 0 .518-.492C38.24.625 33.206.1 33.206.1c-.31 0-.58.213-.648.515l-.583 2.59-.58 2.574a.664.664 0 0 0 .649.806zm53.904 12.397c-.702-1.368-2.072-3.332-2.843-4.256-.45-.54-1.63-.75-2.233-.757-7.737-.08-13.64 6.22-17.72 6.728-1.402.174-1.835-.35-2.27-.7 3.392-2.524 6.676-6.27 6.676-9.018 0-2.52-1.732-4.132-4.16-4.132-1.965 0-4.16 1.043-6.172 2.933-2.753 2.59-4.087 7.237-3.157 10.59-.68.07-1.572.283-2.15-.41-.237-.286-.31-.683-.216-1.175 0 0 2.12-9.804 2.83-13.31C55.504.69 50.2.098 50.2.098a.662.662 0 0 0-.65.53l-1.406 6.946c-.523-.35-1.274-.524-2.285-.524-1.914 0-3.57.66-4.928 1.968-1.3 1.252-2.313 2.853-3.01 4.76a15.234 15.234 0 0 0-.926 5.204c0 .52.05 1.01.138 1.47-.313.038-.72.078-1.218.113-.53.036-.858-.134-1.053-.405l.016-.015-.056-.04c-.214-.344-.234-.835-.14-1.32l2.287-10.782a.662.662 0 0 0-.648-.798l-4.775.99a.662.662 0 0 0-.648.525s-2.242 10.757-2.242 11.4c0 .14.007.27.014.403-1.012.092-2.903.038-2.496-1.74 0 0 2.19-10.197 2.814-13.617C29.824.592 24.7.098 24.7.098a.666.666 0 0 0-.65.524l-2.648 12.57c-.435 1.578-1.56 2.717-2.884 3.538.518-2.355.908-4.146.908-4.146 1.104-4.96.875-8.322-.7-10.278C17.514.8 15.27.002 12.24 0 4.087-.002.992 9.466.612 11.972c-.145.943-.717 5.795 2.085 8.755 1.367 1.445 3.45 2.374 5.755 2.63.473.128 1.21.164 2.303.07.09-.008.172-.022.26-.032-.063.248-.33 1.317-.785 3.268-.887 3.81-3.606 6.093-5.136 5.078-1.25-.83-.073-4.273 2.646-5.542.682-.32-3.826-3.246-5.607-1.523-2.89 2.792-3.163 8.963 1.177 10.788 5.346 2.25 11.588-2.836 13.308-10.26.258-1.113.567-2.477.883-3.892a16.923 16.923 0 0 0 2.676-1.82 8.19 8.19 0 0 0-.028.63c0 1.52.402 2.658 1.197 3.39.787.708 1.696 1.04 2.703 1.068 2.065.056 4.02-.48 5.687-1.196.04.042.078.087.12.127.786.708 1.697 1.02 2.703 1.068 2.404.112 4.707-.688 6.007-1.25.827.823 1.936 1.25 3.288 1.25 1.726 0 3.647-.915 4.516-2.32.166 1.075 1.417 2.367 3.45 2.367 3.98 0 6.408-1.258 6.408-1.258 9.8 4.237 15.534-7.922 28.958-3.564.255.083 1.02-.317.762-.82v-.002zM7.05 13.375c.236-5.95 3.53-9.193 5.817-9.245.24-.006.47.024.68.087 1.472.447.316 5.156-.376 7.972-.11.453-.35 1.588-.68 3.157-.21 1-.456 2.16-.72 3.4a9.195 9.195 0 0 1-.657.038c-.924.022-2.154-.09-2.758-.75-.905-.986-1.38-2.685-1.304-4.66l-.002.001zm38.895 4.686c-.182.747-.488 1.294-.91 1.627-.415.327-.786.5-1.074.5-.3 0-.922 0-.922-1.647 0-.457.024-.89.074-1.298.323-2.693 1.122-4.772 2.375-6.18.43-.488.874-.723 1.352-.723.23 0 .466.038.623.47l-1.518 7.25v.001zm14.365-.715c.792-5.304 2.675-7.592 3.328-7.45.24.052.282.388.11 1.415-.187 1.136-1.258 3.86-3.438 6.035z" fill="#00BAFF" fill-rule="evenodd"/></svg>