<svg preserveAspectRatio="none" width="100" height="26" viewBox="0 0 100 26" xmlns="http://www.w3.org/2000/svg" xmlns:xlink="http://www.w3.org/1999/xlink" xmlns:figma="http://www.figma.com/figma/ns"><g figma:type="canvas"><use xlink:href="#a" fill="#fff" figma:type="vector" transform="translate(0 1)"/></g><defs><path id="a" d="M0 1c2.75 0 4.841 1.297 6.673 3.406 1.883 2.157 3.387 5.056 4.95 8.056 1.565 3 3.189 6.1 5.215 8.444C18.916 23.297 21.515 25 25.021 25v-2c-2.75 0-4.841-1.297-6.673-3.406-1.883-2.157-3.387-5.056-4.95-8.056-1.564-3-3.189-6.1-5.215-8.444C6.105.703 3.506-1 0-1v2zm25.021 24c3.497 0 6.089-1.704 8.16-4.095 2.02-2.343 3.64-5.444 5.2-8.443 1.562-3 3.064-5.9 4.947-8.056C45.157 2.297 47.25 1 50 1v-2c-3.506 0-6.105 1.703-8.182 4.094-2.026 2.343-3.65 5.444-5.21 8.444-1.562 3-3.061 5.9-4.939 8.057-1.827 2.11-3.91 3.405-6.648 3.405v2zM50 1c2.75 0 4.841 1.297 6.673 3.406 1.883 2.157 3.387 5.056 4.95 8.056 1.565 3 3.189 6.1 5.215 8.444C68.916 23.297 71.515 25 75.021 25v-2c-2.75 0-4.841-1.297-6.673-3.406-1.883-2.157-3.387-5.056-4.95-8.056-1.565-3-3.189-6.1-5.215-8.444C56.105.703 53.506-1 50-1v2zm25.021 24c3.506 0 6.105-1.703 8.183-4.094 2.025-2.343 3.648-5.444 5.21-8.444 1.56-3 3.06-5.9 4.938-8.057C95.18 2.295 97.262 1 100 1v-2c-3.497 0-6.088 1.704-8.16 4.095-2.02 2.343-3.64 5.444-5.2 8.443-1.562 3-3.064 5.9-4.947 8.056C79.864 21.703 77.772 23 75.022 23v2z"/></defs></svg>