<svg width="473" height="263" viewBox="0 0 473 263" xmlns="http://www.w3.org/2000/svg" xmlns:xlink="http://www.w3.org/1999/xlink" xmlns:figma="http://www.figma.com/figma/ns"><title>hr-trail</title><desc>Created using Figma</desc><g figma:type="canvas"><use xlink:href="#a" transform="rotate(90 234.5 236.5)" fill="#FFE59C" figma:type="vector"/></g><defs><path id="a" d="M0-1.5a1.5 1.5 0 0 0 0 3v-3zm259 472a1.5 1.5 0 0 0 0-3v3zM5.11 1.578a1.5 1.5 0 1 0 .092-2.998L5.11 1.578zM15.217-.79a1.5 1.5 0 0 0-.288 2.986l.288-2.986zm9.378 4.263a1.5 1.5 0 0 0 .501-2.958l-.501 2.958zm10.337-.887a1.5 1.5 0 0 0-.737 2.908l.737-2.908zm8.613 5.712a1.5 1.5 0 1 0 .988-2.833l-.988 2.833zm10.282.896a1.5 1.5 0 0 0-1.246 2.73l1.246-2.73zm7.448 7.219a1.5 1.5 0 0 0 1.505-2.595l-1.505 2.595zm9.912 2.842a1.5 1.5 0 1 0-1.75 2.437l1.75-2.437zm5.913 8.519a1.5 1.5 0 0 0 1.975-2.26l-1.975 2.26zm9.218 4.683a1.5 1.5 0 1 0-2.17 2.07l2.17-2.07zm4.286 9.442a1.5 1.5 0 1 0 2.336-1.882l-2.336 1.882zm8.3 6.14a1.5 1.5 0 0 0-2.472 1.699l2.472-1.7zm2.838 10.034a1.5 1.5 0 0 0 2.583-1.526l-2.583 1.526zm7.371 7.171a1.5 1.5 0 0 0-2.67 1.37l2.67-1.37zm1.606 10.294a1.499 1.499 0 1 0 2.738-1.226l-2.738 1.226zm6.581 7.937a1.5 1.5 0 0 0-2.792 1.098l2.792-1.098zm.635 10.381a1.5 1.5 0 1 0 2.834-.983l-2.834.983zm5.92 8.47a1.5 1.5 0 1 0-2.867.882l2.867-.882zm-.11 10.391a1.5 1.5 0 1 0 2.893-.791l-2.893.791zm5.381 8.832a1.5 1.5 0 1 0-2.914.712l2.914-.712zm-.679 10.371a1.5 1.5 0 1 0 2.93-.641l-2.93.641zm4.951 9.077a1.501 1.501 0 0 0-2.944.581l2.944-.581zm-1.113 10.342a1.501 1.501 0 0 0 2.954-.526l-2.954.526zm4.615 9.246a1.5 1.5 0 0 0-2.962.48l2.962-.48zm-1.44 10.309a1.5 1.5 0 1 0 2.967-.439l-2.967.439zm4.357 9.366a1.5 1.5 0 1 0-2.972.405l2.972-.405zm-1.683 10.267a1.5 1.5 0 0 0 2.977-.375l-2.977.375zm4.171 9.46a1.5 1.5 0 0 0-2.979.35l2.979-.35zm-1.856 10.213a1.5 1.5 0 1 0 2.981-.33l-2.981.33zm4.046 9.541a1.5 1.5 0 0 0-2.984.314l2.984-.314zm-1.965 10.179a1.5 1.5 0 0 0 2.985-.303l-2.985.303zm3.976 9.581a1.5 1.5 0 0 0-2.986.296l2.986-.296zm-2.012 10.17a1.5 1.5 0 0 0 2.985-.293l-2.985.293zm3.956 9.58a1.5 1.5 0 1 0-2.985.294l2.985-.294zm-2.001 10.185a1.5 1.5 0 0 0 2.985-.301l-2.985.301zm3.991 9.539a1.5 1.5 0 1 0-2.984.31l2.984-.31zm-1.928 10.224a1.5 1.5 0 0 0 2.983-.326l-2.983.326zm4.085 9.479a1.5 1.5 0 0 0-2.98.345l2.98-.345zm-1.789 10.265a1.5 1.5 0 0 0 2.977-.371l-2.977.371zm4.246 9.409a1.5 1.5 0 0 0-2.973.402l2.973-.402zm-1.573 10.297a1.5 1.5 0 1 0 2.968-.44l-2.968.44zm4.485 9.299a1.5 1.5 0 1 0-2.96.485l2.96-.485zm-1.257 10.338a1.5 1.5 0 1 0 2.951-.539l-2.951.539zm4.818 9.124a1.5 1.5 0 0 0-2.939.601l2.939-.601zm-.811 10.39a1.5 1.5 0 0 0 2.923-.675l-2.923.675zm5.268 8.845a1.501 1.501 0 0 0-2.902.761l2.902-.761zm-.182 10.444a1.5 1.5 0 1 0 2.873-.864l-2.873.864zm5.866 8.412a1.5 1.5 0 0 0-2.835.981l2.835-.981zm.701 10.447a1.5 1.5 0 0 0 2.782-1.122l-2.782 1.122zm6.701 7.849a1.5 1.5 0 0 0-2.712 1.283l2.712-1.283zm1.881 10.19a1.5 1.5 0 0 0 2.615-1.47l-2.615 1.47zm7.773 6.889a1.501 1.501 0 0 0-2.484 1.684l2.484-1.684zm3.516 9.689a1.5 1.5 0 1 0 2.308-1.917l-2.308 1.917zm8.947 5.241a1.5 1.5 0 1 0-2.078 2.163l2.078-2.163zm5.603 8.689a1.499 1.499 0 1 0 1.795-2.403l-1.795 2.403zm9.924 2.879a1.499 1.499 0 1 0-1.465 2.617l1.465-2.617zm7.673 6.968a1.5 1.5 0 0 0 1.109-2.787l-1.109 2.787zm10.265.212a1.5 1.5 0 1 0-.76 2.902l.76-2.902zm9.192 4.902a1.5 1.5 0 1 0 .427-2.969l-.427 2.969zm10.071-2.069a1.5 1.5 0 1 0-.137 2.997l.137-2.997zM0 1.5c1.73 0 3.425.026 5.11.078l.092-2.998C3.494-1.473 1.752-1.5 0-1.5v3zm14.93.695c3.322.32 6.525.744 9.665 1.277l.501-2.958a138.99 138.99 0 0 0-9.88-1.305l-.287 2.986zm19.265 3.298c3.23.819 6.324 1.749 9.35 2.804l.988-2.833a115.606 115.606 0 0 0-9.6-2.879l-.738 2.908zm18.386 6.43a100.128 100.128 0 0 1 8.694 4.489l1.505-2.595a104.443 104.443 0 0 0-8.953-4.624l-1.246 2.73zm16.856 9.768c2.667 1.914 5.2 3.928 7.663 6.082l1.975-2.26a105.924 105.924 0 0 0-7.888-6.259l-1.75 2.437zm14.71 12.835a116.048 116.048 0 0 1 6.457 7.372l2.336-1.882a120.332 120.332 0 0 0-6.622-7.56l-2.17 2.07zm12.285 15.21a143.662 143.662 0 0 1 5.31 8.336l2.583-1.526a148.195 148.195 0 0 0-5.42-8.509l-2.473 1.7zm10.011 16.877a185.23 185.23 0 0 1 4.276 8.924l2.738-1.226a189.453 189.453 0 0 0-4.344-9.068l-2.67 1.37zm8.065 17.959a242.567 242.567 0 0 1 3.427 9.283l2.834-.983a244.935 244.935 0 0 0-3.469-9.398l-2.792 1.098zm6.48 18.635a316.815 316.815 0 0 1 2.757 9.509l2.893-.791a316.628 316.628 0 0 0-2.783-9.6l-2.867.882zm5.224 19.053a419.342 419.342 0 0 1 2.235 9.659l2.93-.641a415.18 415.18 0 0 0-2.251-9.73l-2.914.712zm4.242 19.317a540.028 540.028 0 0 1 1.831 9.761l2.954-.526a555.097 555.097 0 0 0-1.841-9.816l-2.944.581zm3.484 19.487a724.785 724.785 0 0 1 1.522 9.829l2.967-.439a733.348 733.348 0 0 0-1.527-9.87l-2.962.48zm2.907 19.6c.445 3.274.874 6.56 1.289 9.862l2.977-.375c-.417-3.309-.847-6.609-1.294-9.892l-2.972.405zm2.481 19.672c.385 3.28.758 6.567 1.123 9.863l2.981-.33c-.365-3.301-.739-6.597-1.125-9.883l-2.979.35zm2.185 19.718c.346 3.286.685 6.574 1.019 9.865l2.985-.303c-.334-3.293-.674-6.587-1.02-9.876l-2.984.314zm2.009 19.742c.327 3.294.651 6.585.974 9.874l2.985-.293c-.323-3.289-.647-6.582-.973-9.877l-2.986.296zm1.945 19.748c.326 3.304.653 6.602.984 9.891l2.985-.301a4938.38 4938.38 0 0 1-.984-9.884l-2.985.294zm1.991 19.74c.346 3.317.697 6.624 1.056 9.914l2.983-.326c-.359-3.286-.71-6.585-1.055-9.898l-2.984.31zm2.161 19.738c.385 3.325.782 6.635 1.191 9.92l2.977-.371c-.408-3.278-.803-6.575-1.188-9.894l-2.98.345zm2.464 19.731a788.5 788.5 0 0 0 1.4 9.895l2.968-.44a779.84 779.84 0 0 1-1.395-9.857l-2.973.402zm2.925 19.679a551.99 551.99 0 0 0 1.703 9.853l2.951-.539a559.468 559.468 0 0 1-1.694-9.799l-2.96.485zm3.582 19.578a396.051 396.051 0 0 0 2.128 9.789l2.923-.675a392.651 392.651 0 0 1-2.112-9.715l-2.939.601zm4.494 19.395c.862 3.284 1.77 6.522 2.72 9.683l2.873-.864a278.48 278.48 0 0 1-2.691-9.58l-2.902.761zm5.751 19.076a201.712 201.712 0 0 0 3.536 9.466l2.782-1.122a198.925 198.925 0 0 1-3.483-9.325l-2.835.981zm7.525 18.598a143.108 143.108 0 0 0 4.593 8.907l2.615-1.47a138.981 138.981 0 0 1-4.496-8.72l-2.712 1.283zm9.882 17.48a103.925 103.925 0 0 0 6 8.005l2.308-1.917a98.938 98.938 0 0 1-5.824-7.772l-2.484 1.684zm12.869 15.409a81.87 81.87 0 0 0 7.681 6.526l1.795-2.403a77.867 77.867 0 0 1-7.398-6.286l-2.078 2.163zm16.14 12.022a77.569 77.569 0 0 0 9.138 4.351l1.109-2.787a73.346 73.346 0 0 1-8.782-4.181l-1.465 2.617zm18.643 7.465a90.386 90.386 0 0 0 9.952 2l.427-2.969a86.263 86.263 0 0 1-9.619-1.933l-.76 2.902zm19.886 2.928c1.706.077 3.458.117 5.222.117v-3c-1.73 0-3.414-.038-5.085-.114l-.137 2.997z"/></defs></svg>