<svg width="45" height="45" viewBox="0 0 45 45" xmlns="http://www.w3.org/2000/svg" xmlns:xlink="http://www.w3.org/1999/xlink" xmlns:figma="http://www.figma.com/figma/ns"><title>icon-analyze</title><desc>Created using Figma</desc><g figma:type="canvas"><g figma:type="frame"><g figma:type="frame"><use xlink:href="#a" transform="translate(30.743 1)" fill="#61FFB6" figma:type="vector"/><use xlink:href="#b" transform="translate(28 5.5)" fill="#61FFB6" figma:type="vector"/><use xlink:href="#a" transform="matrix(-1 0 0 -1 41.257 10)" fill="#61FFB6" figma:type="vector"/><use xlink:href="#b" transform="matrix(-1 0 0 -1 44 5.5)" fill="#61FFB6" figma:type="vector"/></g><use xlink:href="#c" transform="rotate(-45 57.247 -10.229)" fill="#61FFB6" figma:type="vector"/><g figma:type="frame" transform="translate(-229 -584)"><mask id="e"><use xlink:href="#d" transform="translate(238 593)" fill="#C4C4C4" figma:type="ellipse"/></mask><g figma:type="frame" mask="url(#e)"><use xlink:href="#f" transform="rotate(45 -587.822 585.016)" fill="#61FFB6" figma:type="vector"/><use xlink:href="#g" transform="translate(237.235 595.333)" fill="#FFF" figma:type="ellipse"/></g></g><g figma:type="frame" transform="translate(-229 -584)"><mask id="j"><g figma:type="vector" transform="translate(228 590)"><use xlink:href="#h" fill="#C4C4C4"/><use xlink:href="#i"/></g></mask><g mask="url(#j)" figma:type="frame"><use xlink:href="#k" transform="rotate(45 -591.486 582.998)" fill="#61FFB6" figma:type="vector"/><use xlink:href="#l" transform="translate(235.929 595)" fill="#FFF" figma:type="ellipse"/></g></g><g figma:type="frame"><use xlink:href="#m" transform="rotate(45 4.271 27.267)" fill="#FFF" figma:type="ellipse"/><use xlink:href="#n" transform="rotate(45 -27.987 26.874)" fill="#FFF" figma:type="vector"/></g></g></g><defs><path id="a" d="M-1 5.85a1 1 0 1 0 2 0h-2zM7.771 1a1 1 0 0 0 0-2v2zM1 5.85V1h-2v4.85h2zM1 1h6.771v-2H1v2zm0 0v-2a2 2 0 0 0-2 2h2z"/><path id="b" d="M.702-.713A1 1 0 0 0-.702.713L.702-.713zM6.187.713A1 1 0 0 0 4.784-.713L6.187.713zm-6.889 0l2.042 2.01 1.403-1.426L.702-.713-.702.713zm4.848 2.01L6.187.712 4.784-.713l-2.041 2.01 1.403 1.425zm-2.806 0a2 2 0 0 0 2.806 0L2.743 1.296 1.34 2.722z"/><path id="c" d="M2.977 0A2.977 2.977 0 0 0 0 2.977V10.584h7.607a2.977 2.977 0 0 0 0-5.954H5.953V2.977A2.977 2.977 0 0 0 2.977 0z"/><path id="d" d="M23 11.5C23 17.851 17.851 23 11.5 23S0 17.851 0 11.5 5.149 0 11.5 0 23 5.149 23 11.5z"/><path id="f" d="M16.835.982l1.498-.076-.067-1.343-1.343-.078-.088 1.497zm.285 5.647l-1.498.075 1.498-.075zM.982 16.835l-1.497.087.078 1.343 1.343.068.076-1.498zm10.15-14.683l5.616.328.174-2.995-5.615-.328-.174 2.995zm4.205-1.094l.285 5.646 2.996-.15-.285-5.648-2.996.152zM6.704 15.622l-5.646-.285-.152 2.996 5.647.285.151-2.996zM2.48 16.748l-.328-5.615-2.995.174.328 5.615 2.995-.174zm8.827-17.59c-6.87-.402-12.55 5.28-12.15 12.15l2.995-.175c-.296-5.078 3.903-9.277 8.98-8.981l.175-2.995zm4.315 7.546c.254 5.027-3.891 9.172-8.918 8.918l-.15 2.996c6.8.343 12.407-5.264 12.064-12.065l-2.996.151z"/><path id="g" d="M8.333 4.167a4.167 4.167 0 1 1-8.333 0 4.167 4.167 0 0 1 8.333 0z"/><path id="h" d="M0 15.5h10l2-7L18 4l-.5-4h-16L0 15.5z"/><path id="i" d="M10 15.5v.5h.377l.104-.363L10 15.5zm-10 0l-.498-.048L-.55 16H0v-.5zM17.5 0l.496-.062-.055-.438H17.5V0zm.5 4l.3.4.232-.174-.036-.288L18 4zm-6 4.5l-.3-.4-.135.1-.046.163L12 8.5zM1.5 0v-.5h-.454l-.044.452L1.5 0zM10 15H0v1h10v-1zM17.004.062l.5 4 .992-.124-.5-4-.992.124zM17.7 3.6l-6 4.5.6.8 6-4.5-.6-.8zm-6.18 4.763l-2 7 .96.274 2-7-.96-.274zM.497 15.548l1.5-15.5-.996-.096-1.5 15.5.996.096zM1.5.5h16v-1h-16v1z"/><path id="k" d="M7.854.458l-.058.998.058-.998zm4.267.25l.999-.051-.045-.896-.895-.052-.059.998zM.707 12.12l-.998.059.052.895.896.045.05-.999zM7.796 1.456l4.267.25.117-1.997-4.268-.25-.116 1.997zm3.327-.698l.216 4.286 1.997-.1L13.12.656l-1.997.1zm-6.079 10.58l-4.286-.215-.101 1.997 4.286.216.101-1.997zm-3.339.725l-.249-4.267-1.996.116.249 4.268 1.996-.117zM7.912-.54C3.133-.82-.818 3.133-.54 7.912l1.996-.116a6 6 0 0 1 6.34-6.34L7.912-.54zm3.427 5.584a6 6 0 0 1-6.295 6.295l-.1 1.997c4.73.24 8.631-3.662 8.392-8.393l-1.997.101z"/><path id="l" d="M6 3a3 3 0 1 1-6 0 3 3 0 0 1 6 0z"/><path id="m" d="M21.925 11.463c0 5.778-4.684 10.462-10.463 10.462v2c6.883 0 12.463-5.58 12.463-12.463h-2zM11.462 21.925C5.685 21.925 1 17.24 1 11.462h-2c0 6.883 5.58 12.463 12.463 12.463v-2zM1 11.462C1 5.685 5.684 1 11.463 1v-2C4.58-1-1 4.58-1 11.463h2zM11.463 1c5.778 0 10.462 4.684 10.462 10.463h2C23.925 4.58 18.345-1 11.462-1v2z"/><path id="n" d="M1 .573a1 1 0 0 0-2 0h2zM5.585 0a1 1 0 0 0-2 0h2zM-1 .573v9.17h2V.573h-2zm6.585 9.17V0h-2v9.743h2zm-6.585 0a3.292 3.292 0 0 0 3.292 3.293v-2A1.293 1.293 0 0 1 1 9.743h-2zm3.292 3.293a3.292 3.292 0 0 0 3.293-3.293h-2c0 .714-.579 1.293-1.293 1.293v2z"/></defs></svg>