<svg width="46" height="46" viewBox="0 0 46 46" xmlns="http://www.w3.org/2000/svg" xmlns:xlink="http://www.w3.org/1999/xlink" xmlns:figma="http://www.figma.com/figma/ns"><title>icon-timing</title><desc>Created using Figma</desc><g figma:type="canvas"><g figma:type="frame"><g figma:type="frame"><use xlink:href="#a" transform="rotate(-90 13.5 -9.5)" fill="#FFF" figma:type="vector"/><use xlink:href="#a" transform="rotate(-90 34 11)" fill="#FFF" figma:type="vector"/></g><g figma:type="frame"><use xlink:href="#b" transform="translate(42 23)" fill="#FFF" figma:type="vector"/><use xlink:href="#b" transform="translate(1 23)" fill="#FFF" figma:type="vector"/></g><g figma:type="frame"><use xlink:href="#b" transform="rotate(-45 29.763 -39.198)" fill="#FFF" figma:type="vector"/><use xlink:href="#b" transform="rotate(-45 50.263 10.292)" fill="#FFF" figma:type="vector"/></g><g figma:type="frame"><use xlink:href="#b" transform="rotate(45 -25.763 62.198)" fill="#FFF" figma:type="vector"/><use xlink:href="#b" transform="rotate(45 -5.264 12.708)" fill="#FFF" figma:type="vector"/></g><use xlink:href="#c" transform="translate(9 9)" fill="#61FFB6" figma:type="ellipse"/><use xlink:href="#d" transform="rotate(90 9 21.5)" fill="#FFF" figma:type="vector"/></g></g><defs><path id="a" d="M0-1a1 1 0 1 0 0 2v-2zm3 2a1 1 0 0 0 0-2v2zM0 1h3v-2H0v2z"/><path id="b" d="M0-1a1 1 0 1 0 0 2v-2zm3 2a1 1 0 0 0 0-2v2zM0 1h3v-2H0v2z"/><path id="c" d="M27 14c0 7.18-5.82 13-13 13v2c8.284 0 15-6.716 15-15h-2zM14 27C6.82 27 1 21.18 1 14h-2c0 8.284 6.716 15 15 15v-2zM1 14C1 6.82 6.82 1 14 1v-2C5.716-1-1 5.716-1 14h2zM14 1c7.18 0 13 5.82 13 13h2c0-8.284-6.716-15-15-15v2z"/><path id="d" d="M0 6.5a1 1 0 0 0 0 2v-2zM11.5 0a1 1 0 1 0-2 0h2zM0 8.5h9.5v-2H0v2zm11.5-2V0h-2v6.5h2zm-2 2a2 2 0 0 0 2-2h-2v2z"/></defs></svg>