<svg width="39" height="38" viewBox="0 0 39 38" xmlns="http://www.w3.org/2000/svg" xmlns:xlink="http://www.w3.org/1999/xlink" xmlns:figma="http://www.figma.com/figma/ns"><title>icon-slack</title><desc>Created using Figma</desc><g figma:type="canvas"><g figma:type="vector" transform="translate(.04)" fill="#FFF"><use xlink:href="#a"/><use xlink:href="#b"/></g></g><defs><path id="a" d="M15.645 17.43l5.07-1.698 1.64 4.896-5.07 1.699-1.64-4.897z"/><path id="b" fill-rule="evenodd" d="M13.775 1.593c13.063-3.92 18.713-.881 22.632 12.182 3.92 13.063.881 18.713-12.182 22.632-13.063 3.919-18.713.881-22.632-12.182C-2.327 11.162.712 5.512 13.775 1.593zm13.58 21.478l2.46-.82c1.033-.335 1.58-1.459 1.246-2.492-.335-1.032-1.459-1.58-2.492-1.245l-2.46.82-1.64-4.89 2.46-.821c1.033-.334 1.58-1.458 1.246-2.491-.335-1.033-1.459-1.58-2.492-1.246l-2.46.82-.85-2.551c-.335-1.033-1.46-1.58-2.492-1.246-1.033.334-1.58 1.458-1.245 2.491l.85 2.552-5.073 1.701-.85-2.552c-.335-1.033-1.459-1.58-2.492-1.245-1.033.334-1.58 1.458-1.246 2.491l.851 2.552-2.46.82c-1.033.334-1.58 1.458-1.246 2.491.273.79 1.033 1.306 1.823 1.337.212.03.455-.03.668-.091l2.46-.82 1.641 4.89-2.46.82c-1.033.335-1.58 1.459-1.246 2.492.273.79 1.033 1.306 1.823 1.336.212.03.455-.03.668-.09l2.46-.821.851 2.552c.274.79 1.033 1.306 1.823 1.337.213.03.456-.03.668-.091 1.033-.335 1.58-1.459 1.246-2.492l-.85-2.551 5.073-1.702.85 2.552c.274.79 1.033 1.306 1.823 1.337.213.03.456-.03.668-.091 1.033-.335 1.58-1.459 1.246-2.491l-.85-2.552z"/></defs></svg>