<svg width="37" height="31" viewBox="0 0 37 31" xmlns="http://www.w3.org/2000/svg" xmlns:xlink="http://www.w3.org/1999/xlink" xmlns:figma="http://www.figma.com/figma/ns"><title>icon-algorithm</title><desc>Created using Figma</desc><g figma:type="canvas"><g figma:type="frame"><use xlink:href="#a" transform="translate(5.257 1)" fill="#61FFB6" figma:type="vector"/><use xlink:href="#b" transform="translate(1 6.145)" fill="#FFF" figma:type="vector"/></g></g><defs><path id="a" d="M1 0a1 1 0 1 0-2 0h2zm29.743 30a1 1 0 1 0 0-2v2zM-1 0v25h2V0h-2zm5 30h26.743v-2H4v2zm-5-5a5 5 0 0 0 5 5v-2a3 3 0 0 1-3-3h-2z"/><path id="b" d="M0 18.645a1 1 0 1 0 0 2v-2zm34.527-5.951a1 1 0 1 0 0-2v2zM0 20.645c2.966 0 5.226-1.417 7.028-3.396 1.753-1.934 3.166-4.5 4.443-6.967 1.276-2.466 2.433-4.85 3.762-6.612C16.545 1.922 17.853 1 19.392 1v-2c-2.48 0-4.307 1.534-5.759 3.47-1.435 1.92-2.673 4.448-3.938 6.893-1.266 2.445-2.542 4.79-4.145 6.54-1.553 1.704-3.314 2.742-5.55 2.742v2zM19.392 1c1.184 0 2.22.552 3.272 1.552 1.086 1.026 2.064 2.416 3.132 3.883s2.236 3.017 3.585 4.189c1.368 1.17 3.14 2.042 5.146 2.07v-2c-1.542.027-2.666-.563-3.84-1.585-1.193-1.021-2.213-2.394-3.274-3.85-1.06-1.457-2.15-2.99-3.37-4.157C22.787-.09 21.282-1 19.391-1v2z"/></defs></svg>