<svg width="45" height="43" viewBox="0 0 45 43" xmlns="http://www.w3.org/2000/svg" xmlns:xlink="http://www.w3.org/1999/xlink" xmlns:figma="http://www.figma.com/figma/ns"><title>icon-machine-learning</title><desc>Created using Figma</desc><g figma:type="canvas"><g figma:type="frame"><use xlink:href="#a" transform="matrix(0 1 -1 0 1.667 13.551)" fill="#FFF" figma:type="vector"/><use xlink:href="#b" transform="matrix(0 1 -1 0 13.333 8.531)" fill="#61FFB6" figma:type="vector"/><use xlink:href="#c" transform="translate(18.333 1.837)" fill="#61FFB6" figma:type="vector"/><use xlink:href="#d" transform="translate(13.333 6.857)" fill="#FFF" figma:type="vector"/><use xlink:href="#e" transform="translate(27.5 1)" fill="#61FFB6" figma:type="vector"/><use xlink:href="#f" transform="translate(13.333 18.571)" fill="#61FFB6" figma:type="vector"/><use xlink:href="#g" transform="translate(33.333 3.51)" fill="#FFF" figma:type="vector"/><use xlink:href="#h" transform="translate(36.667 7.694)" fill="#FFF" figma:type="vector"/><use xlink:href="#i" transform="translate(36.667 16.898)" fill="#FFF" figma:type="vector"/><use xlink:href="#j" transform="translate(23.333 24.429)" fill="#FFF" figma:type="vector"/><use xlink:href="#k" transform="translate(0 11.878)" fill="#FFF" figma:type="ellipse"/><use xlink:href="#k" transform="translate(10 5.184)" fill="#FFF" figma:type="ellipse"/><use xlink:href="#k" transform="translate(33.333 1.837)" fill="#FFF" figma:type="ellipse"/><use xlink:href="#k" transform="translate(38.333 6.857)" fill="#FFF" figma:type="ellipse"/><use xlink:href="#k" transform="translate(41.667 15.224)" fill="#FFF" figma:type="ellipse"/><use xlink:href="#k" transform="translate(35 15.224)" fill="#FFF" figma:type="ellipse"/><use xlink:href="#k" transform="translate(26.667 23.592)" fill="#FFF" figma:type="ellipse"/><use xlink:href="#k" transform="translate(21.667 36.98)" fill="#FFF" figma:type="ellipse"/><use xlink:href="#k" transform="translate(31.667 10.204)" fill="#FFF" figma:type="ellipse"/><use xlink:href="#k" transform="translate(0 16.898)" fill="#FFF" figma:type="ellipse"/><use xlink:href="#k" transform="translate(11.667 16.898)" fill="#FFF" figma:type="ellipse"/><use xlink:href="#k" transform="translate(16.667 5.184)" fill="#FFF" figma:type="ellipse"/><use xlink:href="#l" transform="translate(11.667 6.857)" fill="#FFF" figma:type="vector"/><use xlink:href="#m" transform="translate(28.333 26.939)" fill="#61FFB6" figma:type="vector"/></g></g><defs><path id="a" d="M0 .5h5.02v-1H0v1z"/><path id="b" d="M0 5.667a1 1 0 1 0 0 2v-2zm10.04 1v1a1 1 0 0 0 .707-.292l-.706-.708zm7.4-5.958A1 1 0 1 0 16.03-.71L17.44.71zM0 7.667h10.04v-2H0v2zm10.746-.292L17.44.71 16.03-.71 9.335 5.958l1.411 1.417z"/><path id="c" d="M5.167 0a1 1 0 0 0-2 0h2zm-1 10.878l.708.705a1 1 0 0 0 .292-.705h-1zM-.71 14.356a1 1 0 1 0 1.418 1.41l-1.418-1.41zM3.167 0v10.878h2V0h-2zm.291 10.172l-4.167 4.184 1.418 1.41 4.166-4.183-1.417-1.411z"/><path id="d" d="M0 5.02l-.354-.352A.5.5 0 0 0-.5 5.02H0zM4.646-.353l-5 5.02.708.706 5-5.02-.708-.706zM-.5 5.02v6.694h1V5.02h-1z"/><path id="e" d="M3.209.706A1 1 0 0 0 1.79-.706L3.21.706zM0 2.51l-.709-.705A1 1 0 0 0-1 2.51h1zm0 10.041h-1a1 1 0 0 0 .291.706L0 12.55zm4.167 4.184h1a1 1 0 0 0-.292-.706l-.708.706zm0 4.183h-1a1 1 0 0 0 1 1v-1zm10.833 1a1 1 0 1 0 0-2v2zM1.791-.706l-2.5 2.51L.71 3.217l2.5-2.51L1.79-.706zM-1 2.51v10.041h2V2.511h-2zm.291 10.747l4.167 4.183 1.417-1.411L.71 11.845-.71 13.257zm3.876 3.478v4.183h2v-4.183h-2zm1 5.183H15v-2H4.167v2z"/><path id="f" d="M12.667 0a1 1 0 1 0-2 0h2zm-1 3.347l.708.706a1 1 0 0 0 .292-.706h-1zM8.333 6.694v1a1 1 0 0 0 .709-.294l-.709-.706zM0 5.694a1 1 0 1 0 0 2v-2zM10.667 0v3.347h2V0h-2zm.291 2.641L7.625 5.988 9.042 7.4l3.333-3.347-1.417-1.412zM8.333 5.694H0v2h8.333v-2z"/><path id="g" d="M1.667 6.694l.354.353a.5.5 0 0 0 .146-.353h-.5zM1.167 0v6.694h1V0h-1zm.145 6.341L-.354 8.015l.708.705 1.667-1.673-.709-.706z"/><path id="h" d="M3.333 5.857l.355.353a.5.5 0 0 0 .145-.353h-.5zm-.354-.353L-.354 8.851l.708.706L3.688 6.21l-.709-.706zm.854.353V0h-1v5.857h1z"/><path id="i" d="M0 .5h6.667v-1H0v1z"/><path id="j" d="M0 5.857l-.354-.353a.5.5 0 0 0-.146.353H0zm5.48-6.21L-.355 5.504l.708.706L6.188.353l-.709-.706zM-.5 5.857v7.53h1v-7.53h-1z"/><path id="k" d="M3.333 1.673a1.67 1.67 0 0 1-1.666 1.674A1.67 1.67 0 0 1 0 1.673 1.67 1.67 0 0 1 1.667 0c.92 0 1.666.75 1.666 1.673z"/><path id="l" d="M6.667-.5H0v1h6.667v-1z"/><path id="m" d="M11.667 1a1 1 0 1 0 0-2v2zM5 0v-1a1 1 0 0 0-.709.294L5 0zM0 5.02l-.709-.705A1 1 0 0 0-1 5.02h1zm-1 10.041a1 1 0 1 0 2 0h-2zM11.667-1H5v2h6.667v-2zM4.29-.706l-5 5.02L.71 5.727l5-5.02L4.29-.706zM-1 5.02v10.041h2V5.021h-2z"/></defs></svg>