<svg width="100" height="81" viewBox="0 0 100 81" xmlns="http://www.w3.org/2000/svg" xmlns:xlink="http://www.w3.org/1999/xlink" xmlns:figma="http://www.figma.com/figma/ns"><title>Vector</title><desc>Created using Figma</desc><g figma:type="canvas"><use xlink:href="#a" fill="url(#b)" figma:type="vector"/></g><defs><linearGradient id="b" x2="1" gradientUnits="userSpaceOnUse" gradientTransform="matrix(90.9091 81.4111 -100.84 112.605 50.42 -56.303)"><stop offset="0" stop-color="#E5A7FC"/><stop offset=".456" stop-color="#90E4FF"/><stop offset="1" stop-color="#FFE094"/></linearGradient><path id="a" d="M0 8.548C0 3.8 3.8 0 9.77 0c2.17 0 4.206.407 5.155.814.543.271.814.679.814 1.357 0 0 .136 1.628 0 3.12 0 1.629-.135 2.85-.135 2.85-.136.679-.543.814-.95.543a3.613 3.613 0 0 0-1.628-.407c-1.493 0-2.714.95-2.714 2.714 0 2.578 5.02 7.19 5.02 12.483 0 3.799-2.985 7.19-7.87 7.19-2.713 0-4.613-.949-5.427-1.356-.271-.136-.407-.271-.407-.678 0 0-.135-1.222-.271-2.714 0-1.493.136-2.85.136-2.85 0-.135.135-.27.27-.135.544.543 1.9 1.492 3.393 1.492 1.357 0 2.442-.95 2.442-2.442C7.463 18.181 0 14.79 0 8.548zM39.756 1.9c0-.543-.543-.95-1.086-1.086-.95-.136-1.9-.271-2.985-.271-.95 0-2.17.135-3.256.271-.543.136-1.086.543-1.086 1.221.136 2.714.136 9.634.136 13.976 0 5.97-.678 8.548-2.442 8.548-1.9 0-2.443-2.714-2.443-8.548 0-4.342.136-11.262.136-13.976 0-.678-.407-1.085-1.085-1.22-1.086-.137-2.307-.272-3.257-.272-1.357 0-2.17.135-2.985.271-.543.136-1.085.543-1.085 1.086-.815 18.588.542 28.9 10.719 28.9 9.769.136 11.669-10.176 10.719-28.9zm39.077 6.105s.136-1.492.272-3.12c.135-1.9 0-2.985 0-2.985 0-.543-.136-.95-.95-.95 0 0-2.578-.272-6.785-.272-3.799 0-6.377.272-6.377.272-.95.135-1.492.678-1.492 1.628 0 0-.136 7.87-.136 13.704 0 7.463.136 13.026.136 13.026.135.678.271.95 1.085 1.085 0 0 2.442.272 5.292.272 2.85 0 5.97-.271 5.97-.271.678-.136.814-.272.95-.95 0 0 .135-.814.271-1.9.272-1.085.272-1.764.272-1.764 0-.678-.407-1.085-.95-1.085h-4.885c-1.085 0-1.492-.679-1.492-1.628v-1.086c.135-.678.407-1.221 1.628-1.221h4.885c.814 0 1.22-.407 1.356-1.221 0 0 .136-.679.272-1.9.135-1.221.135-2.17.135-2.17 0-.68-.271-.95-1.085-1.086 0 0-3.664-.136-4.885-.136-1.357 0-1.492-.678-1.492-1.493v-1.22c0-.815.135-1.358.135-1.358.136-.814.679-1.22 1.493-1.22h5.292c.542-.136.95-.272 1.085-.95zm19.674 21.303c.136.543 0 .95-.814 1.085 0 0-.814.136-2.306.136-1.493 0-2.171-.136-2.171-.136-.814-.135-.95-.407-1.086-.678 0 0-1.9-4.206-2.578-5.699-.407-.814-1.357-.678-1.357.272a50.834 50.834 0 0 1-.542 5.291c-.136.679-.407.814-.95.814 0 0-.814.136-2.035.136-1.222 0-2.036-.136-2.036-.136-.678-.135-.95-.27-1.085-.95 0 0-.136-6.512-.136-13.16 0-6.65.272-13.298.272-13.298 0-1.221.678-1.9 1.763-2.035 1.086-.136 2.443-.272 3.8-.272C95.93.678 100 5.02 100 11.126c0 2.985-1.085 5.563-3.935 8.006-.543.407-.814.95-.543 1.628.407.543 2.714 7.87 2.985 8.548zM89.145 11.94c0 1.222.95 2.307 2.171 2.307 1.221 0 2.307-1.085 2.307-2.307 0-1.22-.95-2.306-2.171-2.306-1.221 0-2.307 1.085-2.307 2.306zm-27.951-1.628c0 3.8-1.764 8.82-9.77 10.448-.678.135-1.085.678-1.085 1.221-.271 2.85-.814 7.327-.814 7.327 0 .543-.407.814-1.085.95 0 0-.814.136-2.171.136-1.357 0-2.036-.136-2.036-.136-.678-.136-.95-.407-1.085-.95 0 0-.407-9.227-.679-14.518C42.2 9.498 42.2 2.17 42.2 2.17c0-.814.542-1.493 1.356-1.628A32.634 32.634 0 0 1 47.761.27c8.277.136 13.433 3.393 13.433 10.041zm-6.513 1.493c0-1.222-.95-2.307-2.306-2.307-1.357 0-2.172 1.085-2.172 2.307 0 1.22.95 2.306 2.307 2.306s2.171-.95 2.171-2.306zM23.745 34.6s-3.392-.272-8.548-.272c-4.885 0-8.548.272-8.548.272-.679 0-1.222.407-1.357 1.22v2.85c.135 1.764.271 2.85.271 2.85.136.678.543.95 1.221.95h2.714c1.085 0 1.9.814 1.9 1.9l.814 18.588c0 .678.407 1.085 1.22 1.221 0 0 .815.136 1.63.136.813 0 1.627-.136 1.627-.136.814-.136 1.221-.543 1.221-1.221l1.086-18.589c0-1.085.95-1.9 1.9-1.9h2.713c.543 0 .95-.27 1.086-.95 0 0 .135-.813.271-2.849.136-1.9 0-2.985 0-2.985 0-.678-.543-1.085-1.221-1.085zm70.285 0s-2.171-.136-3.935-.136c-1.9 0-4.342.136-4.342.136-.678.135-.678.407-.95.814 0 0-.814 1.628-1.357 3.12a78.914 78.914 0 0 1-1.356 3.393c-.407.678-.95.678-1.357 0l-1.357-3.392-1.357-3.257c-.271-.407-.407-.814-1.221-.814 0 0-2.578-.136-3.8-.136-1.22 0-2.984.136-2.984.136-.814 0-1.357.543-1.357 1.493 0 0-.136 6.105.135 13.297.272 7.191.679 13.84.679 13.84 0 .542.407.814.95.95 0 0 .678.135 2.035.135 1.492 0 2.307-.136 2.307-.136.678 0 .95-.407.95-.95l.542-8.548c0-.95 1.086-1.22 1.628-.407 0 0 2.307 4.071 2.714 4.614.407.678.95.678 1.493 0 .542-.679 2.849-4.614 2.849-4.614.407-.814 1.493-.542 1.628.407l.407 8.413c0 .543.272.814.95.95 0 0 1.085.135 2.307.135 1.357 0 2.035-.135 2.035-.135.543-.136.95-.407.95-.814 0 0 .678-6.378 1.492-14.112s.814-13.025.814-13.025c-.135-.679-.542-1.222-1.492-1.357zm-50.746 6.513s.135-.543.271-2.307c.136-1.9 0-2.578 0-2.578 0-.95-.678-1.628-1.493-1.628 0 0-3.12-.136-6.784-.136-3.663 0-6.377.136-6.377.136-.95.135-1.493.814-1.493 1.628 0 0-.135 5.834-.135 13.026 0 7.191.271 13.297.271 13.297 0 .95.543 1.221 1.493 1.357 0 0 2.17.271 5.291.271 3.121 0 5.156-.271 5.156-.271.95-.136 1.493-.543 1.764-1.357 0 0 .136-.543.136-1.493v-1.356c-.136-.95-.407-1.629-1.492-1.629 0 0-2.307 0-3.8-.135-1.357 0-2.035-.815-2.035-1.9v-.407c0-.95.814-1.493 1.764-1.628.95 0 4.885-.136 4.885-.136.814-.136 1.356-.407 1.492-1.357 0 0 .136-.543.136-1.764v-1.628c0-.95-.543-1.492-1.493-1.628-.95-.136-4.342-.136-4.342-.136-1.085 0-1.628-.543-1.628-1.628 0-1.221.136-2.171.136-2.171.136-1.086.543-1.493 1.628-1.628 1.086 0 5.02-.136 5.02-.136.95.678 1.493.407 1.629-.678zm20.895 7.055c1.221 6.92 2.171 14.79 2.171 14.79.136.543-.271 1.085-.95 1.085 0 0-.678.136-2.306.136-1.629 0-2.443-.136-2.443-.136-.542-.135-.814-.27-.95-.678l-.814-2.442c-.271-.95-.814-1.357-1.764-1.629 0 0-.814-.135-2.035-.135-1.085 0-1.9.135-1.9.135-1.085.136-1.492.679-1.763 1.629l-.814 2.442c-.136.407-.407.678-.95.678 0 0-1.221.136-2.578.136-1.493 0-2.035-.136-2.035-.136-.679-.27-1.086-.542-.95-1.085 0 0 1.22-8.413 2.306-14.79a194.303 194.303 0 0 1 2.443-11.94c.135-.95.95-1.628 1.9-1.628 0 0 2.306-.136 4.613-.136 2.306 0 4.748.136 4.748.136.95 0 1.765.678 1.9 1.628-.136 0 .95 5.02 2.171 11.94zm-6.784 3.392c0-1.22-.95-2.17-2.171-2.17-1.221 0-2.171.95-2.171 2.17 0 1.221.95 2.171 2.17 2.171 1.222 0 2.172-.95 2.172-2.17zm20.488 27.951c.543.543 1.357.815 2.443.815 4.206 0 5.156-.95 5.156-1.629 0-.814-.814-.95-1.629-.95-.678-.135-1.356-.27-1.356-.814 0-.814 1.22-.814 2.442-.814 1.357 0 2.85-.135 2.85-1.085 0-.543-.543-.678-1.086-.814-.543-.136-1.086-.272-1.086-.814 0-.814 1.357-.95 2.986-1.222 1.763-.27 3.934-.542 3.934-1.9 0-.27-.135-.542-.271-.678-.678-.678-2.442-.814-5.02-.814-3.935 0-5.156 1.764-7.327 4.885-.136.136-.272.407-.407.543-1.086 1.628-1.9 3.256-2.036 4.206 0 .136 0 .678.407 1.085zm1.357-9.09c0-.95-.678-1.629-1.764-1.629-1.357 0-2.85 1.222-3.935 2.171-.678.543-1.085.95-1.356.95-.407 0-.543-.407-.679-.95-.271-.814-.678-1.9-2.306-1.9-.543 0-1.086.272-1.357.543a2.292 2.292 0 0 0-.407 1.357c0 .543.27 1.357.542 2.171.272.679.407 1.222.407 1.493 0 .543-.814 1.221-1.628 1.9-1.085.95-2.17 1.9-2.17 2.849 0 .407.135.814.27.95.272.271.679.407 1.086.407.95 0 2.171-.814 3.12-1.493.68-.543 1.358-.95 1.765-.95.407 0 .678.407.814.95.407.679.678 1.493 1.764 1.493.542 0 .95-.136 1.22-.543.272-.271.408-.678.408-1.085 0-.543-.271-1.222-.543-1.764-.135-.407-.271-.814-.271-1.086 0-.407.814-1.085 1.764-1.764 1.492-1.492 3.256-2.85 3.256-4.07zm-16.553-1.357c-1.629 0-2.443 1.085-2.578 3.663-.272 3.257-1.086 4.885-2.714 4.885-1.221 0-1.9-.814-1.9-2.442 0-1.086 0-1.9.136-2.443 0-.407.136-.814.136-1.22 0-1.63-.815-2.443-2.443-2.443-1.628 0-2.442 1.085-2.442 3.12 0 5.835 2.985 8.549 5.97 8.549 1.628 0 3.935-.679 5.97-3.664 1.357-1.9 2.035-4.206 2.035-5.563.136-1.492-.814-2.442-2.17-2.442zm-15.061 7.87c-.815-.136-1.493-.136-1.9-.407-.814-.679-.814-3.664-.814-5.428 0-1.764-.95-2.714-2.578-2.714s-2.714.95-2.714 2.443c0 2.713.814 6.241 1.9 8.14.814 1.358 2.442 1.358 4.342 1.358h.135c1.493 0 3.392-.272 4.07-1.086.272-.271.408-.678.272-.95-.136-1.085-1.492-1.22-2.713-1.357zm-14.112-.407c0-.543.814-.679 1.628-.815.95-.135 1.9-.271 1.9-1.085-.136-.95-1.492-1.086-2.714-1.221-1.085-.136-2.035-.272-2.035-.814 0-.679 1.086-.679 2.307-.814 1.492-.136 3.12-.272 3.12-1.493 0-1.085-2.578-1.9-5.563-1.9-2.17 0-3.392.272-4.07.95-.407.407-.543.95-.543 1.628.136 2.578 1.9 6.378 3.528 8.006.95.95 2.035 1.085 3.935 1.085s3.392-.407 3.935-.95c.135-.135.271-.407.271-.678 0-1.085-1.764-1.221-3.392-1.357-1.221.136-2.307.136-2.307-.543zM16.961 68.25c6.648 0 9.769 3.799 9.905 7.327 0 1.356-.407 2.442-1.221 3.392-.815.95-2.036 1.357-3.393 1.357-1.9 0-3.256-.95-5.97-3.935-1.357-1.493-2.985-4.207-2.985-5.428 0-.814.136-1.492.679-1.9.407-.542 1.356-.813 2.985-.813zm2.17 5.156c0 .678.272 1.492.815 2.17.271.408 1.085 1.222 1.9 1.222.542 0 .95-.407.95-1.086 0-1.356-1.222-3.256-2.85-3.256-.543 0-.814.407-.814.95z"/></defs></svg>