<svg xmlns="http://www.w3.org/2000/svg" width="531" height="75" viewBox="0 0 531 75"><path fill="none" d="M5.8 6.094h518.699v63.397H5.8z"/><path d="M93.333 64.877c12.264 0 19.022-9.718 19.022-27.266 0-17.332-6.759-27.266-19.022-27.266-12.254 0-19.022 9.934-19.022 26.847 0 17.967 6.552 27.685 19.022 27.685m0-58.548c17.122 0 28.318 12.686 28.318 31.282 0 18.604-11.415 31.505-28.318 31.505-16.699 0-28.324-13.327-28.324-31.505 0-18.176 11.625-31.282 28.324-31.282m138.084 30.443c0-16.493-7.608-25.798-22.401-25.798-6.463 0-9.047.426-9.047.426s.565 1.475.54 3.839c-.057 5.27-.162 14.93-.162 22.379 0 8.135.182 16.829.306 21.863.066 2.688-.554 4.341-.554 4.341s2.454.426 7.856.426c15.638 0 23.462-9.73 23.462-27.476m9.092-.215c0 19.441-10.992 31.492-29.809 31.492h-19.017s.423-19.232.423-30.431c0-11.002-.423-30.234-.423-30.234h21.771c17.756 0 27.055 9.94 27.055 29.173m184.644 28.32c12.26 0 19.022-9.718 19.022-27.266 0-17.332-6.763-27.266-19.022-27.266-12.267 0-19.028 9.934-19.028 26.847 0 17.967 6.546 27.685 19.028 27.685m0-58.548c17.109 0 28.314 12.686 28.314 31.282 0 18.604-11.415 31.505-28.314 31.505-16.709 0-28.334-13.327-28.334-31.505 0-18.176 11.625-31.282 28.334-31.282M11.507 46.7c0 14.599.633 21.355.633 21.355H5.8s.842-24.527.842-47.985c0-4.018-.216-12.687-.216-12.687h4.452s16.9 23.974 28.146 39.57c1.271 1.755 2.873 4.64 4.03 6.839 0 0-.474-4.138-.474-7.888V28.739c0-15.571-.849-21.355-.849-21.355h6.333s-.839 22.194-.839 47.985c0 2.542.207 12.687.207 12.687h-4.43S26.417 44.419 15.05 28.651c-1.745-2.415-2.781-4.094-3.944-6.413 0 0 .4 5.161.4 7.881V46.7zm257.322 18.177c6.858-.184 12.127-6.107 11.11-12.647-.802-5.192-4.735-8.307-11.313-12.082-8.425-4.817-13.427-8.345-14.281-16.41-1.067-10.049 7.341-17.198 17.446-17.618 5.707-.241 10.83 1.366 12.896 2.009v6.438s-4.837-4.64-12.47-4.64c-5.311 0-11.109 3.375-11.109 9.362 0 5.319 4.185 7.875 11.535 12.19 9.807 5.777 14.739 10.417 14.739 19.111 0 10.779-8.828 18.521-19.392 18.521-5.711 0-11.101-1.221-12.896-2.021v-7.073c.001-.001 5.076 5.108 13.735 4.86m66.798-57.493v5.727s-4.442-1.48-11.618-1.48h-3.979s.127 1.602.102 3.87c0 0-.146 10.843-.146 13.868 0 16.912.845 38.681.845 38.681h-9.508s.852-21.769.852-38.681c0-3.025-.152-13.868-.152-13.868-.038-2.281.102-3.87.102-3.87h-3.966c-7.194 0-11.631 1.48-11.631 1.48V7.384h39.099zM524.296 68.03h-8.962s-.502-22.138-1.36-37.709c-.089-1.855-.082-4.214-.082-6.762 0 0-.94 3.229-2.352 6.553l-16.633 39.379s-9.299-21.272-16.646-37.244c-1.106-2.402-2.549-6.609-3.534-8.688.134 3.323-.083 6.87-.279 9.559-1.119 15.635-1.424 34.912-1.424 34.912h-5.835l3.75-60.659h5.212s11.192 25.194 18.368 40.606c.908 1.926 2.021 4.163 2.466 6.203a64.15 64.15 0 0 1 2.225-6.133c6.629-15.609 16.753-40.677 16.753-40.677h5.212l3.121 60.66zM384.49 21.544c0 8.034-5.06 13.531-13.957 15.857 5.72 10.57 17.338 30.647 17.338 30.647h-9.508s-5.065-10.354-18.178-33.393h1.055c9.725 0 14.797-4.017 14.797-12.051 0-6.979-4.233-11.414-12.261-11.414-2.319 0-5.961.082-5.961.082s.502 1.379.502 5.263v31.219c0 13.531.636 20.294.636 20.294h-9.089s.642-23.885.642-36.348c0-8.67-.642-24.317-.642-24.317h17.923c10.792.001 16.703 5.079 16.703 14.161m-211.269 0c0 8.034-5.075 13.531-13.954 15.857 5.708 10.57 17.332 30.647 17.332 30.647h-9.508s-5.075-10.354-18.177-33.393h1.061c9.715 0 14.787-4.017 14.787-12.051 0-6.979-4.224-11.414-12.257-11.414-2.323 0-5.962.082-5.962.082s.509 1.379.509 5.263v31.219c0 13.531.632 20.294.632 20.294h-9.092s.636-23.885.636-36.348c0-8.67-.636-24.317-.636-24.317h17.93c10.785.001 16.699 5.079 16.699 14.161"/></svg>