<svg width="439" height="126" viewBox="0 0 439 126" xmlns="http://www.w3.org/2000/svg" xmlns:xlink="http://www.w3.org/1999/xlink"><title>slack_cmyk</title><defs><path id="a" d="M.364 121.94h93.304V.038H.364V121.94z"/></defs><g fill="none" fill-rule="evenodd"><g transform="translate(14 4)"><mask id="b" fill="#fff"><use xlink:href="#a"/></mask><path d="M65.092 7.548c-1.854-5.707-7.983-8.83-13.689-6.975-5.707 1.854-8.83 7.983-6.975 13.689l28.092 86.432c1.929 5.331 7.688 8.327 13.216 6.736 5.766-1.66 9.281-7.784 7.441-13.447L65.092 7.548" fill="#DFA22F" mask="url(#b)"/><path d="M21.564 21.691c-1.855-5.706-7.984-8.829-13.69-6.975-5.707 1.854-8.83 7.983-6.975 13.69l28.092 86.432c1.929 5.331 7.688 8.327 13.216 6.735 5.766-1.659 9.281-7.783 7.441-13.447L21.564 21.691" fill="#3CB187" mask="url(#b)"/></g><path d="M114.452 83.131c5.707-1.854 8.829-7.983 6.975-13.69-1.854-5.706-7.983-8.829-13.689-6.975L21.306 90.559c-5.331 1.928-8.327 7.687-6.736 13.215 1.66 5.766 7.784 9.281 13.447 7.441l86.435-28.084" fill="#CE1E5B"/><path d="M39.32 107.543l20.658-6.712-6.713-20.66-20.659 6.715 6.714 20.657" fill="#392538"/><path d="M82.849 93.399l20.658-6.712-6.714-20.664-20.659 6.715 6.715 20.661" fill="#BB242A"/><path d="M100.309 39.602c5.706-1.854 8.829-7.983 6.975-13.69-1.854-5.706-7.983-8.829-13.69-6.975L7.162 47.03C1.831 48.958-1.165 54.717.427 60.245c1.659 5.766 7.783 9.281 13.447 7.441l86.435-28.084" fill="#72C5CD"/><path d="M25.173 64.015l20.661-6.713-6.712-20.66-20.664 6.716 6.715 20.657" fill="#238C73"/><path d="M68.701 49.872a160137.8 160137.8 0 0 0 20.662-6.714l-6.714-20.664-20.663 6.716 6.715 20.662" fill="#62803A"/><path d="M202.125 34.299c3.823 1.668 4.101 2.919 1.112 8.618-3.057 5.838-3.822 6.185-7.575 4.656-4.726-2.015-10.773-3.544-14.665-3.544-6.393 0-10.633 2.293-10.633 5.768 0 11.468 36.627 5.282 36.627 29.746 0 12.302-10.565 20.503-26.41 20.503-8.34 0-18.627-2.78-25.716-6.394-3.544-1.807-3.752-2.85-.695-8.688 2.642-5.143 3.475-5.699 7.298-4.1 6.046 2.641 13.692 4.656 18.835 4.656 5.838 0 9.73-2.363 9.73-5.838 0-11.12-37.252-5.838-37.252-29.537 0-12.58 10.494-20.99 26.201-20.99 7.367 0 16.68 2.224 23.143 5.144m29.541 62.133c0 1.39-1.46 2.849-3.544 2.849h-9.592c-2.085 0-3.545-1.459-3.545-2.849V5.247c0-4.517 1.252-4.934 8.341-4.934 8.062 0 8.34.556 8.34 4.934m23.977 74.018c0 4.657 3.962 7.784 9.939 7.784 7.228 0 13.76-3.475 17.583-9.382v-6.116c-3.823-1.46-8.479-2.294-12.649-2.294-8.896 0-14.873 4.24-14.873 10.008zm44.202-22.726v39.267c0 2.085-1.459 3.545-3.544 3.545h-9.453c-2.154 0-3.683-1.599-3.544-3.753l.139-4.24c-5.143 5.699-12.51 8.688-19.877 8.688-14.317 0-23.908-8.271-23.908-20.642 0-13.135 10.842-21.962 27.105-22.031 6.186 0 11.815 1.112 16.402 2.988v-4.517c0-7.228-5.699-11.537-15.359-11.537-4.518 0-10.078 1.807-14.526 4.378-3.406 1.946-4.24 1.807-7.923-3.683-3.614-5.491-3.475-6.533 0-8.757 6.672-4.31 15.707-7.09 24.047-7.09 18.695 0 30.441 10.148 30.441 27.384zM364.901 34.438c3.474 2.015 3.614 3.127-.209 9.035-3.613 5.56-4.239 5.907-8.061 3.961-2.92-1.529-7.576-2.849-11.399-2.849-12.023 0-20.016 7.923-20.016 19.877 0 12.44 7.993 20.78 20.016 20.78 4.171 0 9.383-1.598 12.788-3.475 3.475-2.015 4.24-1.876 7.923 3.475 3.336 5.004 3.267 6.186.278 8.271-5.351 3.683-13.83 6.533-21.266 6.533-22.24 0-37.114-14.248-37.114-35.584 0-21.198 14.874-35.307 37.252-35.307 6.811 0 14.804 2.294 19.808 5.283m72.56 56.225c2.78 3.545 1.668 4.796-5.282 7.298-7.089 2.571-8.062 2.432-10.563-.834l-19.878-26.549-8.896 8.618v17.236c0 1.39-1.459 2.849-3.544 2.849h-9.591c-2.085 0-3.545-1.459-3.545-2.849V5.247c0-4.517 1.251-4.934 8.34-4.934 8.062 0 8.34.556 8.34 4.934v51.848l27.244-26.132c2.989-2.85 4.657-2.641 10.008.903 5.908 3.823 6.325 4.865 3.475 7.645l-20.294 19.738 24.186 31.414" fill="#373D40"/></g></svg>