<svg width="24" height="25" viewBox="0 0 24 25" xmlns="http://www.w3.org/2000/svg" xmlns:xlink="http://www.w3.org/1999/xlink" xmlns:figma="http://www.figma.com/figma/ns"><title>Group</title><desc>Created using Figma</desc><g figma:type="canvas"><g figma:type="frame" fill="#FFC78C" transform="translate(-1)"><use xlink:href="#a" transform="matrix(.5883 .80864 -.7912 .61155 20.124 0)" figma:type="vector"/><use xlink:href="#b" transform="matrix(.5883 .80864 -.7912 .61155 12.285 4)" figma:type="vector"/></g></g><defs><path id="a" d="M9.03 7.6L6.423 5.24c-.572-.52-.715-1.322-.358-1.96L7.84.176c.072-.118-.095-.236-.19-.142L5.232 2.667c-.488.53-1.321.649-1.988.271l-3.071-1.7c-.12-.07-.238.083-.131.177l2.607 2.361c.571.52.714 1.322.357 1.96L1.232 8.828c-.071.118.095.236.19.142L3.84 6.338c.488-.532 1.322-.65 1.988-.272L8.9 7.778c.119.059.238-.095.13-.177z"/><path id="b" d="M15.57 13.107l-4.495-4.071c-.985-.896-1.232-2.28-.616-3.38L13.518.304c.123-.203-.164-.407-.329-.244L9.022 4.6c-.841.915-2.278 1.119-3.428.467L.298 2.136c-.205-.123-.41.142-.226.305l4.496 4.07c.985.896 1.231 2.28.616 3.38l-3.06 5.332c-.122.204.165.407.33.245l4.166-4.54c.842-.915 2.28-1.119 3.429-.468l5.296 2.952c.205.102.41-.163.226-.306z"/></defs></svg>