<svg width="190" height="38" viewBox="0 0 190 38" xmlns="http://www.w3.org/2000/svg"><title>Group</title><g fill="none" fill-rule="evenodd"><path d="M42.8 23.4l-2.2-.2c-1.7-.1-2.3-.8-2.3-2 0-1.4 1-2.2 3-2.2 1.3-.1 2.6.3 3.6 1.1l1.3-1.3c-1.4-1-3.1-1.5-4.8-1.4-2.9 0-4.9 1.5-4.9 3.9 0 2.2 1.4 3.4 4 3.6l2.2.2c1.6.1 2.2.8 2.2 2 0 1.6-1.4 2.4-3.6 2.4-1.6.1-3.1-.5-4.2-1.6l-1.3 1.3c1.5 1.4 3.5 2 5.5 1.9 3.2 0 5.5-1.5 5.5-4.1 0-2.6-1.6-3.4-4-3.6zm16.8-6.1c-2.2 0-3.5.4-4.7 1.9l1.3 1.3c.8-1.1 2.1-1.7 3.4-1.5 2.5 0 3.4 1 3.4 2.9v1.3h-4c-3 0-4.6 1.5-4.6 3.9 0 1 .3 2 1 2.7.8.9 1.9 1.2 3.8 1.2 1.4.1 2.9-.4 3.9-1.4v1.3h2v-9.1c-.1-2.9-1.9-4.5-5.5-4.5zm3.4 8.9c.1.8-.1 1.7-.7 2.3-.8.7-1.9 1-3 .9-2.1 0-3.1-.7-3.1-2.3 0-1.6 1-2.4 3-2.4H63v1.5zm9.7-7.1c1.2 0 2.4.5 3.1 1.5l1.3-1.3c-1.1-1.3-2.7-2.1-4.4-2-3.4 0-5.9 2.3-5.9 6.9 0 4.6 2.6 6.9 5.9 6.9 1.7.1 3.3-.7 4.4-2l-1.3-1.3c-.7 1-1.9 1.5-3.1 1.5-1.2.1-2.4-.5-3.1-1.5-.7-1.1-1-2.3-.9-3.6-.1-1.3.2-2.5.9-3.6.7-1 1.9-1.6 3.1-1.5zm16.8-1.6h-2.4L81 23.4V11.5h-2v19.4h2V26l2.4-2.4 4.5 7.3h2.4l-5.6-8.6 4.8-4.8zm9.2-.7c-1.6-.1-3.2.5-4.3 1.7-1.3 1.3-1.6 2.9-1.6 5.4 0 2.5.3 4.1 1.6 5.4 1.1 1.1 2.7 1.7 4.3 1.7 1.6.1 3.2-.5 4.3-1.7 1.3-1.3 1.6-2.9 1.6-5.4 0-2.5-.3-4.1-1.6-5.4-1.1-1.2-2.7-1.8-4.3-1.7zm1.7 10.5c-.9.8-2.3.8-3.2 0-.7-.7-.8-2-.8-3.4s.1-2.7.8-3.4c.9-.8 2.3-.8 3.2 0 .7.7.8 1.9.8 3.4s-.1 2.7-.8 3.4zM114 16.9l-2.8 8.6-2.8-8.6h-3.7l5.2 14h2.7l5.1-14H114zm9.6-.1c-3.6 0-6.1 2.6-6.1 7.1 0 5.7 3.2 7.2 6.5 7.2 2 .1 4-.7 5.3-2.2l-2.1-2.1c-.8.9-2 1.4-3.2 1.3-1.6.1-3-1.1-3.1-2.7V25h8.7v-1.6c.1-3.8-2.1-6.6-6-6.6zm-2.7 5.8c0-.5.1-1 .3-1.5.4-.9 1.3-1.4 2.3-1.4 1-.1 1.9.5 2.3 1.4.2.5.3 1 .3 1.5h-5.2zm13.9-4.3V17h-3.4v14h3.5v-8.4c-.1-1.3.8-2.4 2.1-2.6h.2c.7 0 1.4.3 1.8.8l2.6-2.6c-.8-.9-2.1-1.4-3.3-1.3-1.3-.1-2.6.4-3.5 1.4zm7.9-2.8v15.4h3.5v-11h2.6v-2.7h-2.6v-1.5c-.1-.6.3-1.2.9-1.3h1.6v-3h-2c-2.1-.1-3.9 1.6-4 3.8v.3zm20.4 1.3c-1.6-.1-3.2.5-4.3 1.7-1.3 1.3-1.6 2.9-1.6 5.4 0 2.5.3 4.1 1.6 5.4 1.1 1.1 2.7 1.7 4.3 1.7 1.6.1 3.2-.5 4.3-1.7 1.3-1.3 1.6-2.9 1.6-5.4 0-2.5-.3-4.1-1.6-5.4-1.1-1.2-2.7-1.8-4.3-1.7zm1.7 10.5c-.9.8-2.3.8-3.2 0-.7-.7-.8-2-.8-3.4s.1-2.7.8-3.4c.9-.8 2.3-.8 3.2 0 .7.7.8 1.9.8 3.4s-.1 2.7-.8 3.4zm20.7-10.4l-2.3 8.6-2.9-8.6h-2.5l-2.8 8.7-2.3-8.6H169l4.3 14h2.9l2.9-8.8L182 31h3l4.3-14-3.8-.1zm-31.6 9.8V11.5h-3.5v15.4c-.1 2.1 1.5 3.9 3.6 4h2.5v-3h-1.3c-.6.1-1.1-.2-1.3-.8v-.4zM54 17.8h-3.7v-4.4h-2v13.9c0 2 1.1 3.6 3.4 3.6h1.4v-1.7h-1c-1.3 0-1.8-.7-1.8-2v-7.7h1.9l1.8-1.7z" fill="#222426"/><path fill="#BCBBBB" d="M26.5 34.2v-9.9h3.3v13.2H0V24.3h3.3v9.9z"/><path d="M7 23.4l16.2 3.4.7-3.2-16.2-3.4-.7 3.2zm2.1-7.8l15 7 1.4-3-15-7-1.4 3zm4.2-7.4L26 18.8l2.1-2.5L15.4 5.7l-2.1 2.5zM21.5.4l-2.7 2 9.9 13.3 2.7-2L21.5.4zM6.6 30.9h16.6v-3.3H6.6v3.3z" fill="#F48024"/></g></svg>