<svg version="1" xmlns="http://www.w3.org/2000/svg" width="2073.333" height="645.333" viewBox="0 0 1555.000000 484.000000"><g fill="#EE3223"><path d="M1260 16.5c0 .3 20.3 30.2 45.1 66.5 24.8 36.2 45.1 66.2 45 66.7 0 .4-14.1 21.5-31.3 46.8-17.2 25.3-38.4 56.4-47.1 69.2l-15.8 23.3h100.6l20-34.1c19.3-32.8 20.1-33.9 21.5-31.8.8 1.2 10.1 16.5 20.6 33.8l19.1 31.6 50.1.3c27.6.1 50.2 0 50.2-.3 0-.2-21.2-31.6-47-69.6l-47.1-69.2 2.7-4.1c1.5-2.2 20.7-30.4 42.7-62.6 22-32.2 41.3-60.4 42.9-62.8l2.9-4.2h-100.6l-17.8 30.9c-9.8 17-18.4 31.7-19 32.6-1.1 1.3-4.1-3.4-19.4-30.7l-18.1-32.3-50.1-.3c-27.6-.1-50.1 0-50.1.3zM16 73.5V130h124v330h137V130h124V17H16v56.5zM422 238.5V460h373V346H558l.2-27.3.3-27.2 118.3-.3L795 291V186l-118.2-.2-118.3-.3v-55l118.3-.3L795 130V17H422v221.5zM818 238.5v221.6l114.3-.4c99.7-.3 115.8-.6 126.6-2 19.3-2.6 36.2-6.4 52.4-11.7 73.7-24.3 116.4-79.1 128.4-165 2.2-15.8 2.5-65.9.5-82-6.7-53.7-25.4-97.6-54.7-127.9-27.2-28.2-59.6-44.2-104.5-51.8-9.6-1.6-21.8-1.7-136.7-2L818 16.9v221.6zm205.5-106.1c24.4 4.5 41.2 13 55.7 28.5 11.8 12.5 19.5 28.2 23.9 49.3 2.6 12.1 3 37 1 50.3-6 39.4-23.7 65.7-52.3 77.7-16.2 6.8-18.7 7.1-59.5 7.6l-37.3.4V129.7l29.8.6c21 .4 32.3 1 38.7 2.1z"/></g></svg>