<svg width="586" height="140" viewBox="0 0 586 140" xmlns="http://www.w3.org/2000/svg" xmlns:xlink="http://www.w3.org/1999/xlink"><title>Slice 1</title><defs><path id="a" d="M.06.374v82.371h343.823V.374H.06z"/></defs><g fill="none" fill-rule="evenodd"><path d="M515.815 47.071c3.27 0 5.962-1.697 6.326-3.897l3.232-36.517c0-3.61-4.228-6.575-9.548-6.575-5.31 0-9.532 2.965-9.532 6.575l3.225 36.517c.356 2.2 3.051 3.897 6.309 3.897h-.012M496.077 58.48c1.641-2.829 1.514-6.011-.213-7.422l-30.016-21.052c-3.118-1.806-7.8.368-10.456 4.973-2.664 4.599-2.192 9.739.925 11.542l33.232 15.475c2.081.774 4.909-.708 6.54-3.536l-.012.02m39.49-.02c1.637 2.828 4.456 4.31 6.537 3.536l33.237-15.475c3.13-1.803 3.579-6.943.933-11.542-2.668-4.605-7.355-6.779-10.467-4.973L535.79 51.058c-1.717 1.411-1.844 4.593-.211 7.422l-.012-.02m-19.752 34.224c3.27 0 5.962 1.689 6.326 3.887l3.232 36.515c0 3.616-4.228 6.575-9.548 6.575-5.31 0-9.532-2.959-9.532-6.575l3.225-36.515c.356-2.198 3.051-3.887 6.309-3.887h-.012m19.752-11.404c1.637-2.833 4.456-4.305 6.537-3.522l33.237 15.457c3.13 1.811 3.579 6.953.933 11.557-2.668 4.59-7.355 6.771-10.467 4.971L535.79 88.708c-1.717-1.428-1.844-4.608-.211-7.434l-.012.006m-39.49-.006c1.641 2.826 1.514 6.006-.213 7.434l-30.016 21.035c-3.118 1.8-7.8-.381-10.456-4.971-2.664-4.604-2.192-9.746.925-11.557l33.232-15.457c2.081-.783 4.909.689 6.542 3.522l-.014-.006" fill="#F4B53C"/><g transform="translate(0 29)"><mask id="b" fill="#fff"><use xlink:href="#a"/></mask><path d="M326.486 59.636c0 1.123-.099 2.281-.408 3.294-1.273 4.216-5.64 7.779-11.1 7.779-4.553 0-8.169-2.583-8.169-8.048 0-8.359 9.202-10.67 19.677-10.616v7.591zm16.434-14.564c0-13.791-5.89-25.921-25.794-25.921-10.22 0-18.332 2.871-22.759 5.427l3.241 11.083c4.044-2.552 10.494-4.665 16.594-4.665 10.097-.026 11.753 5.714 11.753 9.395v.871c-22.014-.033-35.923 7.585-35.923 23.115 0 9.482 7.084 18.368 19.401 18.368 7.572 0 13.911-3.023 17.702-7.866h.375s2.514 10.517 16.373 6.495c-.729-4.377-.963-9.043-.963-14.664V45.072zM0 .374s14.381 58.932 16.676 68.498c2.679 11.165 7.506 15.273 21.423 12.502l8.981-36.54c2.275-9.076 3.803-15.545 5.266-24.777h.257c1.028 9.323 2.493 15.73 4.366 24.81 0 0 3.655 16.586 5.527 25.297 1.877 8.71 7.1 14.198 20.732 11.21l21.398-81H87.35l-7.306 35.019c-1.964 10.193-3.745 18.159-5.119 27.484h-.245c-1.25-9.235-2.838-16.882-4.835-26.813L62.238.374H44.239l-8.136 34.791c-2.305 10.572-4.462 19.108-5.833 28.117h-.247c-1.404-8.484-3.275-19.212-5.3-29.446 0 0-4.834-24.885-6.53-33.462H0" fill="#0072AD" mask="url(#b)"/></g><path d="M137.291 88.636c0 1.123-.097 2.281-.408 3.294-1.273 4.216-5.64 7.779-11.1 7.779-4.552 0-8.168-2.583-8.168-8.048 0-8.359 9.201-10.67 19.676-10.616v7.591zm16.431-14.564c0-13.791-5.889-25.921-25.79-25.921-10.222 0-18.336 2.871-22.759 5.427l3.237 11.083c4.048-2.552 10.492-4.665 16.595-4.665 10.104-.026 11.757 5.714 11.757 9.395v.871c-22.017-.033-35.924 7.585-35.924 23.115 0 9.482 7.08 18.368 19.39 18.368 7.578 0 13.915-3.023 17.713-7.866h.372s2.516 10.517 16.373 6.495c-.728-4.377-.964-9.043-.964-14.664V74.072zm27.42 19.104V29.374h-16.448v81h16.448V93.176m215.207-63.802v59.754c0 8.238 1.551 14.01 4.868 17.536 2.898 3.084 7.671 5.081 13.391 5.081 4.863 0 9.648-.923 11.903-1.763l-.212-12.853c-1.678.413-3.608.743-6.248.743-5.603 0-7.482-3.589-7.482-10.986v-22.86h14.325V48.528h-14.325V29.374h-16.22m-42.461 20.15v60.85h16.968V79.216c0-1.681.102-3.147.368-4.491 1.255-6.527 6.248-10.699 13.413-10.699 1.967 0 3.374.213 4.897.433V48.528c-1.277-.258-2.15-.377-3.739-.377-6.332 0-13.536 4.088-16.56 12.85h-.461V49.524h-14.886m-161.226 0v60.85h16.535V74.688c0-1.673.192-3.441.776-4.98 1.37-3.593 4.712-7.796 10.049-7.796 6.672 0 9.794 5.641 9.794 13.782v34.68h16.518V74.257c0-1.597.219-3.52.689-4.932 1.358-4.087 4.961-7.413 9.922-7.413 6.764 0 10.011 5.542 10.011 15.121v33.341h16.529V74.536c0-18.901-9.596-26.385-20.43-26.385-4.798 0-8.585 1.203-12.009 3.305-2.878 1.766-5.455 4.275-7.707 7.579h-.244c-2.614-6.558-8.761-10.884-16.77-10.884-10.293 0-14.917 5.216-17.722 9.641h-.245v-8.268h-15.696" fill="#0072AD"/><path d="M581.928 109.382h.31c.363 0 .656-.121.656-.414 0-.259-.19-.43-.604-.43-.172 0-.293.016-.362.034v.81zm-.017 1.586h-.655v-2.81c.259-.052.62-.104 1.086-.104.535 0 .776.087.983.225.154.12.276.345.276.603 0 .327-.242.569-.586.672v.035c.275.086.43.31.516.69.087.43.139.603.207.689h-.707c-.086-.103-.137-.344-.223-.672-.052-.31-.225-.448-.586-.448h-.311v1.12zm.431-3.724c-1.241 0-2.173 1.017-2.173 2.258 0 1.259.932 2.259 2.207 2.259 1.242.018 2.155-1 2.155-2.259 0-1.241-.913-2.258-2.172-2.258h-.017zm.034-.569c1.621 0 2.88 1.259 2.88 2.827 0 1.604-1.259 2.846-2.897 2.846-1.621 0-2.914-1.242-2.914-2.846 0-1.568 1.293-2.827 2.914-2.827h.017z" fill="#F4B53C"/></g></svg>