<svg viewBox="0 0 237 55" xmlns="http://www.w3.org/2000/svg"><title>logotype</title><path d="M149.832 41.626c6.19-20.414 13.03-35.087 14.67-38.485a.525.525 0 0 0-.474-.75h-28.9c-.24 0-.45.165-.508.397-1.34 5.32-3.3 10.136-4.147 12.104a.522.522 0 0 0 .587.718c2.515-.515 5.045-.702 7.1-.75a.521.521 0 0 1 .51.677c-3.418 11.086-11.634 31.598-13.28 35.682a.522.522 0 0 0 .486.718h42.12a.52.52 0 0 0 .487-.334c1.397-3.63 3.116-7.76 3.84-9.482a.522.522 0 0 0-.54-.72c-7.788.847-16.057.956-21.456.906a.524.524 0 0 1-.495-.678m53.258-1.493c0-2.918 3.945-5.238 9.164-5.238 2.84 0 5.28.698 6.948 1.354.278.11.406.43.283.702-1.294 2.865-2.703 5.622-3.807 7.696a.517.517 0 0 1-.383.27c-1.087.16-2.368.27-3.822.27-4.21 0-8.382-1.832-8.382-5.054m9.425-39.94c-10.12 0-17.037 1.813-18.46 2.22a.521.521 0 0 0-.356.35c-2.84 9.217-5.267 14.557-6.313 16.668-.2.403.17.853.604.738 2.75-.726 10.074-2.428 18.237-2.428 12.035 0 16.9 3.142 16.9 7.508 0 .77-.124 1.668-.346 2.654a.523.523 0 0 1-.736.358c-2.73-1.32-8.305-3.32-16.996-3.32-13.494 0-25.94 5.108-25.94 16.24 0 6.608 6.943 13.75 24.76 13.75 11.2 0 18.498-2.166 19.73-2.56a.514.514 0 0 0 .286-.224c1.216-2 13-21.737 13-35.324 0-10.87-9.957-16.63-24.37-16.63M88.587 40.136c0-2.918 3.943-5.238 9.162-5.238 2.84 0 5.28.698 6.947 1.354.278.11.406.43.283.702-1.294 2.865-2.703 5.622-3.807 7.696a.517.517 0 0 1-.382.27c-1.087.16-2.368.27-3.822.27-4.21 0-8.38-1.832-8.38-5.054M98.01.196c-10.12 0-17.037 1.813-18.46 2.22a.521.521 0 0 0-.356.35c-2.838 9.217-5.266 14.557-6.312 16.668-.2.403.17.853.604.738 2.75-.726 10.073-2.428 18.236-2.428 12.035 0 16.9 3.142 16.9 7.508 0 .77-.124 1.668-.346 2.654a.524.524 0 0 1-.737.358c-2.732-1.32-8.306-3.32-16.997-3.32-13.494 0-25.94 5.108-25.94 16.24 0 6.608 6.943 13.75 24.76 13.75 11.2 0 18.498-2.166 19.73-2.56a.514.514 0 0 0 .286-.224c1.215-2 13-21.737 13-35.324 0-10.87-9.958-16.63-24.37-16.63M56.087 2.432a.523.523 0 0 0-.503.376c-.592 2.022-3.478 11.794-6.206 19.653-.4 1.15-.784 2.244-1.16 3.285a.519.519 0 0 1-.297.308c-2.378.94-5.72 1.684-10.258 1.684-5.59 0-7.97-1.916-7.97-5.43 0-6.046 5.338-16.166 7.18-19.072a.523.523 0 0 0-.444-.803H4.515c-.26 0-.48.193-.517.45C3.204 8.255 1.164 12.69.176 14.6c-.203.39.14.842.572.753 1.563-.32 4.683-.846 8.873-.985a.525.525 0 0 1 .504.726c-1.185 2.8-2.675 7.01-2.675 10.46 0 6.79 7.208 12.044 23.824 12.044 4.333 0 8.202-.534 11.215-1.145.456-.092.747.387.54.803C40.884 41.544 36.86 44 28.703 44 17.174 44 7.16 39.622 4.67 38.513a.522.522 0 0 0-.724.368c-.838 3.965-2.256 7.365-2.795 8.577a.521.521 0 0 0 .268.69c2.362 1.036 15.755 5.675 29.123 5.675 19.106 0 22.253-7.886 27.12-21.737C60.82 23.082 63.865 13.667 69.31 3.2a.524.524 0 0 0-.463-.768h-12.76z" fill="#533657" fill-rule="evenodd"/></svg>