<svg width="617" height="488" viewBox="0 0 617 488" xmlns="http://www.w3.org/2000/svg"><title>yala head</title><g fill="none" fill-rule="evenodd"><path d="M472.681 77.501C433.979 35.393 378.446 9 316.746 9 199.802 9 105 103.802 105 220.746c0 81.463 46.005 152.177 113.449 187.591 3.054-5.561 7.349-10.694 13.015-15.018 12.901-9.845 23.934-11.524 31.951-8.553l4.617-29.924c-24.805-53.29-20.606-90.51-14.413-110.341l1.944-33.893 76.511-39.247s.05 5.19-1.355 13.432a438.318 438.318 0 0 1 11.463-5.378c-4.248-5.97-5.916-10.489-5.916-10.489s68.63-65.525 136.415-91.425" fill="#FDFADD"/><path d="M490.662 118c-5.185 39-34.185 126-28.185 138 6 12 35.37 16.738 28.185 45.369-7.185 28.631-56.917 79.134-55.417 112.634-96 34-214.268-9.503-222.245-212.987" fill="#BAE3DC"/><path d="M261.156 227.666c26.337-20.429 54.03-36.184 81.026-48.359-4.248-5.97-5.916-10.489-5.916-10.489s69.268-66.135 137.357-91.784c-22.906-27.802-50.61-45.05-90.662-45.034-20.209.01-118.1-.942-170.307 67.058-43.629 56.827-47.644 121.697-37.814 170.4-1.815 2.066-16.411 2.786-18.676 4.721l-47.245-29.542L105 263.058l36.051 30.803c-1.126 2.395.756 1.288.95 4.341 1.907 29.902 26.282 51.934 46.444 51.934h.05c3.115-.006 6.031 1.516 7.666 4.168 9.479 15.38 20.229 29.495 31.561 42.06a50.468 50.468 0 0 1 3.742-3.153c12.901-9.845 23.934-11.525 31.951-8.553l4.617-29.924c-38.655-83.045-6.876-127.068-6.876-127.068" fill="#E7D4B8"/><path d="M420.215 228.594l.404.596c.13.215.29.532.475.888.155.34.358.735.512 1.186.341.9.7 2.011.948 3.292.26 1.28.448 2.726.546 4.29.103 1.561.12 3.24.05 4.992a73.287 73.287 0 0 1-.41 5.452c-.402 3.74-1.057 7.642-1.757 11.455l-.506 2.792-.249 1.44-.202 1.307c-.262 1.746-.46 3.493-.545 5.12-.093 1.628-.079 3.176.098 4.51.16 1.346.484 2.476.897 3.248.411.787.867 1.215 1.504 1.522.647.246 1.45.295 2.141.19a9.778 9.778 0 0 0 1.674-.417l.615-.228.074-.027a1.115 1.115 0 0 1 1.245 1.76s-.174.208-.53.59c-.38.354-.923.923-1.832 1.45a7.401 7.401 0 0 1-3.91 1.113 7.327 7.327 0 0 1-2.759-.583 8.118 8.118 0 0 1-2.539-1.76c-1.476-1.494-2.418-3.375-3.037-5.296-.632-1.938-.927-3.953-1.062-5.994-.12-2.048-.055-4.096.15-6.179.05-.52.116-1.079.183-1.57l.21-1.445c.17-1.087.335-1.994.526-2.988.356-1.948.77-3.865 1.161-5.74l1.208-5.454 1.085-5.035c.323-1.592.611-3.088.832-4.462.443-2.747.634-5.01.583-6.557-.005-.393-.042-.726-.048-1.033-.027-.274-.034-.5-.065-.714l-.127-.709a1.357 1.357 0 0 1 2.457-1.002" fill="#A399CA"/><path d="M339.542 181.848L485.878 158s-6.991 41.561-24.244 78.56c-45.02 1.727-68.906-7.754-99.853-29.689-1.921-1.361-29.866-24.945-29.613-22.605 7.02 65.04-30.394 88.518-28.164 107.202 1.715 14.366 8.85 28.446 11.876 38.357 2.067 6.768-1.194 12.701-1.194 12.701s2.893 7.279 6.027 9.855c13.99 11.5 32.739 81.133 101.894 56.168 2.852 19.76-29.017 28.756-131.155-14.869l-.006-.005c-37.91-48.927-64.8-131.062-34.118-164.734 45.942-50.42 68.308-49.302 82.16-43.074l-.866-2.49a1.165 1.165 0 0 1 .92-1.529" fill="#B2ABD3"/><path d="M339.542 181.848L485.878 158s-6.991 41.561-24.244 78.56c-45.02 1.727-68.906-7.754-99.853-29.689-1.921-1.361-29.866-24.945-29.613-22.605 7.02 65.04-30.394 88.518-28.164 107.202 1.715 14.366 8.85 28.446 11.876 38.357 2.067 6.768-1.194 12.701-1.194 12.701s2.893 7.279 6.027 9.855c13.99 11.5 32.739 81.133 101.894 56.168 2.852 19.76-29.017 28.756-131.155-14.869l-.006-.005c-37.91-48.927-64.8-131.062-34.118-164.734 45.942-50.42 68.308-49.302 82.16-43.074l-.866-2.49a1.165 1.165 0 0 1 .92-1.529z"/><path d="M333.026 344.94s-.374-.137-1.125-.32c-.739-.164-1.818-.412-3.134-.452-1.31-.05-2.862.01-4.447.42-1.577.417-3.189 1.124-4.563 2.173-.689.52-1.289 1.145-1.855 1.772-.26.335-.527.659-.769.995-.224.352-.464.684-.667 1.033-.19.358-.398.697-.562 1.05l-.449 1.05c-.246.706-.502 1.357-.654 1.994l-.238.902c-.05.293-.1.572-.146.834-.095.52-.168.976-.2 1.359l-.134 1.188a1.211 1.211 0 0 1-2.25.478l-.559-.965s-.077-.133-.188-.38c-.096-.245-.29-.62-.428-1.083a9.91 9.91 0 0 1-.45-1.717c-.069-.337-.108-.69-.16-1.072-.032-.381-.03-.777-.045-1.201-.026-.84.1-1.76.27-2.733.1-.491.256-.978.396-1.491.154-.514.392-1.013.606-1.535a14.425 14.425 0 0 1 1.897-3.036 15.068 15.068 0 0 1 2.807-2.62 14.433 14.433 0 0 1 3.417-1.777c.591-.211 1.186-.4 1.784-.503a11.816 11.816 0 0 1 1.753-.263c1.146-.082 2.241-.037 3.237.136.998.168 1.904.435 2.701.76 1.6.644 2.764 1.517 3.51 2.225.381.326.645.674.832.88.183.22.284.368.275.36a.803.803 0 0 1-.462 1.539" fill="#AEDDD4"/><path d="M323.751 347.597l.493.16c.183.066.32.088.651.227l1.081.454c1.454.661 3.417 1.774 5.6 3.396 2.161 1.635 4.584 3.72 7.117 6.218 2.534 2.501 5.255 5.352 8.131 8.455 2.863 3.111 5.925 6.44 9.23 9.78 3.267 3.37 6.793 6.756 10.628 9.801 3.83 3.022 7.924 5.808 12.303 7.586a31.253 31.253 0 0 0 6.67 1.95c2.25.416 4.531.512 6.815.34a30.319 30.319 0 0 0 6.838-1.317 38.524 38.524 0 0 0 3.367-1.235c.55-.246 1.122-.474 1.65-.728.448-.213.898-.446 1.374-.717 1.855-1.053 3.523-2.41 4.692-3.769 1.182-1.374 1.722-2.652 1.768-3.55.003-.06.018-.12.013-.178l.002-.088.002-.044.002-.023-.007-.113-.045-.983-.073-2.089a89.96 89.96 0 0 1-.003-4.122c.08-2.703.266-5.337.561-7.888.602-5.1 1.61-9.875 2.954-14.182 1.36-4.297 2.96-8.163 4.802-11.394 1.835-3.234 3.766-5.89 5.63-7.852 1.837-1.982 3.497-3.328 4.691-4.15.572-.437 1.068-.705 1.377-.91l.48-.299a2.201 2.201 0 0 1 2.745 3.4l-.097.1s-.457.47-1.262 1.371c-.807.9-1.89 2.316-3.078 4.226-1.163 1.928-2.396 4.395-3.477 7.376-1.04 3-2.063 6.46-2.7 10.375a88.395 88.395 0 0 0-1.253 12.747 88.655 88.655 0 0 0 .061 6.996c.06 1.182.123 2.404.226 3.58l.173 1.811.105.98.055.717c.023.27.02.54.023.811.01 2.175-.487 4.3-1.253 6.152-.764 1.871-1.79 3.483-2.91 4.925-2.272 2.86-4.954 5.007-7.857 6.788-.718.433-1.49.862-2.29 1.264-.718.368-1.44.658-2.163.99a50.915 50.915 0 0 1-4.499 1.693c-3.08.994-6.349 1.684-9.686 1.917-6.683.541-13.516-.833-19.309-3.445-5.845-2.575-10.816-6.087-15.108-9.785-4.274-3.73-7.944-7.623-11.248-11.358-3.262-3.776-6.146-7.41-8.786-10.71-2.624-3.313-4.955-6.336-7.096-8.863-2.126-2.545-4.004-4.638-5.62-6.17-1.61-1.529-2.905-2.546-3.794-3.106a11.177 11.177 0 0 1-.486-.316c-.117-.092-.384-.205-.512-.278l-.463-.235-.005-.003a3.63 3.63 0 0 1 2.77-6.686" fill="#AEDDD4"/><path d="M256.094 220.41C214.869 75.116 143 100.001 143 100.001L181.511 61s83.978-.007 119.472 129.635l-44.889 29.775z" fill="#F23580"/><path d="M332.438 172s.753 74.805-80.438 107.725l3.927-68.477L332.438 172z" fill="#953782"/><path d="M332.438 172s.753 74.805-80.438 107.725l3.927-68.477L332.438 172z" stroke="#82226F"/><path d="M433.409 108.915C385.497 3.64 301 9.335 301 9.335s18.835-5.625 66.878 6.22c28.737 7.084 88.537 29.02 119.245 79.798l-53.714 13.562z" fill="#F23580"/><path d="M220.011 283.416c0 24.53-16.344 44.416-36.506 44.416-20.161 0-36.505-19.886-36.505-44.416 0-24.53 16.344-44.416 36.505-44.416 20.162 0 36.506 19.886 36.506 44.416" fill="#AEDDD4"/><path d="M183.578 237s-13.083 53.785 10.785 89.625c26.56-19.265 41.523-61.68-10.785-89.625" fill="#B2ABD3"/><path d="M196.268 281.587c1.763 9.311-2.6 17.955-9.746 19.31-7.145 1.352-14.367-5.099-16.13-14.409-1.764-9.31 2.6-17.956 9.745-19.309 7.146-1.353 14.368 5.097 16.131 14.408" fill="#F23580"/><path d="M44.984 180.499c0 12.426-8.279 22.499-18.492 22.499C16.279 202.998 8 192.925 8 180.499 8 168.073 16.279 158 26.492 158c10.213 0 18.492 10.073 18.492 22.499" fill="#AEDDD4"/><path d="M480.39 271.535s58.842-35.267 74.384-83.512c8.146-25.291-80.857 6.8-121.94 16.366C355.722 222.344 336 168.783 336 168.783s149.518-142.76 225.146-90.135c101.432 70.58 9.774 166.343-74.518 199.178" fill="#953782"/><path d="M480.39 271.535s58.842-35.267 74.384-83.512c8.146-25.291-80.857 6.8-121.94 16.366C355.722 222.344 336 168.783 336 168.783s149.518-142.76 225.146-90.135c101.432 70.58 9.774 166.343-74.518 199.178" stroke="#82226F"/><path d="M31.229 158s-15.193 27.545-1.527 44.667c14.72-6.937 24.436-26.223 1.527-44.667" fill="#B2ABD3"/><path d="M176.79 276.939c.547-1.081 1.764-2.952 3.783-3.335.229-.043.463-.064.702-.064 3.116 0 6.995 3.624 8.103 9.479 1.194 6.304-1.546 11.374-4.752 11.982-2.021.376-3.837-.915-4.74-1.721-1.994-1.781-3.475-4.585-4.064-7.695-.588-3.108-.235-6.26.969-8.646m-5.26 25.692c3.627 3.239 8.01 4.975 12.387 4.975a16.31 16.31 0 0 0 3.042-.285c10.53-1.994 17.143-13.944 14.739-26.636-2.404-12.691-12.93-21.392-23.46-19.401-5.335 1.01-9.944 4.657-12.643 10.006-2.46 4.872-3.203 10.778-2.095 16.629 1.109 5.852 3.96 11.077 8.03 14.712" fill="#533657"/><path d="M268.75 353l-4.989 32.338c-8.017-2.972-19.05-1.292-31.952 8.552-43.086 32.878-7.63 112.32 60.518 74.057 51.268-28.786 14.04-98.998-23.577-114.947" fill="#953782"/><path d="M342.386 159.777a3.581 3.581 0 0 0 4.762 1.724l2.636-1.235 7.418-3.548 5.267-2.578c1.915-.948 3.99-1.952 6.213-2.975l14.834-7.1c5.491-2.5 11.361-5.366 17.65-8.212 6.325-2.756 12.877-5.921 19.802-8.828 6.871-3.047 14.071-5.909 21.331-8.944l11.056-4.3c3.703-1.438 7.466-2.729 11.203-4.105 1.862-.71 3.747-1.332 5.628-1.961l5.633-1.893c1.87-.657 3.76-1.196 5.637-1.768l5.61-1.724a508.036 508.036 0 0 1 11.137-3.037l5.5-1.307 2.72-.656 2.707-.543 5.344-1.113 5.254-.883c.868-.136 1.73-.317 2.586-.441l2.556-.337c1.694-.204 3.375-.493 5.023-.622a119.845 119.845 0 0 1 18.55-.656c5.7.281 10.862 1.042 15.302 2.244 4.468 1.135 8.17 2.758 11.166 4.295 2.993 1.55 5.258 3.073 6.896 4.088.834.523 1.457.92 1.952 1.176l.708.388a1.464 1.464 0 0 0 1.748-2.312l-.112-.114-.485-.493c-.31-.304-.803-.838-1.439-1.509-1.284-1.392-3.24-3.508-6.119-5.91-2.864-2.41-6.74-4.967-11.54-7.197-4.812-2.186-10.548-3.968-16.896-5.023-6.342-1.073-13.293-1.542-20.544-1.31-7.232.317-14.848.992-22.514 2.454l-2.9.506-2.89.615-5.837 1.272a508.469 508.469 0 0 0-11.713 3.054c-3.884 1.17-7.84 2.263-11.722 3.573l-5.835 1.957c-1.949.652-3.903 1.296-5.819 2.026-3.835 1.453-7.706 2.829-11.494 4.342l-11.27 4.591a61962.87 61962.87 0 0 1-10.94 4.82l-2.689 1.206-2.64 1.255-5.224 2.483c-6.936 3.23-13.504 6.596-19.726 9.804-3.12 1.587-6.084 3.255-8.988 4.801-2.892 1.568-5.7 3.054-8.363 4.541l-14.447 8.319a249.564 249.564 0 0 0-5.936 3.57l-5 3.065-6.97 4.361-2.457 1.564a3.584 3.584 0 0 0-1.32 4.54m-11.156 12.357a7.842 7.842 0 0 0 5.732 9.493l.92.227c.474.125 1.85.434 3.184.671 2.75.501 6.752 1.008 11.685 1.032 4.937.052 10.796-.318 17.334-1.208 6.545-.864 13.755-2.321 21.47-4.235 7.714-1.906 15.912-4.356 24.46-7.185 8.551-2.817 17.422-6.117 26.505-9.692 9.088-3.567 18.348-7.523 27.685-11.665l7.011-3.149 6.97-3.176 1.758-.787 1.688-.72c1.114-.484 2.266-.95 3.425-1.412a169.98 169.98 0 0 1 6.998-2.624c9.407-3.29 19.12-5.711 28.785-7.063 9.653-1.333 19.318-1.569 28.316-.121 8.967 1.399 17.333 4.577 23.331 9.87a32.609 32.609 0 0 1 4.023 4.272 31.588 31.588 0 0 1 3.024 4.839 33.248 33.248 0 0 1 3.094 10.574c.876 7.19-.107 14.091-1.532 20.022-1.469 5.95-3.379 11.022-5.1 15.129-.843 2.064-1.7 3.867-2.407 5.453-.76 1.563-1.382 2.906-1.929 3.975l-1.684 3.277-.012.024a.936.936 0 0 0 1.63.919l1.967-3.167c1.251-2.085 3.102-5.145 5.156-9.221 2.052-4.073 4.384-9.136 6.364-15.268a72.2 72.2 0 0 0 2.445-10.03c.6-3.615.918-7.52.652-11.636a39.187 39.187 0 0 0-2.899-12.662 37.986 37.986 0 0 0-3.33-6.138c-1.335-1.967-2.904-3.809-4.633-5.528-3.485-3.413-7.667-6.224-12.196-8.367-4.526-2.17-9.39-3.705-14.388-4.775-10.019-2.102-20.543-2.317-31.024-1.383-10.495.948-20.968 3.175-31.154 6.255a183.429 183.429 0 0 0-7.58 2.494c-1.25.44-2.503.888-3.768 1.377l-1.888.717-1.788.715-7.142 2.892-7.049 2.808c-9.375 3.696-18.659 7.145-27.66 10.362a594.354 594.354 0 0 1-26.108 8.601 367.8 367.8 0 0 1-23.579 6.318c-7.32 1.673-14.045 2.881-19.952 3.648-5.912.762-11.01 1.032-15.089.959-4.086-.072-7.14-.434-9.142-.786-1.043-.188-1.478-.267-2.213-.448l-.92-.221c-4.186-1.003-8.412 1.558-9.446 5.744m63.8 34.226l2.55-.563c.845-.177 1.842-.405 2.997-.684 1.158-.264 2.5-.597 4.01-.992 3.01-.777 6.66-1.737 10.805-3.021 4.142-1.286 8.806-2.777 13.856-4.568 5.05-1.79 10.485-3.864 16.252-6.087 5.762-2.234 11.82-4.7 18.135-7.244 12.644-5.017 26.312-10.427 40.668-14.528 7.116-2.029 14.228-3.802 21.367-5.399 7.161-1.539 14.29-2.855 21.72-3.344a54.256 54.256 0 0 1 5.718-.059c1.96.09 3.982.284 6.163.798 2.166.548 4.573 1.317 6.964 3.198 1.176.898 2.284 2.129 3.11 3.478.851 1.354 1.374 2.826 1.672 4.187.323 1.393.362 2.629.368 3.826a22.905 22.905 0 0 1-.35 3.228 31.572 31.572 0 0 1-1.485 5.333c-1.217 3.182-2.609 5.908-4.056 8.41-2.889 4.989-5.87 9.123-8.649 12.685a153.236 153.236 0 0 1-7.515 8.904 119.976 119.976 0 0 1-5.238 5.402c-1.255 1.213-1.959 1.836-1.959 1.836a1.05 1.05 0 0 1-1.695-1.115s1.174-3.575 3.701-9.473c1.263-2.946 2.861-6.475 4.707-10.456 1.822-3.985 3.988-8.409 6.005-13.136.991-2.359 1.983-4.789 2.684-7.154.338-1.171.637-2.315.763-3.313.144-1.001.087-1.817-.004-2.106-.045-.154-.06-.185-.07-.158-.009.014.034.026-.074-.032-.122-.127-.859-.451-1.856-.663-2.06-.448-5.032-.472-8.06-.251-6.15.438-12.879 1.72-19.666 3.206-6.808 1.484-13.765 3.276-20.633 5.113-6.798 1.865-13.566 4.053-20.24 6.318a1393.372 1393.372 0 0 0-19.64 6.945c-6.407 2.275-12.647 4.461-18.61 6.468a326.533 326.533 0 0 1-16.996 5.274c-5.322 1.501-10.249 2.762-14.665 3.696-4.409.954-8.282 1.682-11.493 2.161-1.599.248-3.04.454-4.312.61-1.269.168-2.336.308-3.173.384l-2.599.259a3.74 3.74 0 0 1-1.177-7.373m-80.41-18.456l-.138 1.236c-.093.775-.246 1.864-.458 3.241a146.409 146.409 0 0 1-2.238 11.15c-.563 2.273-1.186 4.728-1.959 7.294-.746 2.572-1.637 5.257-2.613 8.011-1.014 2.746-2.09 5.57-3.354 8.378-1.219 2.822-2.627 5.625-4.09 8.392-1.517 2.747-3.106 5.453-4.843 8.02-.87 1.28-1.723 2.553-2.659 3.755l-1.36 1.808-1.426 1.723c-.477.566-.93 1.138-1.414 1.68l-1.465 1.587c-.944 1.063-1.949 2.034-2.93 2.971-.492.468-.959.944-1.45 1.382l-1.479 1.27-1.427 1.222c-.479.387-.972.742-1.44 1.102-1.855 1.47-3.695 2.628-5.3 3.674-1.642.992-3.118 1.78-4.316 2.445l-3.9 1.832a3.06 3.06 0 1 1-2.895-5.38l.216-.13 3.31-2c1.005-.709 2.24-1.542 3.6-2.567 1.322-1.08 2.834-2.26 4.331-3.73.38-.36.78-.712 1.164-1.096l1.143-1.21 1.181-1.247c.392-.43.76-.898 1.15-1.353.775-.913 1.567-1.85 2.301-2.88l1.142-1.526c.375-.52.723-1.074 1.091-1.615l1.098-1.645 1.034-1.727c.715-1.14 1.353-2.356 2.005-3.569 1.302-2.43 2.464-4.992 3.561-7.577 1.047-2.614 2.046-5.243 2.875-7.897.872-2.634 1.575-5.286 2.231-7.85.62-2.579 1.171-5.082 1.602-7.476.457-2.387.786-4.664 1.081-6.76.557-4.202.825-7.712.956-10.134.058-1.206.092-2.15.1-2.764l.005-.893v-.084a8.014 8.014 0 1 1 15.977.937M278.54 401.12a7.02 7.02 0 0 0-7.859-6.069 7.021 7.021 0 0 0-6.07 7.86 210.52 210.52 0 0 0 .174 1.351c.03.251.105.735.087.821-.006.354.113.702.04 1.468a5.82 5.82 0 0 1-.098 1.115c-.062.395-.09.821-.226 1.256-.11.44-.198.91-.39 1.38l-.249.734c-.095.247-.22.491-.329.746-.423 1.025-1.063 2.064-1.768 3.135-.756 1.04-1.598 2.117-2.605 3.097-.975 1.014-2.099 1.93-3.267 2.782-1.175.852-2.434 1.556-3.698 2.181a20.517 20.517 0 0 1-3.78 1.311c-1.218.25-2.356.32-3.33.228-.995-.074-1.71-.399-2.333-.769-.645-.348-1.04-.949-1.443-1.502l-.44-.919c-.119-.309-.185-.629-.275-.9l-.12-.397-.056-.38-.092-.605-.08-.507-.062-.38a2.666 2.666 0 0 0-5.3.38l-.012.724-.008.876v.558l.072.653c.062.462.1.972.213 1.537.153.568.305 1.188.526 1.847.546 1.29 1.301 2.834 2.7 4.102 1.334 1.272 3.138 2.348 5.05 2.857 1.91.544 3.914.721 5.9.64a28.509 28.509 0 0 0 5.856-.997c1.898-.569 3.785-1.27 5.571-2.166 1.783-.897 3.52-1.909 5.116-3.094 1.624-1.147 3.1-2.475 4.471-3.848 1.333-1.417 2.576-2.875 3.578-4.438.254-.388.515-.762.748-1.152l.653-1.182c.447-.765.784-1.57 1.12-2.34.355-.76.593-1.543.836-2.28.261-.735.436-1.457.58-2.147.34-1.292.463-2.776.556-3.92.058-.666.042-.852.058-1.184a336.036 336.036 0 0 1 .04-1.362 7.574 7.574 0 0 0-.055-1.1m32.631 23.538c-.104 2.788-.492 5.607-1.038 8.398-1.13 5.581-3.159 11.05-5.984 15.968-2.784 4.95-6.352 9.327-10.269 13.075-3.956 3.716-8.272 6.81-12.73 9.212a57.397 57.397 0 0 1-6.736 3.14 55.144 55.144 0 0 1-6.743 2.191 51.41 51.41 0 0 1-6.58 1.282 48.035 48.035 0 0 1-6.259.43c-4.029.015-7.73-.479-10.913-1.33-3.187-.832-5.848-1.977-7.922-3.109-1.049-.543-1.924-1.142-2.697-1.629a58.712 58.712 0 0 1-1.872-1.378c-.963-.81-1.476-1.244-1.476-1.244a2.676 2.676 0 0 1 3.18-4.294l.18.117 1.334.864c.444.264 1.007.568 1.66.928.681.311 1.438.71 2.343 1.04a28.455 28.455 0 0 0 6.688 1.698c2.647.366 5.701.39 8.99-.037a39.324 39.324 0 0 0 5.076-.995c1.734-.442 3.5-1.02 5.268-1.73a44.899 44.899 0 0 0 5.293-2.486 46.46 46.46 0 0 0 5.147-3.234c3.353-2.386 6.461-5.29 9.148-8.532 2.65-3.274 4.887-6.885 6.431-10.707a37.648 37.648 0 0 0 2.772-11.719c.122-1.968.154-3.919-.03-5.847-.039-.96-.222-1.918-.319-2.86-.192-.946-.293-1.88-.538-2.804-.849-3.838-2.19-7.447-3.787-10.774l.253.084s-6.669-11.179-4.905-16.989c2.797-9.212.218-14.519-9.595-28.01-3.326 6.851-4.6 13.95-4.889 20.195l-.294-.284c-4.915-4.762-5.039-12.606-.277-17.52 4.762-4.915 12.606-5.039 17.521-.278.355.344.684.703.99 1.076l.046.061 1.103 1.37 1.324 1.647 1.971 2.552c.37.487.758 1 1.167 1.537l1.187 1.672 1.281 1.815 1.321 2.008c1.822 2.758 3.75 6 5.636 9.685 1.886 3.683 3.725 7.834 5.223 12.448 1.498 4.608 2.646 9.685 3.14 15.061.16 1.334.167 2.713.246 4.077-.015 1.382.04 2.76-.066 4.16" fill="#CE50B6"/><path d="M601.958 164.987c-.189 1.018-.453 1.94-.771 2.693l-.246.534-.441.793-1.055 1.918a197.026 197.026 0 0 1-4.241 7.249 215.764 215.764 0 0 1-9.47 14.074c-6.691 9.16-14.066 17.876-21.97 26.086a256.56 256.56 0 0 1-12.26 11.912 256.661 256.661 0 0 1-13.024 11.048c-8.927 7.042-18.36 13.452-28.324 18.69-.319.167-.638.334-.958.499-1.381.712-2.613-1.167-1.423-2.166l.082-.069c7.766-6.538 15.198-13.517 22.122-21.064 6.915-7.548 13.343-15.665 18.824-24.565 5.325-8.673 9.76-18.153 12.314-28.42.215-.5.419-1.071.582-1.874l.082-.451.057-.555c.025-.388.05-.703.014-1.173a8.438 8.438 0 0 0-.185-1.325 9.012 9.012 0 0 0-.445-1.385 9.616 9.616 0 0 0-.69-1.29 9.882 9.882 0 0 0-.831-1.057 8.72 8.72 0 0 0-1.671-1.396c-.574-.377-.967-.548-1.452-.773-.376-.15-.843-.33-1.159-.414-1.412-.409-2.425-.503-3.368-.58a26.137 26.137 0 0 0-2.553-.051c-3.132.091-5.813.471-8.497.884-5.315.855-10.381 1.965-15.423 3.134-1.232.288-2.453.593-3.679.89-11.555 1.935-26.52 5.779-45.568 11.974l-.076.239c-13.075 3.651-26.103 7.3-39.119 10.668-4.869 1.25-9.735 2.456-14.567 3.54-4.804 1.067-9.692 2.075-14.117 2.582-1.093.12-2.134.204-2.998.2l-.952.01c-.319.003-.478-.017-.725-.023l-.687-.024-.778-.055a41.37 41.37 0 0 1-6.3-.965c-4.236-.972-8.494-2.535-12.666-4.484-8.355-3.927-16.355-9.314-23.898-15.33a185.393 185.393 0 0 1-15.138-13.55 334.994 334.994 0 0 1 5.068-4.723 390.69 390.69 0 0 1 11.813-10.376 404.398 404.398 0 0 1 24.826-19.345 372.51 372.51 0 0 1 26.193-17.326c8.961-5.38 18.149-10.346 27.557-14.774 4.708-2.204 9.457-4.309 14.268-6.232 4.81-1.925 9.656-3.741 14.553-5.379a237.941 237.941 0 0 1 14.829-4.359 209.377 209.377 0 0 1 15.055-3.205c5.049-.863 10.124-1.485 15.208-1.925 5.085-.422 10.177-.563 15.262-.522 5.085.064 10.152.432 15.196.981 4.847.568 9.653 1.412 14.423 2.425 3.887 1.561 7.847 4.27 11.489 7.553 3.842 3.435 7.382 7.5 10.636 11.827 3.255 4.337 6.203 8.988 8.86 13.805 2.652 4.821 5.016 9.82 7.006 14.926 1.982 5.103 3.628 10.324 4.674 15.506a56.49 56.49 0 0 1 1.048 7.647c.144 2.473.075 4.881-.316 6.918m-127.986 143.19c-2.241 13.194-9.569 23.676-18.055 35.813-9.144 13.077-19.507 27.899-26.086 49.447-2.545 8.335-11.105 14.759-21.809 16.365-29.608 4.445-59.72 1.788-83.412-6.692a75.34 75.34 0 0 0-.599-2.151 79.27 79.27 0 0 0-15.072-28.162c-6.13-7.371-12.812-12.694-18.814-16.307a63.953 63.953 0 0 0-16.112-6.968 121.892 121.892 0 0 0-3.127-6.994 8.998 8.998 0 0 0-.706-1.189c-4.947-14.098-9.304-32.366-10.752-54.945 29.961-8.103 51.995-29.249 63.952-61.521 5.91-15.95 8.027-31.045 8.782-40.278a202.797 202.797 0 0 0 16.574 14.215 163.113 163.113 0 0 0 13.207 9.175c4.593 2.849 9.386 5.48 14.462 7.731 5.075 2.244 10.436 4.123 16.133 5.31 2.844.595 5.779.994 8.774 1.152l1.124.053 1.217.018c.388.002.864.011 1.18.001l.952-.029c1.676-.041 3.167-.199 4.595-.38 5.659-.76 10.712-1.934 15.803-3.145 5.06-1.228 10.034-2.554 14.982-3.917 6.297-1.746 12.55-3.554 18.788-5.38-7.266 29.871-9.253 43.627-5.671 50.791 1.963 3.927 4.746 7.477 7.692 11.237 7.37 9.401 14.991 19.124 11.998 36.75M306.925 434.173c-2.72 9.446-9.126 18.16-18.485 24.562-9.629 6.536-21.121 11.38-32.656 11.758-5.754.21-11.496-.664-16.769-2.731-5.263-2.072-10.05-5.3-13.863-9.435a36.365 36.365 0 0 1-8.234-14.499 35.008 35.008 0 0 1-.675-16.721c1.118-5.578 3.508-10.99 6.897-15.803 1.694-2.405 3.58-4.706 5.672-6.823 1.068-1.041 2.121-2.091 3.255-3.066a32.94 32.94 0 0 1 1.699-1.459l.866-.71.432-.356.107-.088c.117-.091-.038.023.024-.023l.245-.182c.64-.469 1.337-1.007 1.925-1.417.578-.389 1.117-.787 1.718-1.172 1.204-.781 2.411-1.525 3.622-2.166 2.408-1.323 4.875-2.252 7.149-2.747 2.285-.524 4.358-.485 6.014-.022 1.663.46 2.98 1.305 4.144 2.587 1.155 1.283 2.09 3.02 2.758 4.969.665 1.957 1.024 4.121 1.149 6.301.261 4.379-.52 8.799-1.906 12.656a30.873 30.873 0 0 1-2.577 5.362c-1.023 1.615-2.143 3.086-3.385 4.357a26.122 26.122 0 0 1-3.978 3.296l-.261.179-.13.089-.065.045c-.05.031.222-.11.063-.026l-.706.386-.306.163-.442.204a9.808 9.808 0 0 1-1.735.592 8.788 8.788 0 0 1-3.331.123 8.399 8.399 0 0 1-2.956-1.106c-1.765-1.088-2.878-2.667-3.265-4.207-.424-1.544-.148-3.234.579-4.76.719-1.526 1.766-2.856 2.739-3.853a29.3 29.3 0 0 1 2.449-2.229l.928-.735.082-.065a2.81 2.81 0 0 0-2.525-4.9s-.457.132-1.337.439c-.87.331-2.19.807-3.836 1.737-1.639.925-3.69 2.253-5.701 4.594a16.96 16.96 0 0 0-2.701 4.387c-.723 1.766-1.226 3.859-1.207 6.118-.021 4.529 2.097 9.487 6.061 13.005a19.875 19.875 0 0 0 7.124 4.122 20.805 20.805 0 0 0 8.841.913 22.537 22.537 0 0 0 4.516-.963l1.092-.387 1.21-.504.788-.357 1.074-.534a32.9 32.9 0 0 0 7.171-4.906c4.434-3.985 8.006-9.216 10.257-15.106 2.268-5.893 3.294-12.434 2.747-19.272a37.338 37.338 0 0 0-2.371-10.407 32.588 32.588 0 0 0-1.368-3.022c.028-.046.063-.086.09-.133 3.065-5.217 4.365-11.432 3.947-18.576.337.193.67.38 1.015.589 4.393 2.657 9.432 6.661 14.135 12.336 4.676 5.658 9.026 13.005 11.642 21.634 2.591 8.587 3.338 18.517.545 27.965M158.816 260.92c4.088-7.471 10.35-12.345 17.63-13.724a22.837 22.837 0 0 1 4.255-.399c14.127 0 27.471 13.037 30.897 31.125 3.768 19.9-5.868 38.495-21.483 41.453-7.28 1.377-14.89-.869-21.427-6.327-6.973-5.822-11.847-14.488-13.724-24.401-1.877-9.912-.51-19.759 3.852-27.727m-13.272 69.11a201.542 201.542 0 0 1-27.596-67.409l20.837 16.807a61.652 61.652 0 0 0 1.076 12.08c2.539 13.401 9.277 25.241 18.976 33.338 8.1 6.764 17.471 10.305 26.975 10.305 2.385 0 4.78-.223 7.164-.675 23.941-4.534 39.07-31.187 33.724-59.414v-.001c-5.346-28.226-29.172-47.501-53.114-42.967-7.719 1.461-14.649 5.2-20.301 10.807l-39.673-23.195c.221-43.224 14.202-84.509 39.92-118.996 7.153 1.278 21.105 4.909 36.115 15.012 28.671 19.297 47.733 52.018 56.672 97.267-12.496 68.376-1.042 116.345 10.834 144.624.957 2.28 1.936 4.445 2.922 6.55 1.541 5.48 1.976 10.119 1.255 13.623a21.217 21.217 0 0 0-2.248-.608c-4.327-.916-8.614-.561-12.411.382-3.839.933-7.255 2.505-10.474 4.216-1.613.862-3.144 1.808-4.647 2.788-.756.488-1.525 1.046-2.286 1.571-.738.523-1.326.981-1.998 1.477l-.593.451-.522.41-1.045.822a41.868 41.868 0 0 0-2.066 1.701c-1.378 1.141-2.693 2.387-4.015 3.632a89.435 89.435 0 0 0-2.514 2.592 203.31 203.31 0 0 1-70.967-67.19m28.26-252.667a211.183 211.183 0 0 1 9.94-9.25c7.38 1.158 26.212 5.179 46.306 17.897 31.665 20.041 52.615 51.961 62.395 94.961-13.357 7.188-23.747 13.38-30.842 17.807-8.198-33.574-25.673-74.12-62.898-98.65-12.089-7.966-23.558-12.429-32.396-14.925a212.462 212.462 0 0 1 7.495-7.84m139.781 111.831c-1.004 7.911-3.023 18.465-7.083 29.425-9.38 25.316-25.359 41.803-47.569 49.14.145-15.092 1.579-31.77 4.845-50.087 6.944-4.549 24.3-15.466 49.807-28.478M316.369 18a203.445 203.445 0 0 1 18.944.89c4.27 1.057 8.756 2.406 13.408 4.028l3.998 1.542 2.034.789 2.015.897c1.348.607 2.723 1.193 4.089 1.829l4.072 2.06c1.385.661 2.72 1.441 4.068 2.22 1.343.787 2.726 1.526 4.062 2.361 2.624 1.749 5.381 3.362 7.925 5.334 1.292.956 2.609 1.886 3.894 2.867l3.752 3.099 1.883 1.55 1.794 1.663 3.583 3.333c1.195 1.11 2.27 2.35 3.41 3.515 1.112 1.195 2.277 2.333 3.343 3.565l3.137 3.732c1.035 1.247 2.118 2.445 3.042 3.772l2.868 3.868 1.425 1.918c.459.648.873 1.329 1.31 1.988L417 78.776l1.275 1.954c.42.651.775 1.344 1.164 2.009l2.266 3.987 1.118 1.964c.38.645.739 1.299 1.054 1.976l.782 1.587c-17.308 8.642-33.741 18.804-49.351 30.005a422.067 422.067 0 0 0-25.885 20.307 397.336 397.336 0 0 0-12.336 10.912 348.285 348.285 0 0 0-5.993 5.696l-2.96 2.925c-.615.619-1.204 1.216-1.815 1.846a728.739 728.739 0 0 0-8.602 4.107l-.001-.001-.568.279a714.875 714.875 0 0 0-8.259 4.088c-14.225-56.737-45.346-86.736-70.037-102.136-13.629-8.499-26.639-13.513-36.791-16.458C235.659 30.529 275.162 18 316.369 18M459.88 77.512a266.945 266.945 0 0 0-12.521 4.555 254.36 254.36 0 0 0-7.738 3.212l-1.276-2.428a27.026 27.026 0 0 0-1.208-2.132l-1.28-2.126-2.599-4.306c-.446-.718-.856-1.461-1.337-2.167l-1.457-2.122a6167.5 6167.5 0 0 1-2.949-4.282c-.501-.714-.978-1.446-1.504-2.15l-1.627-2.084-3.282-4.194c-1.063-1.43-2.295-2.741-3.479-4.093l-3.588-4.045c-1.218-1.333-2.544-2.577-3.814-3.869-1.301-1.265-2.533-2.599-3.893-3.804l-4.083-3.61-1.922-1.684a202.937 202.937 0 0 1 59.557 41.329M26.177 194.9c-5.857 0-10.806-6.783-10.806-14.813 0-8.03 4.949-14.813 10.806-14.813 5.858 0 10.807 6.783 10.807 14.813 0 8.03-4.949 14.813-10.807 14.813m590.785-37.54a70.968 70.968 0 0 0-1.113-9.719c-1.14-6.293-2.912-12.284-5.032-18.109-2.132-5.819-4.655-11.452-7.518-16.923-2.87-5.466-6.076-10.773-9.725-15.855-3.659-5.074-7.706-9.963-12.476-14.423-2.384-2.228-4.938-4.357-7.763-6.285-2.808-1.937-5.903-3.668-9.312-5.04l-.51-.205-.615-.141c-5.519-1.263-11.089-2.311-16.703-3.036-5.616-.683-11.258-1.155-16.905-1.293-5.644-.116-11.29-.021-16.907.377-5.613.417-11.205 1.039-16.746 1.919a226.909 226.909 0 0 0-16.266 3.257C438.568 27.223 380.365.379 317.693.004 258.949-.347 203.37 22.593 161.114 64.597c-39.502 39.267-62.405 90.302-65.215 144.753l-43.746-25.576a35 35 0 0 0 .202-3.687c0-16.643-11.743-30.184-26.178-30.184C11.743 149.903 0 163.444 0 180.087c0 16.644 11.743 30.184 26.177 30.184 6.67 0 12.762-2.895 17.389-7.647l53.448 43.111c3.781 33.443 15.125 65.546 33.377 94.011a221.32 221.32 0 0 0 75.595 72.187c-1.911 3.681-3.477 7.611-4.521 11.767-2.006 7.738-2.137 16.157-.249 24.186 1.911 8.019 5.853 15.604 11.37 21.772 5.453 6.242 12.481 10.997 20.048 14.088 7.592 3.08 15.756 4.381 23.662 4.178 7.919-.205 15.591-1.835 22.636-4.426 3.523-1.297 6.942-2.766 10.176-4.459.809-.389 1.655-.882 2.48-1.33.818-.454 1.707-.934 2.357-1.339l2.108-1.265.414-.257.29-.188.58-.378 1.156-.755c6.115-4.108 11.671-9.151 16.133-14.994a59.737 59.737 0 0 0 9.776-19.172c1.655-5.521 2.446-11.103 2.577-16.507 15.898 4.667 33.66 7.117 52.108 7.116a213.41 213.41 0 0 0 31.606-2.368c17.525-2.629 31.795-13.976 36.353-28.909 5.748-18.824 14.834-31.82 23.622-44.389 9.325-13.335 18.132-25.932 21.05-43.114 1.92-11.31.876-21.539-3.194-31.269-.123-.294-.26-.571-.388-.858a95.18 95.18 0 0 0 9.965-2.587c5.846-1.862 11.473-4.206 16.916-6.851 10.889-5.296 21.06-11.765 30.692-18.882 9.62-7.14 18.649-15.014 27.165-23.407 8.505-8.405 16.48-17.36 23.807-26.88a229.44 229.44 0 0 0 10.452-14.729 212.068 212.068 0 0 0 4.798-7.752l1.098-1.894.641-1.111c.258-.477.478-.954.71-1.436.864-1.917 1.422-3.815 1.811-5.655.774-3.691.886-7.165.771-10.519" fill="#533657"/><path d="M494.174 242.579c.923-.686 1.936-1.416 2.99-2.232a115.79 115.79 0 0 0 6.908-5.738 117.023 117.023 0 0 0 15.329-16.67c5.046-6.66 9.7-14.413 13.185-22.9A76.709 76.709 0 0 0 535.08 188c-1.957.453-3.921.927-5.884 1.419a529.225 529.225 0 0 0-7.193 1.873l-.014.056c-2.172 7.736-5.631 15.261-9.493 21.993-1.937 3.368-4.016 6.521-6.104 9.441a113.613 113.613 0 0 1-6.24 8.004c-2.055 2.389-4.001 4.543-5.806 6.382a149.017 149.017 0 0 1-4.79 4.664c-1.357 1.241-2.445 2.22-3.225 2.873l-1.173 1.008a1.176 1.176 0 0 0 1.387 1.889l1.314-.816c.858-.517 2.11-1.335 3.715-2.401l2.599-1.806m-13.741-20.752a1.664 1.664 0 0 1-.183-1.996s1.143-1.839 3.214-5c.959-1.591 2.06-3.493 3.32-5.685l1.902-3.577c.7-1.236 1.234-2.642 1.925-4.024.239-.472.45-.973.668-1.47 2.935-.869 5.87-1.743 8.806-2.599.847-.246 1.693-.489 2.539-.735l-.97 1.858c-.438.838-.953 1.615-1.413 2.402-.938 1.565-1.85 3.066-2.843 4.426l-1.421 2.014a26.963 26.963 0 0 1-1.412 1.874l-2.703 3.364c-.852 1.052-1.77 1.967-2.554 2.839-.802.858-1.525 1.671-2.195 2.348a285.35 285.35 0 0 1-4.335 4.069 1.66 1.66 0 0 1-2.345-.108" fill="#953782"/><path d="M442.873 316s-4.612 20.077-6.078 21.273c-1.527 1.246-35.346 17.564-66.795 20.271" fill="#FDFADD"/><path d="M351 372.756s33.98 35.225 63.55 11.707c-2.513-9.31-3.663-13.023-3.663-13.023s-23.572-11.38-30.874-1.221C365.5 365.999 351 372.756 351 372.756" fill="#F23580"/><path d="M438.17 323.877c-3.973 1.122-8.679 2.797-14.437 5.415-.629.304-1.26.61-1.904.927a335.794 335.794 0 0 0-9.946 5.213c-6.906 3.731-14.273 7.925-21.965 11.725a168.826 168.826 0 0 1-8.144 3.808c28.416-2.96 50.49-16.44 54.97-19.359.4-1.437.922-4.364 1.426-7.729m-30.15 58.155c-8.508-14.114-21.473-8.78-22.043-8.535-.093.04-.188.057-.283.088.13.116.266.242.39.35.597.497 1.012 1.036 1.4 1.43l1.177 1.278a1.411 1.411 0 0 1-1.964 2.021l-.107-.094-1.195-1.049c-.39-.319-.81-.77-1.395-1.156-.572-.4-1.19-.887-1.904-1.352-.746-.412-1.509-.93-2.382-1.345-.886-.388-1.78-.874-2.786-1.165-.498-.156-.984-.369-1.504-.488-.518-.12-1.043-.243-1.57-.367-.523-.143-1.076-.157-1.612-.245a10.054 10.054 0 0 0-1.626-.14c-.545-.004-1.086-.06-1.625-.029l-1.603.106c-.529.042-1.046.163-1.557.235a9.796 9.796 0 0 0-1.494.325c-.98.215-1.88.573-2.734.884-.428.154-.815.378-1.204.551-.383.187-.765.34-1.094.56-.272.168-.54.324-.796.475a119.61 119.61 0 0 0 5.336 4.272 99.126 99.126 0 0 0 5.488 3.833c3.693 2.384 7.522 4.36 11.417 5.574 1.95.598 3.9 1.04 5.851 1.282 1.951.245 3.901.244 5.838.057a27.922 27.922 0 0 0 5.774-1.169 32.925 32.925 0 0 0 2.837-1.04l.177-.07.09-.036.021-.009-.088.04.051-.023.41-.183.41-.182.203-.09.133-.07.537-.265.587-.323c1.565-.88 2.816-1.918 3.826-3.126.22-.255.418-.53.612-.81m59.076-75.914c-.035 4.844-2.072 12.632-11.295 14.525-2.507.515-5.124.763-8.245 1.232-1.843 14.13-3.205 15.248-4.42 16.24-.147.12-9.307 6.633-24.105 12.61a53.894 53.894 0 0 0-.582 1.68 67.71 67.71 0 0 0-.969 3.313 41.46 41.46 0 0 0-.703 3.318 37.188 37.188 0 0 0-.377 3.297l-.057 1.628.035 1.606.115 1.58c.075.516.126 1.036.208 1.547.108.503.191 1.012.307 1.51.142.49.257.985.407 1.467l.497 1.425.591 1.378.687 1.33.782 1.276 1.276 2.086-.66 2.456c-.77 2.868-2.079 5.805-4.027 8.358-1.914 2.58-4.414 4.636-6.966 6.172l-.968.565-1.056.555-.266.136-.202.097-.404.193-.404.192-.338.15-.238.1a45.022 45.022 0 0 1-3.875 1.46 39.953 39.953 0 0 1-8.23 1.742c-5.643.57-11.398-.204-16.57-1.98-5.198-1.762-9.863-4.357-14.126-7.244-2.142-1.436-4.137-3.019-6.08-4.619a131.784 131.784 0 0 1-5.615-4.947c-3.64-3.347-6.98-6.895-10.287-10.365-3.32-3.454-6.469-6.99-9.759-10.203-1.626-1.618-3.267-3.188-4.96-4.568-.848-.693-1.689-1.362-2.55-1.946-.42-.3-.88-.579-1.273-.82-.202-.114-.355-.227-.595-.356l-.803-.404c-.09-.046-.165-.107-.25-.159a4.309 4.309 0 0 1-.11.075l-1.119.881c-.365.292-.732.566-1.07.86l-.939.92c-.612.591-1.19 1.145-1.65 1.728a41.04 41.04 0 0 0-1.28 1.548l-.852 1.288c-.468.713-.72 1.124-.72 1.124a1.43 1.43 0 0 1-2.643-.619l-.116-1.367s-.015-.176-.008-.487c.022-.3.004-.785.095-1.334.077-.56.161-1.267.35-2.03.215-.738.52-1.54.898-2.407.192-.429.4-.884.651-1.31.25-.433.544-.847.834-1.295.29-.449.631-.866.963-1.319.346-.428.748-.81 1.14-1.225a16.028 16.028 0 0 1 2.643-2.27c.488-.326.947-.729 1.473-.997l1.56-.857c1.061-.542 2.16-.95 3.261-1.317.544-.198 1.105-.32 1.66-.44.554-.118 1.088-.27 1.643-.319 1.093-.145 2.154-.239 3.175-.213.514.022 1.003.02 1.486.066.487.062.95.106 1.398.182 1.791.287 3.288.823 4.33 1.322.508.211.931.484 1.213.632.284.161.414.278.414.278l.668.601a.748.748 0 0 1-.452 1.302l-.358.023c-.223.016-.56.036-.996.097-.864.117-2.115.277-3.582.637-1.469.348-3.175.811-4.946 1.472-.464.18-.942.386-1.417.588.625.331 1.233.678 1.823 1.04.775.213 1.618.446 2.538.701.993.265 2.138.431 3.32.678 1.182.278 2.474.367 3.822.53 1.344.202 2.778.207 4.266.265l1.128.041c.38.002.765-.026 1.153-.038l2.37-.09c.802-.005 1.617-.156 2.445-.227.827-.103 1.67-.15 2.516-.3 1.693-.315 3.44-.546 5.197-1.014.88-.22 1.776-.393 2.667-.656l2.696-.793c3.608-1.154 7.301-2.51 10.968-4.184 3.678-1.634 7.36-3.47 10.998-5.448 7.29-3.913 14.431-8.304 21.288-12.318.22-.13.438-.255.657-.384 20.314-13.507 41.855-22.746 58.901-21.234m2.89-71.22a2.246 2.246 0 0 0-2.567-1.87l-2.283.356-2.287.308c-1.524.195-3.047.431-4.574.593l-.184.02c-.757.08-1.394.66-1.514 1.447a69.712 69.712 0 0 1-1.046 5.45c-.406 1.804-.987 3.557-1.645 5.271a29.056 29.056 0 0 1-2.437 4.888c-.948 1.537-2.1 2.936-3.429 4.052-.667.55-1.366 1.055-2.126 1.403a7.771 7.771 0 0 1-2.337.702c-.794.094-1.6.08-2.375-.128-.777-.185-1.525-.517-2.235-.927a13.127 13.127 0 0 1-3.74-3.414 24.06 24.06 0 0 1-1.453-2.197c-.473-.78-.808-1.499-1.223-2.4a1.935 1.935 0 0 0-1.41-1.089 1.917 1.917 0 0 0-2.22 1.558l-.342 1.942c-.203 1.157-.126 2.491.011 3.687.163 1.218.45 2.44.903 3.644.444 1.216 1.07 2.398 1.872 3.585.84 1.138 1.834 2.323 3.16 3.32a16.62 16.62 0 0 0 2.168 1.43c.8.415 1.661.79 2.588 1.086 1.84.636 3.936.843 5.983.73 2.06-.104 4.02-.68 5.76-1.386 1.76-.714 3.217-1.7 4.537-2.68 1.327-.985 2.375-2.114 3.341-3.195.977-1.079 1.738-2.235 2.442-3.356.717-1.115 1.28-2.262 1.77-3.399.244-.567.49-1.128.693-1.694.198-.573.37-1.14.544-1.707.352-1.123.59-2.26.784-3.386.217-1.114.297-2.252.381-3.36.064-1.114.05-2.23-.002-3.33-.026-.393-.065-.78-.102-1.17.042-.026.085-.049.127-.075.371-.224.74-.484 1.108-.723a15.5 15.5 0 0 0 1.105-.774l1.41-1.09a2.242 2.242 0 0 0 .843-2.122m-109.857 55.758a23.756 23.756 0 0 0-1.117-4.092c-.252-.649-.502-1.31-.828-1.964a15.277 15.277 0 0 0-1.013-1.786l-.97-1.513a2.327 2.327 0 0 0-4.271 1.54c.146 1.206.293 2.247.31 3.364a35.44 35.44 0 0 1-.018 3.325 20.423 20.423 0 0 1-.398 3.274c-.216 1.071-.47 2.136-.859 3.147-.762 2.02-1.844 3.923-3.388 5.383a12.06 12.06 0 0 1-2.544 1.886c-.92.531-1.937.891-2.979 1.146a16.018 16.018 0 0 1-6.489.187 23.824 23.824 0 0 1-6.327-2.004c-2.002-.978-3.933-2.126-5.668-3.529-1.747-1.382-3.354-2.932-4.746-4.643a1.951 1.951 0 0 0-2.542-.425l-.277.172c-.943.587-1.878 1.184-2.839 1.746l-2.865 1.711-2.865 1.71c-.957.568-1.938 1.101-2.906 1.653a3.03 3.03 0 0 0 2 5.623l1.785-.298a25.663 25.663 0 0 0 1.775-.374c.582-.138 1.176-.259 1.74-.423a60.017 60.017 0 0 0 2.41-.697c.011.016.022.033.035.048.916 1.134 1.887 2.248 2.972 3.251a36.94 36.94 0 0 0 1.657 1.493c.581.467 1.177.922 1.79 1.363 1.216.903 2.534 1.68 3.913 2.401 1.372.743 2.846 1.335 4.382 1.86 1.533.543 3.163.922 4.865 1.178a31.05 31.05 0 0 0 2.61.292c.885.05 1.798.036 2.717-.004 1.838-.086 3.758-.345 5.652-.92 1.891-.559 3.804-1.32 5.536-2.43 1.733-1.086 3.364-2.367 4.67-3.876 1.326-1.483 2.418-3.084 3.211-4.735a20.64 20.64 0 0 0 1.73-4.91c.38-1.61.497-3.203.536-4.719a23.668 23.668 0 0 0-.387-4.41m55.79 12.204c.014 0 .104-.049.296-.138l.894-.385c.777-.32 1.885-.807 3.176-1.37 2.573-1.143 5.903-2.703 8.481-4.675.336-.238.62-.505.938-.746.284-.263.578-.52.845-.785.262-.265.54-.52.767-.798.261-.257.487-.53.698-.806.457-.533.838-1.09 1.2-1.647.352-.559.677-1.123.943-1.686.308-.55.488-1.117.73-1.62.167-.519.383-.985.517-1.388.243-.805.462-1.309.462-1.309l.074-.169a1.538 1.538 0 0 1 2.738-.164s.296.506.673 1.47c.197.481.348 1.094.518 1.81.08.36.113.752.161 1.168.06.417.08.86.063 1.326.008 1.86-.465 4.14-1.62 6.276-.559 1.08-1.3 2.082-2.122 3.016a19.108 19.108 0 0 1-2.733 2.483c-1.944 1.468-4.068 2.514-6.079 3.231-1.005.374-1.994.632-2.929.864-.94.207-1.829.37-2.655.468a23.979 23.979 0 0 1-4.005.176c-.488-.019-.873-.062-1.143-.085a6.073 6.073 0 0 1-.427-.052 2.244 2.244 0 0 1-.46-4.465" fill="#533657"/></g></svg>