<svg width="75" height="18" viewBox="0 0 75 18" xmlns="http://www.w3.org/2000/svg" xmlns:xlink="http://www.w3.org/1999/xlink" xmlns:figma="http://www.figma.com/figma/ns"><g figma:type="canvas"><g figma:type="vector" fill="#331343"><use xlink:href="#a"/><use xlink:href="#b"/><use xlink:href="#c"/><use xlink:href="#d"/></g></g><defs><path id="a" fill-rule="evenodd" d="M30.761 0c-3.18 0-5.353.596-5.8.73a.167.167 0 0 0-.112.115c-.892 3.031-1.655 4.787-1.984 5.481-.063.133.054.28.19.243.864-.239 3.165-.799 5.73-.799 3.782 0 5.31 1.034 5.31 2.47 0 .253-.038.548-.108.872a.163.163 0 0 1-.232.118c-.858-.434-2.61-1.092-5.34-1.092-4.24 0-8.152 1.68-8.152 5.34 0 2.173 2.182 4.522 7.78 4.522 3.52 0 5.813-.712 6.2-.842a.163.163 0 0 0 .09-.074c.382-.657 4.085-7.147 4.085-11.615C38.418 1.894 35.29 0 30.761 0zm-.082 11.411c-1.64 0-2.879.763-2.879 1.723 0 1.06 1.31 1.662 2.634 1.662.456 0 .86-.036 1.2-.089a.163.163 0 0 0 .12-.089 44.92 44.92 0 0 0 1.197-2.53.175.175 0 0 0-.089-.231 5.792 5.792 0 0 0-2.183-.446z"/><path id="b" fill-rule="evenodd" d="M66.742 0c-3.18 0-5.353.596-5.8.73a.168.168 0 0 0-.112.115c-.893 3.031-1.655 4.787-1.984 5.481-.063.133.054.28.19.243.864-.239 3.165-.799 5.73-.799 3.782 0 5.311 1.034 5.311 2.47 0 .253-.04.548-.109.872a.163.163 0 0 1-.231.118c-.858-.434-2.61-1.092-5.34-1.092-4.24 0-8.152 1.68-8.152 5.34 0 2.173 2.182 4.522 7.78 4.522 3.52 0 5.813-.712 6.2-.842a.163.163 0 0 0 .09-.074c.382-.657 4.085-7.147 4.085-11.615C74.4 1.894 71.271 0 66.742 0zm-.082 11.411c-1.64 0-2.88.763-2.88 1.723 0 1.06 1.312 1.662 2.635 1.662a7.84 7.84 0 0 0 1.2-.089.163.163 0 0 0 .12-.089 44.92 44.92 0 0 0 1.197-2.53.175.175 0 0 0-.089-.231 5.797 5.797 0 0 0-2.183-.446z"/><path id="c" d="M51.655.968c-.515 1.118-2.665 5.943-4.61 12.656-.032.111.046.223.156.224 1.696.016 4.295-.02 6.742-.298.124-.015.218.116.17.237a124.44 124.44 0 0 0-1.207 3.118.164.164 0 0 1-.153.11H39.517c-.116 0-.196-.123-.152-.237.517-1.343 3.099-8.088 4.173-11.733.033-.113-.049-.226-.16-.223a12.25 12.25 0 0 0-2.232.247c-.13.028-.237-.108-.184-.236a28.83 28.83 0 0 0 1.303-3.98.167.167 0 0 1 .16-.131h9.08c.122 0 .202.132.15.246z"/><path id="d" d="M17.43.859a.166.166 0 0 1 .158-.124h4.01c.123 0 .202.138.145.253-1.52 3.057-2.444 5.841-3.328 8.5l-.332.999c-.517 1.537-.971 2.851-1.578 3.918-1.19 2.092-2.967 3.23-6.944 3.23-4.2 0-8.41-1.526-9.152-1.867a.175.175 0 0 1-.084-.226c.17-.399.615-1.517.879-2.82.021-.108.131-.167.227-.122.782.365 3.93 1.805 7.552 1.805 2.563 0 3.827-.808 4.502-2.218.065-.137-.027-.295-.17-.264a17.1 17.1 0 0 1-3.524.376c-5.222 0-7.486-1.727-7.486-3.96 0-1.135.468-2.52.84-3.44.047-.115-.038-.243-.158-.239a16.234 16.234 0 0 0-2.789.324c-.135.03-.243-.12-.18-.247C.33 4.109.97 2.65 1.22.884a.167.167 0 0 1 .162-.148h10.029c.13 0 .208.149.139.264-.579.955-2.256 4.283-2.256 6.271 0 1.156.748 1.786 2.504 1.786 1.426 0 2.476-.245 3.224-.554a.167.167 0 0 0 .093-.101c.118-.342.239-.702.364-1.08.858-2.585 1.765-5.798 1.95-6.463z"/></defs></svg>