<svg baseProfile="basic" xmlns="http://www.w3.org/2000/svg" viewBox="0 0 933.1 746.9"><path fill="#57275C" d="M720.6 294.8s-27.6 85.7-22.3 97c5.3 11.3 27 34.4 27 34.4s262.5-218.3-4.7-131.4z"/><path fill="#8F6CFF" d="M744.8 362c37.7-34.7 56.7-77.9 49.6-102-6.2-20.8-28-9.4-38.1-11.5-13.1-2.6-15.1-19.4 2.8-24 10.7-3.3 40.2-3.4 51.6 20.4 14.2 29.5-8.7 71-33.6 96.5-12.3 12.5-23.9 21-36.5 28.8-.8.5-1.8.2-2.3-.6-1.2-1.6.2-1.9 6.5-7.6z"/><path fill="#A9F5FA" d="M734.9 301c5.5 81.9-32.3 119.4-21.2 158 7.8 27.1 22.6 38.6 12.5 79.7-9.1 36.9-57.2 64.5-110.4 124.7-104.1 14.9-226.4-58.9-262.2-124.7-66.1-121.5-73.4-301-73.4-301"/><path fill="#98DCE1" d="M483.1 288.9l-2.4-5.6c-21-9.4-34.9 12.5-104.5 88.8-46.4 51-5.7 175.3 51.7 249.4 154.6 66 204 58.9 199.7 29-118.6 29.2-170.3-94-173.4-104.2-4.6-15-17.3-49.2-19.9-70.9-3.4-28.3 70.4-89.1 59.8-187.6-.4-3.5 19.2 30.5 40.3 54.6 49.4 56.6 124.3 26.9 197.6 15 18.9-64.4-9.7-92.7-9.7-92.7l-224 14.3c-1.1.3-15.6 8.9-15.2 9.9z"/><path fill="#2F2749" d="M643.8 388.1c5.8 17.5-10.3 49.9-14.1 63.3-8.2 27.4 8.9 20.9 8.9 20.9 1.5-.4 2.5 1.7 1.2 2.6-6.5 4.8-13.9 3.9-18-2.3-13.6-20.6 18.9-63.3 18.2-84.9 0-1 .7-1.8 1.7-1.8 1.4 0 1.7 1.2 2.1 2.2z" opacity=".19"/><path fill="#57275C" d="M614.1 504.6s.2 0 .5-.1c15.6-3.3 22.3-4.6 31-13 3.4-3.8 4.6-7 5.9-9 1.3-2.1 3.8-1.5 4.4.3 4 12.2-5.4 28.8-29.1 30.3-8.1.3-14.4-1.7-13.4-1.5-4.5-.4-3.9-7.3.7-7z"/><path fill="#FF63D7" d="M544.7 586.4l-15.9 7.8s22.9 35.9 52.9 30.1c30.1-5.8 13.4-34 13.4-34l-50.4-3.9z"/><path fill="#57275C" d="M514.6 576.7s37.2 6 112.6-34c-10.2 22.5-26.4 26.2-26.4 58.5-20.6-12.7-26.4-9.5-31.7-4.6-13.8-6.6-36.1-.7-36.1-.7l-18.4-19.2zm-1.2-15.2c-4.5 2.1-13.3 8.6-16.5 18.2-.4 1.2-2 1.2-2.5.1-4.5-10.4 3.9-19.9 12.8-20.7 4.4-.5 8.6 1.3 6.2 2.4zm29.1 27.8c4.8-.9 6.9-.8 10.9-.3 8.9 1.1 15.9 6.6 21.4 13.6.6.8.5 1.9-.3 2.6-2.3 1.9-3.4-2.6-9.9-6.2-10.6-5.4-19.4-4.3-27.8 2.1-1.9 1.5-4.7 1.1-6.2-.8-1.5-1.9-1.1-4.7.8-6.2 1.7-1.4 7-4.1 11.1-4.8zm55 23.1c-8.3-19.4-25.1-14-25.8-13.8-4.5 1.5-6.8-5.2-2.3-6.8.2-.1 23.7-7.9 34.7 17.7.8 1.8-.1 3.9-1.9 4.7-1.8.9-3.9 0-4.7-1.8zm-97.7-45.5l1 .4c23.9 10.6 49.9 62 87.9 49.5h-.1c5.4-2 8.7-4.4 11.1-10l.3 4.1c-12.7-25.2 7.2-59.4 32.7-68.6 2.2-.8 3.6 2.3 1.5 3.4-19.4 10.7-31.8 35-28.1 52.8.9 4.6 2.6 7.3 3.9 9.6-3.1 9-7 14.7-17.7 18.8-10.8 3.6-21.3 4-32.5-.4-28.5-11.1-47.5-45.5-62.7-54-1.5-.8-2-2.7-1.2-4.2.8-1.4 2.5-2 3.9-1.4z"/><path fill="#fff" d="M527.8 573.1c36.7 19.3 98-7.1 99.8-8.4 1.7-1.3 8-29.2 8-29.2s-68.1 48.1-107.8 37.6z"/><path fill="#57275C" d="M504.8 564.9s.5.2 1.6.7c50.7 22.2 91.4-30.8 141.3-35 4.4-.4 8.3 2.9 8.6 7.3.4 4.5-3.1 8.5-7.6 8.7-4.2.2-9.5.1-21.6 4-32.1 10.3-75.8 42.2-116.4 26.6-5.6-2.2-3.9-1.5-9.6-4.3-2.2-1.1-3.1-3.7-2-5.9 1-2.1 3.5-3 5.7-2.1zm100.1-6.4c2.8-3.2-9-8.7-5.2-10.9 24.4-14.1 49.8-21.8 69.3-18.7-.4 5.5-4.7 15.5-15.3 16.9-9.5 1.3-16.4.2-48.8 12.7zm-2.7 1.9c2.6-3 3.7-2.8-.9-7.2-1.6-1.5-5-4.6-2-6.3 20.3-11.7 47.4-22.4 70.6-18.7-.7 9-6.8 17.1-16 18.4-13.5 1.8-17.4.6-51.7 13.8zm-2.1-12.1c-2 1.1 5.7 5.5 6 8.9 31.2-11.9 38-10.9 47.5-12.1 9.4-1.3 13.8-9.8 14.5-15.4-21.9-3.2-48.7 7.5-68 18.6zm-257.9-3.4c-50.2-92.4-71.9-230.3-75-306.6l26.1-1.1c.1 1.8 8 177.9 71.9 295.3 32.5 59.7 146.2 129.9 244.3 118.6 50.9-56.6 96.6-84.5 104.2-115.5 9-36.4-4-44-12.4-72.9-12.9-44.6 26.1-80.1 20.7-160.7l26-1.8c5.6 83-31 122.9-21.7 155.2 7.3 25.3 23.9 40.9 12.7 86.4-10.3 41.9-57.8 67.3-116.4 133.8-119 17-243.5-62.8-280.4-130.7z"/><path fill="#fff" d="M361.2 641.8C242.2 595 157.9 479 157.9 343.3c0-177 143.5-320.6 320.6-320.6 132.3 0 245.9 80.2 294.9 194.6-21.1 1.9-217 10.9-379 136.6 0 0-63.5 87.9 44 252.3-29.1 12.8-77.2 35.6-77.2 35.6z"/><path fill="#E5E5E5" d="M394.3 353.9c162-125.7 357.9-134.7 379-136.6-48.2-92.5-97.4-159.7-194.6-159.6-30.6 0-178.8-1.4-257.8 101.5-66.1 86-72.1 184.2-57.2 258-2.7 3.1-24.8 4.2-28.3 7.1l-71.5-44.7-5.9 27.9 54.6 46.6c-1.7 3.6 1.1 1.9 1.4 6.6 2.9 45.2 39.7 78.6 70.4 78.6 4.7 0 9.1 2.3 11.6 6.3 23.2 37.7 51.5 70.3 80.3 96.1 0 0 33.1-22.7 62.1-35.6-107.6-164.3-44.1-252.2-44.1-252.2z"/><path fill="#FF63D7" d="M386.7 342.2c-62.4-220-171.2-182.3-171.2-182.3l58.3-59s127.1 0 180.9 196.3l-68 45z"/><path fill="#7B4EFF" d="M501.6 268.5s1.1 113.2-121.8 163.1l5.9-103.7 115.9-59.4z"/><path fill="#FF63D7" d="M655.1 173.5C582.5 14.1 454.6 22.7 454.6 22.7c34-10.2 210.5 12.4 281.8 130.2l-81.3 20.6z"/><path fill="#57275C" d="M333.8 644c-204.9-98.7-255.8-371.9-90-536.7C411.9-59.8 692.8-4.1 785.3 212.2l-24 10.3c-87.7-204.9-358.7-253.1-511.1-84 40.2 11.1 79 38 107.4 81.6 22.1 33.9 34.4 72 42 111.5-13 69.3-13.3 142.8 13.2 207.1 17.6 42.8 39.8 62.9 40 63.1l16.5 14.5c-26.5 9.6-9.7 3.5-83.2 30.3-17 6.2-36 5.2-52.3-2.6zM231.7 160.9c-116.1 155.7-59.3 376.4 113.4 459.6 9.9 4.8 21.6 5.4 32 1.6l44.4-16.2C363.1 532 355.8 425.5 373 331.6c-11.5-58.4-37-114.7-86.1-147.8-23-15.5-44.4-21-55.2-22.9zm-13.4 263.3l-158.9-119 7.4-18.1L235 392.3"/><ellipse fill="#A9F5FA" cx="276.7" cy="438" rx="55.3" ry="67.2"/><path fill="#98DCE1" d="M293.4 503.7c-27.2-40.8-25.2-102.5-16.6-137.8 78.2 41.9 60.6 105.9 16.6 137.8z"/><path fill="#57275C" d="M211.7 450.3c-3.8-20.2-.9-40.5 8.2-57.1 30.8-56.4 109-37.7 122.3 32.4 3.8 20.2.9 40.5-8.2 57.1-31.4 57.5-109.3 36.3-122.3-32.4zm54.8-67.5c-23.9 4.5-38.6 33.2-32.9 63.3 9.1 48.3 59.6 64.7 80.8 25.9 6.7-12.2 8.7-27.2 5.9-42.3-5.7-30.3-30-51.4-53.8-46.9z"/><ellipse transform="rotate(-10.71 276.081 439.212)" fill="#FF63D7" cx="275.9" cy="439" rx="19.9" ry="26"/><path fill="#57275C" d="M259.4 466.5c-20.9-18.7-15-57.2 10-61.9 24.8-4.7 44.6 28.9 31.9 54-8.4 16.7-27.9 20.4-41.9 7.9zm13.4-44.1c-9.3 1.8-11.3 21.5-1.2 30.5 9.3 8.3 17.4-3.2 15-15.9-1.9-9.8-8.8-15.5-13.8-14.6z"/><ellipse fill="#FF63D7" cx="39.1" cy="281.7" rx="28" ry="34.1"/><path fill="#57275C" d="M39.1 326.9C17.6 326.9 0 306.6 0 281.7s17.6-45.2 39.1-45.2c21.6 0 39.1 20.3 39.1 45.2s-17.5 45.2-39.1 45.2zm0-68.1c-9.1 0-16.9 10.5-16.9 22.9 0 12.4 7.7 22.9 16.9 22.9 9.1 0 16.9-10.5 16.9-22.9 0-12.4-7.7-22.9-16.9-22.9zm19.76 43.443l11.255-19.252 170.502 99.678-11.255 19.252zm-2.652 5.519l14-17.358 155.135 125.121-14 17.358zM393.4 341.6l-14.2-20.3c1.8-1.2 43.9-30.5 116.1-64.3 66.5-31.1 172-71.9 297-89.5l3.4 24.5c-121.7 17.1-224.5 56.8-289.4 87.1-70.4 33-112.5 62.2-112.9 62.5zm52.8-42.2c-11.6-65.3-41.1-124.6-98.1-160.7-39-24.7-74.9-27.8-75.3-27.8l1.9-26c1.7.1 41.7 3.3 86.1 31 64 39.9 98.1 105.5 111 178.9l-25.6 4.6zm7.6-285.6C506.2 9.3 573.6 31.5 620.2 78c41.9 42.7 60.7 88.2 76.1 144.9 1.9 6.9-2.2 14.1-9.2 16-7 1.9-14.3-2.3-16.1-9.4-2-8-5.1-21.8-10.6-38.9-8.8-24.5-20.3-54.9-46.2-86.1-17-20.2-32.6-33.7-58.9-48.8-23.1-13.6-65.7-26.1-99.7-24.2-5.7.4-9.6-3.6-9.9-8.2-.3-4.8 3.3-9 8.1-9.5z"/><path fill="#7B4EFF" d="M726.6 420.4S815.7 367 839.2 294c12.3-38.3-122.4 10.3-184.6 24.8-116.8 27.1-146.6-54-146.6-54S734.3 48.7 848.8 128.4c153.6 106.9 14.8 251.8-112.8 301.5"/><path fill="#8D91FD" d="M522.8 279.8c88 38.3 214.3-32.1 282.6-46 104.2-20.7 118.6 51 41.6 130.3-3.4 3.5-8.9-1.3-5.9-5.2 14.4-18.3 30.8-40.5 38.4-64.7 8.5-27.7 0-44.8-28.8-48.3-46.5-5.4-97.1 24.3-173.3 44-51.7 13.4-111.1 21.1-157.6-4.3-1.6-.9-2.2-2.9-1.3-4.5.9-1.3 2.7-1.9 4.3-1.3zm-9.6-15.2c22.2 3.6 40.1 1 62.8-5.3 84-24.3 140.7-74.8 239.6-78.8 40-1.4 92.7 6.6 107.6 43.5 13.5 33.1-11.3 71.3-34.8 98.3-3.3 3.7-9-.9-6.1-4.9 0 0 3.5-4.7 3.6-4.9 94.7-130.2-69.8-136.3-175.6-92-93.3 40-146.7 63.6-198.5 50.5-4-.9-2.7-7 1.4-6.4zm-7.2-2.4c107.6-93.1 311.5-174.8 391-93.7 3.4 3.4-1.3 9-5.5 5.6-4.4-3.6-8.5-6.8-14.1-9.9-13.2-7.5-29.8-12-43.3-13.4C736.7 138.9 597 207 510 267.4c-1.5 1-3.6.7-4.6-.8-1-1.4-.7-3.3.6-4.4z"/><path fill="#57275C" d="M722.1 413.4c8.1-5.3 21.4-15.3 34.7-26.8 66.1-57.5 71-98.9 73.8-106.5-1.4 2.8-.2 7 2.9 9 1.3.8 1.8.6.5.5-30-1.6-184.2 56-225.2 55.4-47-2.2-93.4-41.9-125-76.8C578 170.4 718 85.9 851.6 116.6c1.1.3.7.1 1.6.5 38.9 15.6 70.7 74.2 78.2 115.6 2.4 13.2 3.1 29.3-3.3 41.1-7.3 12.6-14.6 24.2-25.7 38.5-43.1 56.2-116 115.3-176.4 120.8l-1.5-13.8c65.9-8.4 148-87.8 184.4-154.1.7-1.3 1.6-2.8 2.3-6.2 5.9-30.9-30.7-105.7-66.8-119.3l1.6.5c-62.8-13.5-123.1.3-181.1 27.4-56.8 26.6-116.7 72-153.9 109.9l.2-17.6c1 1 5.9 6.7 15.3 15.5 19.5 18.2 46.5 38.6 72.3 44.5 11.5 2.7 19.1 1.6 29.5-.4 46.4-8.8 145.7-41.3 190.2-48.4 10.9-1.7 19.6-2.4 25.4 1.3 4.5 2.9 6.4 7.9 5.4 12.7-.4 1.8-.9 3-1.4 3.9l.9-2.3c-13.5 56.9-72.5 111.9-117.8 140.7l-8.9-14z"/><path fill="#8D91FD" d="M454.2 365.7c-14.8 25.1-29.4 40.3-54.7 52.1-5.7 2.6-10-5.6-4.7-8.8 12.9-7.8 21.6-15.3 31.3-29.4 17-25.1 25.7-60.9 26.4-88.2.2-7.5 6.3-13 13.4-12.8 7.2.2 12.9 6.2 12.7 13.4 0 3.2-5 38.5-24.4 73.7z"/><path fill="#57275C" d="M382.4 444.4l-5.2-25.6c41.4-8.3 70.6-34.8 86.8-78.6 12.5-33.7 12.3-65 12.3-65.3l26.1-.3c0 1.5.3 36.5-13.9 74.7-19.3 52.1-56 85-106.1 95.1zM392.8 342l-13-21c.5-.3 53.4-32.9 116.5-63.6l10.8 22.3c-62 30.1-113.8 62-114.3 62.3z"/><path fill="#7B4EFF" d="M405.2 542.6c56.9 24.1 113.3 130.4 35.7 174-103.2 57.9-156.9-62.3-91.6-112.1 65.2-49.8 99 38.2 36.1 66.5"/><path fill="#8D91FD" d="M347 719.5c-3.5-2.9.5-8.2 4.3-5.8 46.7 30.4 146.8-42.9 64.6-118.8-3.1-2.9-1.8-1.7-7.3-6.5-6.9-6.1-7.7-16.6-1.6-23.5 6.5-7.5 18.1-7.7 24.8-.3 106 114.3-30.6 199.7-84.8 154.9z"/><path fill="#8D91FD" d="M383.4 665.5c-14.9 2.7-27.2-4.6-29.1-22.5-.5-4.8 6.6-6.8 8.2-1.1.8 2.8.4 1.6 1.4 4.3 5.3 10.1 14.5 8.6 23.5 1.5 8.3-7.2 11.3-16.2 12.8-26.4.9-6 6.4-10.1 12.4-9.2 6 .9 10.1 6.4 9.2 12.4-1.9 12.7-16.5 37.1-38.4 41z" opacity=".4"/><path fill="#57275C" d="M407.5 537.4s.6.1 1.9.4c24.6 4.9 52.8 23.8 70 55 63.3 116.5-94.1 199.4-157.6 126.7-30.1-33.6-25.1-87.1 18.8-120.7 80.7-63.5 109 51.3 49.2 81.2-23.5 10.7-44-5.4-44.1-23.4-.1-12.7 9.9-22.3 22-25.9 4.2-1.3 7.2 4.3 3.5 7.1-18.6 14.1-9.1 24.8-.8 26.3 8.8 1.5 17.6-6.9 22.3-14.4 11-18.3 8.8-45.3-5.8-49.2-15.5-4.2-53.8 20.6-60.8 55-7 33.7 19.6 68.1 60.5 66.6 28.2-.9 82.7-24.2 80.8-77.4-1.2-34.6-26.6-73-65.7-81.8-7-1.6-11.4-8.6-9.9-15.6 1.8-7 8.8-11.4 15.7-9.9zm-9.1 66.8c-6.2-3.6-8.3-11.6-4.6-17.8 5.1-8.7 2.1-25.8-8.2-47.1-3.1-6.5-.4-14.3 6-17.4 6.5-3.1 14.3-.4 17.4 6 14.8 30.5 17.2 54.6 7.2 71.7-3.6 6.2-11.5 8.2-17.8 4.6zm42.4-109.9c13.4-.6 20.5-11.9 26.8-16.2 24.3-17 63.5-5.2 83.5 19.1 2.9 3.5-1.1 8.5-5.3 6.2-7.7-4.2-20.1-10.7-33.2-14-28.9-7.6-39.4 3.2-44.9 6.9-9.3 6.2-20.8 9.3-31.2 4.6-2.3-1.2-2.6-3.3-1.8-4.9 1.3-2.4 3.6-1.7 6.1-1.7zm18.2-7.2c-5.1-1.6-9.7-5.2-12.1-10.4-1-2.2 1.3-4.9 4.1-3.2 1.1.7 2.7 1.7 3.9 2.2 9.7 4.4 24.1-1.5 22.3-.7 3-1.1 6.1.5 7.2 3.3 3.3 9.1-16.2 12.1-25.4 8.8z"/><path fill="#fff" d="M700.5 395.3c-46.6-.8-57.2 37.5-47.4 64.4 3.3 8.9 12.5 14 21.8 12 27-6 35.9-41.6 25.6-76.4z"/><path fill="#57275C" d="M713.3 389.9c-4.5-2.4-9.5-3.5-14.8-3.4 2.3-5.6 1.8-10.7.3-11.5-3.8-2-2.7 6.5-12.2 13.5-15.2 4.9-29.8 18.5-34.9 38.1-3.1 10.8-2.4 22.8 1.4 33.1 3.3 8.9 12.5 14 21.8 12 2.5-.6 4.9-1.4 7.1-2.4 6.4-11.3 9.7-25.6 8.5-40.8-.8-9.2-3.1-17.9-6.7-25.5 3.5-2.3 7.4-4.3 11.8-5.9 5.2-1.8 10.4-2.4 13-2.4 3.3 0 4.8.6 5.8-1.3.7-1.2.2-2.8-1.1-3.5z"/></svg>