<svg baseProfile="basic" xmlns="http://www.w3.org/2000/svg" viewBox="0 0 820.7 656.9"><path fill="#533657" d="M633.5 258.8s-24.2 75.2-19.6 85.1c4.6 9.9 23.7 30.2 23.7 30.2s230.4-191.6-4.1-115.3z"/><path fill="#8F6CFF" d="M660.6 311.7c38.6-39.6 44.8-80.6 32.1-90.8-7.5-6-17.8-1.2-25.9-1.7-13-1-16-16.5-3.3-21.8 9.7-4.3 31.7-4.3 43.9 8.8 23.7 25.2 2.2 83.3-56.4 118.9-.8.5-1.8.2-2.2-.5-1.2-1.9.5-1.5 11.8-12.9z"/><path fill="#B5F6FB" d="M646 264.3c4.9 71.9-28.4 104.8-18.6 138.7 6.9 23.8 19.9 33.9 11 69.9-8 32.4-50.2 56.6-96.9 109.4-91.4 13.1-198.8-51.7-230.2-109.4-58-106.7-64.5-264.2-64.5-264.2"/><path fill="#9CCFD9" d="M461.2 239.7l-22.7-12.3c-18.4-8.3-39.9 31.6-100.9 98.6-40.8 44.7-5 153.9 45.3 218.9 2.7 2 183.1 79.9 175.3 25.5C454.2 596 408.8 487.9 406 479c-4-13.2-15.2-43.2-17.5-62.2-3-24.8 61.8-78.2 52.5-164.7-.3-3.1 16.9 26.8 35.4 48 43.3 49.7 109.1 23.6 173.4 13.2 16.6-56.5-8.5-81.4-8.5-81.4l-181.7 21.7c-.9 0 1.3-14.8 1.6-13.9z"/><path fill="#9CCFD9" d="M566.2 340.7c6.4 18.5-13.5 50.3-14.1 65.8-.4 7.4 2.9 9.1 8.2 8.2l1-.2c1.5-.3 2.3 1.6 1.2 2.5-9.3 7.4-23 .5-18-23 3.7-16.7 18.2-40.6 17.9-53.6 0-.9.7-1.7 1.7-1.7 1.4-.1 1.7 1 2.1 2z"/><path fill="#533657" d="M539.9 442.7s.2 0 .5-.1c14-3.3 19-4.2 26.9-11.4 3.1-3.3 4.7-6.7 5.4-7.7 1-1.4 2.4-1.5 3.4-.8 1.3 1 1.6 4.4 1.7 6 .4 9.1-7.3 19.3-22.1 21.6-8.9 1.5-17.2-1.2-16.2-1.1-1.8-.1-3.2-1.8-3-3.6 0-1.7 1.6-3.1 3.4-2.9zM481.2 401.6c6.6 11.7 3.5 28-10.4 35.9-19.5 11.5-49.8-1.7-57.3-23.7l12.5 4.4c-19.8 2.3-28.1 1.3-28.1 1.3-5.3-.3-5.8-7.9-.7-9 8.6-1.9 13.3-3 24.7-5.9 1.7-.5 2.9.1 3.6 1.3 9.7 17.5 36.5 26 44.9 11.2 2.4-4.1 2.9-10.4 2-15.1-.1-.7-.3-1.6-.4-2.3-.6-3.5 3.9-5.4 6-2.6 2.7 3.4 2.6 3.4 3.2 4.5zM584.9 386.4c11.3 12.5 24.1 5.1 29.1-8.6 4.1-10.5-3-5.2 21.1-14.2 3.7-1.4 6.7 3.3 3.8 6.1-5.6 5.4-10.7 9-17.4 13.1l7.2-6.9c3.7 29.7-33.4 46.9-49.3 23.2-1.4-2.1-2.9-6.4-3-9.5.2-3.2.8-6.2.8-6 .2-1.5 1.6-2.5 3.1-2.3 1.9.3 1.7 1.5 4.6 5.1z"/><path fill="#FF63D7" d="M479.1 514.8l-14 6.8s20.1 31.5 46.4 26.4c26.4-5.1 11.7-29.9 11.7-29.9l-44.1-3.3z"/><path fill="#533657" d="M452.6 506.2s32.6 5.3 98.9-29.8c-9 19.7-23.2 23-23.2 51.4-18.1-11.1-23.2-8.3-27.8-4.1-12.1-5.8-31.7-.6-31.7-.6l-16.2-16.9zM451.6 492.9c-.8.4-2 1-2.8 1.6-5.2 3.4-9.7 8.4-11.6 14.4-.2.6-.9 1-1.5.8-1.2-.4-3.8-6.2-1-11.5 5.1-10.9 18.7-7.7 17.5-5.6-.2.2-.4.2-.6.3z"/><path fill="#533657" d="M482.7 516.4c10.7.4 17 4.9 22.9 12.4 1.3 1.7-1.1 3.8-2.6 2.3-2.5-2.4-6-5.4-9.3-6.6-8.3-3.1-15-1.7-21.4 3.3-1.8 1.4-4.5 1.1-6-.7s-1.1-4.5.7-6c3.2-2.3 10.4-4.9 15.7-4.7z"/><path fill="#533657" d="M525.1 537.7c-7.3-16.9-21.6-12.1-22.2-11.9-4.3 1.5-6.6-5-2.3-6.5.2-.1 21.1-7.1 30.8 15.7 1.8 4.1-4.5 6.9-6.3 2.7z"/><path fill="#533657" d="M439.8 497.4l.8.3c22.5 10.6 44.6 55.1 78 42.9 4.3-1.8 6.5-3.7 8.4-8.1l.3 3.9c-10.6-23.3 5.5-51.5 29-60.6 2-.8 3.4 2.1 1.6 3.2-11 6.5-18.5 16.4-22 25.7-4.8 11.8-3.5 20.4.9 29.1-2.7 7.8-6 12.9-15.6 16.7-39.9 15.3-67.2-38.4-84-47.9-1.4-.8-1.9-2.6-1.1-4 .7-1.2 2.3-1.8 3.7-1.2z"/><path fill="#FFF" d="M464.2 503c32.2 16.9 86.1-6.2 87.6-7.4 1.5-1.1 7-25.7 7-25.7S499 512.2 464.2 503z"/><path fill="#533657" d="M444.2 495.6s.5.2 1.4.6c44.2 19.3 80.1-27.3 123.8-31 10.2-.9 11.7 14.9.4 15.3-39.5 1.6-79.2 47.7-129.2 22.8-2.1-1-3-3.6-1.9-5.7 1-2.1 3.4-2.9 5.5-2z"/><path fill="#533657" d="M531.9 490.3c2.4-2.8-7.9-7.7-4.5-9.6 21.4-12.3 43.7-19.1 60.8-16.4-.4 4.8-4.1 13.6-13.4 14.9-8.4 1.1-14.5.1-42.9 11.1z"/><path fill="#533657" d="M529.3 492.1c2.5-2.9 3.4-2.5-.6-6.4-1.4-1.3-4.5-4.1-1.8-5.6 18-10.4 41.6-19.6 62-16.4-.6 8-6 15.2-14.1 16.3-10 1.2-13.9-.1-45.5 12.1zm-1.9-10.5c-.1.6 1.4 2 2.4 2.9 1.4 1.3 3 2.9 3.2 4.4 27.4-10.5 33.3-9.5 41.6-10.6 8.2-1.1 12-8.5 12.7-13.4-25.7-3.6-59.7 15.7-59.9 16.7z"/><path fill="#533657" d="M300.4 478.8c-24.7-45.5-43.3-104.7-55.3-176-8.9-52.9-10.6-92-10.6-93.7l25-1c.1 1.5 7 155.9 63 258.7 28.3 52 127.4 113.3 213 103.6 44.4-49.4 84.4-73.9 91-100.6 7.8-31.6-3.5-38.1-10.9-63.5-11.5-39.6 22.9-70.7 18.1-141.3l24.9-1.7c2.8 40.8-6 69.5-13 92.6-10.1 33-9.5 37-.3 58.8 6.3 15 12.9 30.5 5.4 61-9.1 37.2-50.8 59.3-102.7 118.2-105.1 15.2-214.9-54.9-247.6-115.1z"/><path fill="#FFF" d="M318 563.3c-104.5-41.1-178.5-142.9-178.5-262 0-155.4 126-281.4 281.4-281.4 116.2 0 215.9 70.4 258.8 170.8-18.5 1.7-190.5 9.6-332.7 119.9 0 0-55.7 77.2 38.6 221.4-25.4 11.4-67.6 31.3-67.6 31.3z"/><path fill="#E5E5E5" d="M347 310.7c142.2-110.3 314.2-118.3 332.7-119.9-42.3-81.2-85.5-140.1-170.8-140.1-26.9 0-156.9-1.3-226.3 89.1-58 75.5-63.3 161.7-50.3 226.4-2.4 2.7-21.8 3.7-24.8 6.3l-62.8-39.3-5.2 24.5 47.9 40.9c-1.5 3.2 1 1.7 1.3 5.8 2.5 39.7 34.9 69 61.7 69 4.5 0 8.2 2.2 10.3 5.5 20.4 33.1 45.2 61.7 70.5 84.4 0 0 29.1-20 54.5-31.2C291.3 387.8 347 310.7 347 310.7z"/><g><path fill="#FF63D7" d="M340.3 300.4c-54.8-193.1-150.3-160-150.3-160l51.2-51.8s111.6 0 158.8 172.3l-59.7 39.5z"/></g><g><path fill="#7B4EFF" d="M441.2 235.7s1 99.4-106.9 143.2l5.2-91 101.7-52.2z"/></g><g><path fill="#FF63D7" d="M575.9 152.3C512.2 12.4 400 19.9 400 19.9c29.9-8.9 184.8 10.9 247.3 114.3l-71.4 18.1z"/></g><g><path fill="#533657" d="M293.5 566.3C113.2 479.4 68 238.8 214.2 93.4c148.9-148 396.1-96.8 477 92.4l-23 9.8c-76.1-178-311.8-221.5-445.7-74.7 35.1 10.1 68.6 33.8 93.2 71.6 19.6 30.1 30.4 63.7 37 98.4l-.4 2.3c-30.7 163.7 46 233.4 46.8 234.1l15.8 13.9-74.7 27.3c-15.2 5.6-32.2 4.8-46.7-2.2zm-88.7-423.9C103.5 278.9 154 471.3 304.4 543.7c8.5 4.1 18.4 4.6 27.2 1.3l37.6-13.7c-50.5-65.1-56.8-158.9-42-240.3-10.1-51-32.5-100.8-76.2-129.6-19.1-12.6-36.9-17.3-46.2-19z"/></g><g><path fill="#533657" d="M192.5 372.4L53 267.9l6.5-15.9 147.7 92.4"/><ellipse fill="#B5F6FB" cx="243.8" cy="384.5" rx="48.5" ry="59"/><path fill="#9CCFD9" d="M244.2 322.2s-17.4 71.5 14.3 119.1c35.4-25.6 55.3-82-14.3-119.1z"/><path fill="#B3ABD3" d="M258.4 442.2c-21.6-32.5-23.7-83.9-14.6-121.1 68.3 36.5 53.9 92.7 14.6 121.1zm-13.7-119c-1.8 8.3-14.7 73.1 14 117.1 36.3-26.7 52-81.3-14-117.1z"/><path fill="#533657" d="M193.2 344.7c27.8-50.9 97.3-32.8 109 28.7 7 37.1-12.3 73.3-45.2 79.5-51.5 9.8-91.1-58.3-63.8-108.2zm18.7 10.2c-5.7 10.5-7.5 23.5-5.1 36.5 7.8 41.3 51 55.9 69.3 22.5 5.7-10.5 7.5-23.5 5.1-36.5-7.7-40.6-50.7-56.4-69.3-22.5z"/><ellipse transform="rotate(-10.726 243.074 385.35)" fill="#FF63D7" cx="243.1" cy="385.4" rx="17.5" ry="22.8"/><path fill="#533657" d="M217.4 390.3c-5.4-28.5 21.3-46.9 40.7-29.5 18.9 16.9 13.2 51.4-9.1 55.6-13.9 2.6-28.3-8.4-31.6-26.1zm22.3 6.7c10.8 9.7 17.8-13.3 6.7-23.3-10.8-9.7-17.7 13.4-6.7 23.3z"/><ellipse fill="#FF63D7" cx="35.2" cy="247.3" rx="24.6" ry="29.9"/><path fill="#533657" d="M35.2 287.9C15.8 287.9 0 269.7 0 247.3s15.8-40.6 35.2-40.6 35.2 18.2 35.2 40.6-15.7 40.6-35.2 40.6zm0-59.8c-7.5 0-13.9 8.8-13.9 19.2s6.4 19.2 13.9 19.2 13.9-8.8 13.9-19.2-6.3-19.2-13.9-19.2z"/><g><path fill="#533657" d="M52.117 266.045l10.8-18.475 149.61 87.465-10.8 18.475z"/></g><g><path fill="#533657" d="M49.69 270.847l13.434-16.655L199.25 363.994l-13.435 16.655z"/></g></g><g><path fill="#533657" d="M346.8 300.7l-13.6-19.4c44.9-31.4 187.2-110.4 363.1-135.1l3.3 23.5c-106.7 15-196.8 49.8-253.7 76.4-61.8 28.7-98.8 54.3-99.1 54.6z"/></g><g><path fill="#533657" d="M391.5 263c-10.2-57.5-36.2-109.5-86.6-140.9-34-21.2-64.4-23.6-64.7-23.7l1.8-24.9c1.5.1 36.9 3 76.1 27.4 55.9 34.9 86.4 92.3 98 157.7l-24.6 4.4z"/></g><g><path fill="#533657" d="M400.1 11.3c31.9-2.4 72.9 7.7 97 20.9 33.4 18 58.8 39.8 83 79.9 16.8 27.8 25.6 55.8 33 83.3 1.8 6.7-2.1 13.5-8.8 15.4-6.2 1.7-13.6-1.5-15.6-9.7-6.7-27.2-7-27.6-14-47.1-53.2-135.8-174-125.6-174-125.6-10.9 1-13.5-15.9-.6-17.1z"/></g><g><path fill="#7B4EFF" d="M638.7 369s78.2-46.9 98.9-111c10.8-33.6-107.5 9-162 21.7-102.5 23.9-128.7-47.3-128.7-47.3S645.5 42.7 746 112.7c134.8 93.8 13 221.1-99 264.7"/></g><g><path fill="#9191FD" d="M459.9 245.4c71 30.2 170.7-19 230-36.4 85.1-23.4 108.2 12.5 93.9 52.9-7.5 21.2-23.8 41.7-39.2 57.9-3.3 3.4-8.6-1.1-5.6-4.9 65-82.1 38.4-116.1-47.3-90.7-46.8 13.8-161.9 67.3-234.6 26.8-1.5-.9-2.1-2.8-1.2-4.3.8-1.4 2.5-1.9 4-1.3z"/></g><g><path fill="#9191FD" d="M451.4 232s.5.1 1.3.2c30.8 4.9 62.8-6.3 101-22.8 58.8-25.5 98.3-49 163-51.6 89.5-3 133.3 45.9 64.2 125.3-3.1 3.6-8.7-.8-5.8-4.7 12.8-17.4 28.1-41.3 28-62.9-.4-36.7-48.6-44.6-85.7-42.7-82.7 3.7-131.5 46.7-208.3 64.7-20.9 4.7-38.8 5.8-58.9.6-1.7-.4-2.7-2.2-2.3-3.9.4-1.4 2-2.4 3.5-2.2z"/></g><g><path fill="#9191FD" d="M444.9 230c93.8-81.9 273.8-154.1 343.7-82.3 3.2 3.3-1.3 8.6-5.2 5.4-70.6-57.8-229.9 15.1-306.2 63.2-16 10.1-23 15.1-28.4 18.7-1.4 1-3.4.6-4.4-.8-1-1.4-.7-3.2.5-4.2z"/></g><g><path fill="#533657" d="M634.4 362.3c6.8-4.5 18.5-13.2 30.4-23.5 57.5-50.2 61.9-86 64.5-93.3-1.5 3.1 0 8 4 9.5.3.1 0 0-.4 0-26.4-1.3-161.4 49.4-197.6 48.9-42-2-82.9-37.2-111.1-68.3 84-87.6 206.7-161.3 324.4-134.2 1.1.2.7.1 1.6.5 45.8 18.4 83.5 106.8 66.2 138.8-39.7 68.8-118.2 134.7-178.1 140l-1.4-13.2c39.5-5.1 111.4-49.1 161.5-135.6 11-22.3-23.1-95.9-56.6-108.3l1.6.5c-48-10.3-93.6-2.5-139.3 15.8-57.7 23.1-117.5 67.7-153.7 104.5l.2-16.9c15.3 17 38.4 36.6 59.6 46.5 23 10.8 33.4 8.7 71.2-1 82.8-21.3 145.8-44 161-34.4 4.9 3.2 7 9.2 3.8 15.6l.8-2.2c-12 50.3-64.2 98.8-103.8 123.9l-8.8-13.6z"/></g><g><path fill="#9191FD" d="M378 349.9c-10 9.3-17.9 13.3-26.2 17.2-5.4 2.5-9.6-5.3-4.5-8.4 13.4-8.3 20-15 28.7-28 13.9-23.1 20.8-51.7 21.2-75 .1-6.9 5.8-12.4 12.7-12.3 6.9.1 12.4 5.8 12.3 12.7-.1 3.7-8.3 60-44.2 93.8z"/></g><g><path fill="#533657" d="M336.8 391.1l-4.9-24.5c35.7-7.2 61-30 75.2-67.6 11.1-29.5 10.9-57.3 10.9-57.6l25-.3c0 1.3.2 32.2-12.3 65.9-17.1 46.1-49.5 75.2-93.9 84.1z"/></g><g><path fill="#533657" d="M346.2 301.1l-12.5-20.2c.5-.3 46.9-28.9 102.3-55.8l10.4 21.3c-54.3 26.4-99.7 54.4-100.2 54.7z"/></g><g><path fill="#7B4EFF" d="M356.6 476.3c50 21.2 99.5 114.5 31.3 152.8-90.6 50.8-137.7-54.7-80.4-98.4s86.9 33.6 31.7 58.3"/><path fill="#B5F6FB" d="M305.3 631.8c-3.2-2.7.3-8 4.3-5.4 39.6 25.7 128-37.2 54.1-104.5-1.5-1.3 1 .8-5.1-4.5-6.7-5.8-7.4-15.9-1.6-22.6 6.2-7.2 17.3-7.4 23.9-.4 93.4 101.1-27.4 177.6-75.6 137.4z" opacity=".4"/><path fill="#B5F6FB" d="M368 559.3c-14.5 30.6-53.4 36.2-56.4 5.1-.2-2.2 1.4-4.1 3.6-4.3 3.5-.3 4.3 3 4.8 4.7 3.9 15.2 25.1 8.3 30.6-14.2.3-1.5.7-4.2.9-5.5.8-5.7 6.1-9.7 11.8-8.9 5.7.8 9.7 6.1 8.9 11.8-.5 2.4-2.8 8.3-4.2 11.3z" opacity=".4"/><path fill="#533657" d="M358.9 470.7C431 486.3 469.7 590.4 395 639.1c-84.6 55-164.2-28.3-113.5-95.8 13.3-17.7 41-39 63.3-34.3 31.5 6.6 37.1 57 9.7 81.5-9.1 8.1-21.3 12.9-33.1 9-22.7-7.4-24.9-38.4 2.1-46.1 4-1.1 6.8 4.1 3.3 6.8-4.7 3.8-10.4 9.4-8.7 15.3 1.7 6.4 10.4 9.2 16.8 4.7 5.8-4 10.3-9 13.4-17.4 6.4-18.2 1.7-45.8-25.3-31.2-3.8 2-8 5-10.7 7.2-48.8 40.1-19.7 95.9 27.9 94.1 22.9-.8 58.7-17.3 67.6-48 10.2-34.4-14-80.6-54.5-89.7-6.7-1.5-11-8.2-9.5-14.9 1.7-6.8 8.4-11 15.1-9.6z"/><g><path fill="#533657" d="M350.1 531.3c-6-3.5-7.9-11.2-4.4-17.1 4.3-7.3 1.6-22-7.2-40.3-3-6.2-.4-13.7 5.8-16.7s13.7-.4 16.7 5.8c13.2 27.1 15.3 48.6 6.3 63.9-3.6 5.9-11.2 7.9-17.2 4.4z"/></g></g></svg>